<svg width="74" height="107" viewBox="0 0 74 107" fill="none" xmlns="http://www.w3.org/2000/svg">
<path d="M58.6092 15.4625C57.399 9.07057 52.8816 3.83264 46.8218 1.79771C42.7688 0.435451 34.6319 -0.544022 24.9694 7.71957C22.1154 5.15268 19.709 3.57933 17.8007 3.03612C12.3854 1.49655 7.29387 3.30351 3.46886 8.12769C3.42383 8.18398 -0.913432 13.7709 0.474154 16.2731C1.72383 18.5275 4.23161 17.9477 6.24404 17.4862C8.28742 17.0161 10.829 16.4307 13.7393 17.2751C15.7489 17.8577 17.2575 18.0857 18.51 18.0857C20.1115 18.0857 21.2964 17.7141 22.5827 17.23C23.1625 17.0105 23.7113 16.805 24.3755 16.6587C24.8399 16.5573 25.2706 16.3772 25.6674 16.1464C25.9433 16.5376 26.1684 16.9204 26.402 17.3201C27.6404 19.4338 28.8535 21.0719 33.2443 22.9211C36.0363 24.0976 37.6434 26.1494 38.9353 27.8016C39.9795 29.1385 41.2348 30.74 42.9714 30.74C43.3514 30.74 43.7539 30.664 44.1817 30.4895C46.8359 29.42 46.9794 22.3469 46.9794 22.2766C47.0413 16.1183 44.2239 11.5108 39.0451 9.29855C37.3057 8.5555 34.6206 8.25435 31.0517 8.4007C36.0166 5.2146 41.0209 4.2689 45.4849 5.76907C50.1092 7.32272 53.5599 11.3363 54.4887 16.2421C55.4288 21.2098 53.5345 26.1044 49.2873 29.6733C40.0837 37.4021 38.2233 45.8683 38.2824 51.6101C38.3471 57.8444 40.6213 62.2323 40.7198 62.4181L44.4294 60.4732C44.117 59.868 36.9314 45.5222 51.9809 32.8819C57.4215 28.311 59.8364 21.9641 58.6036 15.4653L58.6092 15.4625Z" fill="#C4E6FF"/>
<path d="M53.0757 103.75H32.2676L18.5859 68.6017H66.7546L53.0757 103.75Z" fill="white"/>
<path d="M53.076 100.936H32.2678C33.1713 101.625 34.0776 102.312 34.9811 103.001C34.5279 101.839 34.0748 100.677 33.6245 99.5114C32.5324 96.7081 31.4403 93.9019 30.3511 91.0986C29.0339 87.7155 27.7195 84.3352 26.4023 80.9521C25.2652 78.0277 24.1253 75.1034 22.9882 72.1818C22.4337 70.7605 21.9102 69.3222 21.3276 67.9121C21.3191 67.8924 21.3135 67.8727 21.3051 67.853C20.4016 69.0408 19.4953 70.2285 18.5918 71.4163H64.7931C65.4207 71.4163 66.0512 71.4275 66.6788 71.4163C66.707 71.4163 66.7323 71.4163 66.7605 71.4163C65.857 70.2285 64.9507 69.0408 64.0472 67.853C63.5941 69.0154 63.1409 70.1779 62.6906 71.3431C61.5985 74.1464 60.5065 76.9526 59.4172 79.7559C58.1 83.139 56.7856 86.5193 55.4684 89.9024C54.3313 92.8268 53.1914 95.7511 52.0543 98.6726C51.4998 100.094 50.906 101.507 50.3937 102.942C50.3881 102.962 50.3796 102.982 50.3712 103.001C50.1235 103.64 50.3233 104.6 50.6555 105.171C50.9876 105.743 51.6659 106.311 52.3386 106.466C53.0591 106.629 53.8669 106.596 54.5086 106.182C54.6972 106.036 54.8886 105.889 55.0772 105.743C55.4262 105.391 55.6682 104.977 55.8005 104.502C56.2537 103.339 56.7068 102.177 57.1571 101.012C58.2492 98.2082 59.3412 95.4021 60.4305 92.5988C61.7477 89.2157 63.0621 85.8354 64.3793 82.4522C65.5164 79.5279 66.6563 76.6035 67.7934 73.682C68.3479 72.2607 68.9418 70.8477 69.454 69.4123C69.4596 69.3926 69.4681 69.3729 69.4765 69.3532C69.7946 68.5398 69.4765 67.5491 68.9727 66.8989C68.4351 66.2037 67.6555 65.7899 66.7633 65.7899H20.562C19.9344 65.7899 19.3039 65.7815 18.6762 65.7899C18.6481 65.7899 18.6228 65.7899 18.5946 65.7899C17.7024 65.7899 16.92 66.2037 16.3852 66.8989C15.8842 67.5491 15.5633 68.5398 15.8814 69.3532C16.3345 70.5156 16.7877 71.678 17.238 72.8433C18.3301 75.6466 19.4221 78.4527 20.5114 81.256C21.8286 84.6392 23.143 88.0195 24.4602 91.4026C25.5973 94.3269 26.7372 97.2513 27.8743 100.173C28.4288 101.597 28.9748 103.024 29.5349 104.443C29.5433 104.462 29.549 104.482 29.5574 104.502C29.7882 105.093 30.0528 105.566 30.565 105.962C31.0773 106.359 31.6374 106.568 32.2707 106.568H53.0788C54.5508 106.568 55.9609 105.273 55.8934 103.753C55.8258 102.233 54.6578 100.938 53.0788 100.938L53.076 100.936Z" fill="#009997"/>
<path d="M68.0692 61.4414H17.2717C16.0841 61.4414 15.1213 62.4041 15.1213 63.5917V69.6515C15.1213 70.8391 16.0841 71.8019 17.2717 71.8019H68.0692C69.2568 71.8019 70.2195 70.8391 70.2195 69.6515V63.5917C70.2195 62.4041 69.2568 61.4414 68.0692 61.4414Z" fill="white"/>
<path d="M68.069 68.9873H19.2615C18.6197 68.9873 17.9808 68.9901 17.3391 68.9873C17.2181 68.9873 17.0999 68.9816 16.9788 68.9676C17.2293 69.0013 17.477 69.0351 17.7275 69.0689C17.5389 69.0379 17.3616 68.9901 17.1815 68.9197L17.8542 69.204C17.6825 69.128 17.5277 69.0351 17.3785 68.9254L17.9471 69.3644C17.8035 69.249 17.6769 69.1196 17.5586 68.976L17.9977 69.5446C17.8851 69.3954 17.7951 69.2378 17.7191 69.0689L18.0033 69.7416C17.933 69.5643 17.8851 69.3869 17.8542 69.1956L17.9555 69.9442C17.8711 69.1927 17.9358 68.4075 17.9358 67.6532V64.2672C17.9358 63.9464 17.9189 63.6199 17.9555 63.299L17.8542 64.0477C17.8851 63.8591 17.933 63.6818 18.0033 63.5017L17.7191 64.1743C17.7951 64.0027 17.8879 63.8479 17.9977 63.6987L17.5586 64.2672C17.674 64.1237 17.8035 63.997 17.9471 63.8788L17.3785 64.3179C17.5277 64.2053 17.6853 64.1152 17.8542 64.0393C17.629 64.135 17.4067 64.2278 17.1815 64.3235C17.3588 64.2532 17.5361 64.2053 17.7275 64.1743C17.477 64.2081 17.2293 64.2419 16.9788 64.2757C17.5024 64.2166 18.0484 64.256 18.5747 64.256H66.0651C66.7096 64.256 67.3569 64.2532 68.0015 64.256C68.1225 64.256 68.2407 64.2616 68.3617 64.2757C68.1113 64.2419 67.8636 64.2081 67.6131 64.1743C67.8016 64.2053 67.979 64.2532 68.1591 64.3235C67.9339 64.2278 67.7116 64.135 67.4864 64.0393C67.6581 64.1152 67.8129 64.2081 67.9621 64.3179C67.7735 64.1715 67.5821 64.0252 67.3935 63.8788C67.5371 63.9942 67.6637 64.1237 67.7819 64.2672L67.3429 63.6987C67.4554 63.8479 67.5455 64.0055 67.6215 64.1743L67.3372 63.5017C67.4076 63.679 67.4554 63.8563 67.4864 64.0477L67.3851 63.299C67.4695 64.0505 67.4048 64.8358 67.4048 65.5901V68.976C67.4048 69.2969 67.4217 69.6234 67.3851 69.9442L67.4864 69.1956C67.4554 69.3841 67.4076 69.5614 67.3372 69.7416L67.6215 69.0689C67.5455 69.2406 67.4526 69.3954 67.3429 69.5446L67.7819 68.976C67.6665 69.1196 67.5371 69.2462 67.3935 69.3644L67.9621 68.9254C67.8129 69.0379 67.6553 69.128 67.4864 69.204L68.1591 68.9197C67.9818 68.9901 67.8045 69.0379 67.6131 69.0689C67.8636 69.0351 68.1113 69.0013 68.3617 68.9676C68.2632 68.9788 68.1675 68.9845 68.069 68.9873C67.3372 69.0042 66.5998 69.2912 66.0791 69.8119C65.5922 70.2989 65.2235 71.101 65.2545 71.8019C65.322 73.2992 66.4929 74.653 68.069 74.6164C68.995 74.5967 69.9548 74.3631 70.7288 73.8396C71.7026 73.1838 72.35 72.331 72.7637 71.2389C73.0086 70.5916 73.0339 69.8964 73.0339 69.2124V63.7775C73.0339 62.4462 72.6005 61.3119 71.7618 60.2902C70.8217 59.1447 69.3159 58.6296 67.872 58.6296H20.1649C19.2389 58.6296 18.3158 58.6296 17.3898 58.6296C15.1522 58.6353 13.2833 59.9947 12.5431 62.0944C12.3207 62.7277 12.3066 63.4088 12.3066 64.0758V69.4967C12.3066 70.8336 12.7542 72.027 13.6379 73.029C14.5217 74.031 15.929 74.5967 17.2828 74.6192C18.0033 74.6305 18.7239 74.6192 19.4444 74.6192H68.0718C69.5439 74.6192 70.954 73.3245 70.8864 71.8047C70.8189 70.2792 69.6508 68.9901 68.0718 68.9901L68.069 68.9873Z" fill="#009997"/>
</svg>
