<svg width="104" height="105" viewBox="0 0 104 105" fill="none" xmlns="http://www.w3.org/2000/svg">
<path d="M16.9618 78.6717L2.88892 68.4126V3.63232L16.9618 15.2059" fill="white"/>
<path d="M18.383 76.2428C16.8012 75.0888 15.2195 73.9376 13.6377 72.7836C11.113 70.9429 8.58831 69.1022 6.06364 67.2615C5.47821 66.8364 4.89559 66.4086 4.31015 65.9836L5.70337 68.4126V6.25832C5.70337 5.41958 5.71463 4.58083 5.70337 3.74209C5.70337 3.7055 5.70337 3.66891 5.70337 3.63232C4.10188 4.29656 2.50038 4.95799 0.898887 5.62223C2.48631 6.92819 4.07092 8.23134 5.65834 9.5373C8.18583 11.6145 10.7133 13.6916 13.238 15.7716C13.815 16.2473 14.392 16.7201 14.969 17.1958C15.5459 17.6714 16.1652 18.0204 16.9589 18.0204C17.6484 18.0204 18.4731 17.7136 18.9488 17.1958C19.4244 16.6779 19.8072 15.9545 19.7734 15.2059C19.7425 14.5022 19.5173 13.6832 18.9488 13.216C17.3613 11.91 15.7767 10.6068 14.1893 9.30088C11.6618 7.22372 9.13434 5.14656 6.60966 3.06659C6.03268 2.59093 5.45569 2.11808 4.8787 1.64242C4.50436 1.33281 4.11313 1.04854 3.63747 0.919069C3.02389 0.750195 2.38217 0.817745 1.80518 1.0598C0.78349 1.49043 0.0742164 2.50368 0.0742164 3.63232V65.3897C0.0742164 66.3946 0.0516998 67.3994 0.0742164 68.4042C0.0854747 68.9305 0.192429 69.3752 0.459814 69.8312C0.727199 70.2871 1.07902 70.5517 1.49276 70.8557C1.57157 70.9148 1.65038 70.9711 1.72919 71.0273C2.12041 71.3116 2.51164 71.5987 2.90568 71.883C4.26231 72.8737 5.62175 73.8616 6.97837 74.8524C9.67192 76.8169 12.3655 78.7787 15.059 80.7433C15.2223 80.8615 15.3855 80.9797 15.5459 81.0979C16.1004 81.5032 17.0799 81.5567 17.716 81.3822C18.369 81.202 19.0754 80.6982 19.3991 80.0875C19.7453 79.4345 19.917 78.6436 19.6834 77.9174C19.4498 77.1913 19.0135 76.6903 18.3887 76.2343L18.383 76.2428Z" fill="#009997"/>
<path d="M100.273 15.2059L85.1334 3.63232H2.88867" fill="white"/>
<path d="M101.695 12.7741C99.018 10.7279 96.3385 8.68167 93.6618 6.63547L88.4464 2.65003C87.4191 1.86477 86.4875 0.879664 85.1196 0.817743C83.9009 0.761452 82.6653 0.817743 81.4438 0.817743H2.88893C1.41691 0.817743 0.00680483 2.11245 0.0743547 3.63232C0.141905 5.15219 1.30995 6.4469 2.88893 6.4469H81.7815C82.8511 6.4469 83.9234 6.4666 84.9958 6.4469C85.0408 6.4469 85.0858 6.4469 85.1309 6.4469L83.7095 6.0613C85.4095 7.36163 87.1095 8.65915 88.8095 9.95949C91.534 12.0423 94.2585 14.1251 96.983 16.205C97.6051 16.6807 98.2271 17.1564 98.8491 17.632C99.3895 18.0429 100.397 18.0852 101.019 17.9163C101.672 17.7362 102.379 17.2324 102.702 16.6216C103.048 15.9686 103.22 15.1777 102.987 14.4515C102.753 13.7254 102.308 13.2413 101.692 12.7684L101.695 12.7741Z" fill="#009997"/>
<path d="M100.273 15.2059H16.9617V78.6717H100.273V15.2059Z" fill="white"/>
<path d="M100.273 75.8572H20.3449C19.2641 75.8572 18.1833 75.8431 17.1053 75.8572C17.0575 75.8572 17.0096 75.8572 16.9646 75.8572C17.9019 76.7944 18.8419 77.7345 19.7792 78.6718V17.7925C19.7792 16.965 19.7932 16.1375 19.7792 15.31C19.7792 15.2762 19.7792 15.2396 19.7792 15.2059L16.9646 18.0204H96.8958C97.9766 18.0204 99.0574 18.0345 100.135 18.0204C100.183 18.0204 100.231 18.0204 100.276 18.0204L97.4615 15.2059V76.0852C97.4615 76.9126 97.4502 77.7401 97.4615 78.5676C97.4615 78.6014 97.4615 78.638 97.4615 78.6718C97.4615 80.1438 98.7562 81.5539 100.276 81.4863C101.802 81.4188 103.091 80.2507 103.091 78.6718V17.7925C103.091 16.965 103.102 16.1375 103.091 15.31C103.091 15.2762 103.091 15.2396 103.091 15.2059C103.091 13.6832 101.802 12.3913 100.276 12.3913H20.3449C19.2641 12.3913 18.1833 12.38 17.1053 12.3913C17.0575 12.3913 17.0096 12.3913 16.9646 12.3913C15.4419 12.3913 14.15 13.6804 14.15 15.2059V76.0852C14.15 76.9126 14.1388 77.7401 14.15 78.5676C14.15 78.6014 14.15 78.638 14.15 78.6718C14.15 80.1944 15.4391 81.4863 16.9646 81.4863H96.8958C97.9766 81.4863 99.0574 81.4976 100.135 81.4863C100.183 81.4863 100.231 81.4863 100.276 81.4863C101.748 81.4863 103.158 80.1916 103.091 78.6718C103.023 77.1519 101.855 75.8572 100.276 75.8572H100.273Z" fill="#009997"/>
<path d="M87.3039 25.1019H29.0393V69.4878H87.3039V25.1019Z" fill="white"/>
<path d="M87.3037 66.6732H31.4091C30.6519 66.6732 29.892 66.6619 29.1349 66.6732C29.1039 66.6732 29.0701 66.6732 29.0392 66.6732C29.9764 67.6104 30.9165 68.5505 31.8538 69.4878V30.5368C31.8538 28.7524 31.8847 26.9651 31.8538 25.1779C31.8538 25.1526 31.8538 25.1272 31.8538 25.1019L29.0392 27.9165H84.9339C85.691 27.9165 86.4509 27.9277 87.208 27.9165C87.239 27.9165 87.2728 27.9165 87.3037 27.9165L84.4892 25.1019V64.0528C84.4892 65.8373 84.4666 67.6245 84.4892 69.4118C84.4892 69.4371 84.4892 69.4624 84.4892 69.4878C84.4892 70.9598 85.7839 72.3699 87.3037 72.3023C88.8292 72.2348 90.1183 71.0667 90.1183 69.4878V30.5368C90.1183 28.7524 90.1408 26.9651 90.1183 25.1779C90.1183 25.1526 90.1183 25.1272 90.1183 25.1019C90.1183 23.5792 88.8292 22.2873 87.3037 22.2873H31.4091C30.6519 22.2873 29.892 22.2789 29.1349 22.2873C29.1039 22.2873 29.0701 22.2873 29.0392 22.2873C27.5165 22.2873 26.2246 23.5764 26.2246 25.1019V64.0528C26.2246 65.8373 26.2021 67.6245 26.2246 69.4118C26.2246 69.4371 26.2246 69.4624 26.2246 69.4878C26.2246 71.0104 27.5137 72.3023 29.0392 72.3023H84.9339C85.691 72.3023 86.4509 72.3108 87.208 72.3023C87.239 72.3023 87.2728 72.3023 87.3037 72.3023C88.7758 72.3023 90.1859 71.0076 90.1183 69.4878C90.0508 67.9679 88.8827 66.6732 87.3037 66.6732Z" fill="#009997"/>
<path d="M84.9817 88.6494H73.926V79.291H35.9602V88.6494H24.9045C21.361 88.6494 18.4873 91.5231 18.4873 95.0667C18.4873 98.6102 21.361 101.484 24.9045 101.484H84.9817C88.5252 101.484 91.3989 98.6102 91.3989 95.0667C91.3989 91.5231 88.5252 88.6494 84.9817 88.6494Z" fill="white"/>
<path d="M84.9817 85.8349H73.926C74.8633 86.7721 75.8033 87.7122 76.7406 88.6495V79.291C76.7406 77.7683 75.4515 76.4764 73.926 76.4764H40.638C39.1012 76.4764 37.5645 76.4511 36.0277 76.4764C36.0052 76.4764 35.9827 76.4764 35.9602 76.4764C34.4375 76.4764 33.1456 77.7655 33.1456 79.291V88.6495C34.0829 87.7122 35.0229 86.7721 35.9602 85.8349H25.8924C25.3971 85.8349 24.8933 85.8152 24.3979 85.8546C22.225 86.0235 20.283 86.8284 18.6533 88.2779C17.2545 89.5192 16.185 91.3683 15.8669 93.2175C15.653 94.47 15.6474 95.5649 15.85 96.8145C16.0048 97.7518 16.3623 98.6665 16.807 99.5025C18.386 102.461 21.6143 104.279 24.9355 104.296C25.3717 104.296 25.808 104.296 26.2443 104.296H80.8865C82.2459 104.296 83.6053 104.304 84.9648 104.296C88.4548 104.273 91.8999 102.227 93.3212 98.9818C93.8138 97.8559 94.0924 96.8061 94.1909 95.5705C94.2669 94.6023 94.1403 93.575 93.8898 92.6405C93.3241 90.538 92.0181 88.8211 90.2956 87.5349C88.787 86.4062 86.8533 85.8461 84.9788 85.8321C83.5068 85.8208 82.0967 87.1352 82.1643 88.6466C82.2318 90.1581 83.3999 91.45 84.9788 91.4612C85.2828 91.4612 85.5812 91.4837 85.8823 91.5231L85.1336 91.4218C85.6825 91.5034 86.2144 91.6498 86.7267 91.8637L86.054 91.5794C86.5522 91.7961 87.0194 92.0663 87.4529 92.3928L86.8843 91.9538C87.3346 92.3056 87.7371 92.7053 88.0861 93.1556C87.9398 92.967 87.7934 92.7756 87.6471 92.587C87.9735 93.0205 88.2466 93.4877 88.4605 93.9859L88.1762 93.3132C88.3901 93.8255 88.5365 94.3574 88.6181 94.9062L88.5168 94.1576C88.5956 94.7599 88.5956 95.3622 88.5168 95.9645L88.6181 95.2159C88.5365 95.7647 88.3901 96.2967 88.1762 96.8089L88.4605 96.1362C88.2437 96.6344 87.9735 97.1016 87.6471 97.5351L88.0861 96.9665C87.7343 97.4169 87.3346 97.8193 86.8843 98.1684L87.4529 97.7293C87.0194 98.0558 86.5522 98.3288 86.054 98.5427C86.2792 98.447 86.5015 98.3541 86.7267 98.2584C86.2144 98.4723 85.6825 98.6187 85.1336 98.7003C85.3841 98.6665 85.6318 98.6328 85.8823 98.599C85.1168 98.7003 84.323 98.6609 83.5518 98.6609H27.128C26.4019 98.6609 25.6785 98.6609 24.9524 98.6609C24.6315 98.6609 24.3135 98.6412 23.9982 98.599C24.2487 98.6328 24.4964 98.6665 24.7469 98.7003C24.1981 98.6187 23.6661 98.4723 23.1539 98.2584C23.379 98.3541 23.6014 98.447 23.8265 98.5427C23.3284 98.326 22.8611 98.0558 22.4277 97.7293L22.9962 98.1684C22.5459 97.8165 22.1434 97.4169 21.7944 96.9665L22.2335 97.5351C21.907 97.1016 21.634 96.6344 21.4201 96.1362L21.7043 96.8089C21.4904 96.2967 21.3441 95.7647 21.2625 95.2159L21.3638 95.9645C21.285 95.3622 21.285 94.7599 21.3638 94.1576L21.2625 94.9062C21.3441 94.3574 21.4904 93.8255 21.7043 93.3132L21.4201 93.9859C21.6368 93.4877 21.907 93.0205 22.2335 92.587C22.0871 92.7756 21.9408 92.967 21.7944 93.1556C22.1462 92.7053 22.5459 92.3028 22.9962 91.9538L22.4277 92.3928C22.8611 92.0663 23.3284 91.7933 23.8265 91.5794L23.1539 91.8637C23.6661 91.6498 24.1981 91.5034 24.7469 91.4218L23.9982 91.5231C24.564 91.4471 25.1325 91.4612 25.701 91.4612H35.9574C37.48 91.4612 38.7719 90.1721 38.7719 88.6466V79.2882C37.8347 80.2254 36.8946 81.1655 35.9574 82.1027H69.2454C70.7821 82.1027 72.3217 82.1365 73.8556 82.1027C73.8782 82.1027 73.9007 82.1027 73.9232 82.1027C72.9859 81.1655 72.0459 80.2254 71.1086 79.2882V88.6466C71.1086 90.1693 72.3977 91.4612 73.9232 91.4612H84.9788C86.4509 91.4612 87.861 90.1665 87.7934 88.6466C87.7259 87.1268 86.5578 85.8321 84.9788 85.8321L84.9817 85.8349Z" fill="#009997"/>
<path d="M68.8907 63.9993L74.8745 58.0184L64.1509 47.2948L74.8745 36.5741L68.8907 30.5931L58.17 41.3139L47.4492 30.5931L41.4683 36.5741L52.189 47.2948L41.4683 58.0184L47.4492 63.9993L58.17 53.2758L68.8907 63.9993Z" fill="#C4E6FF"/>
</svg>
