<svg width="111" height="109" viewBox="0 0 111 109" fill="none" xmlns="http://www.w3.org/2000/svg">
<path d="M93.7891 50.4237C92.7365 50.4321 91.6923 50.5616 90.6537 50.7389C91.8077 51.3947 92.9617 52.0505 94.1156 52.7035C91.8499 46.6268 88.2641 41.0877 83.5047 36.666C78.7424 32.2415 72.9669 28.9428 66.7157 27.1528C60.0199 25.2332 52.8117 25.0587 46.037 26.6883C39.4481 28.2729 33.3743 31.611 28.2799 36.0468C23.7963 39.9506 19.9712 44.879 17.5789 50.342C17.2383 51.1217 16.909 51.9098 16.6106 52.7063C17.7646 52.0505 18.9186 51.3947 20.0726 50.7417C15.8479 50.0212 11.4403 50.7248 7.86013 53.1763C4.60085 55.4083 2.15498 58.6901 1.12203 62.5235C0.640738 64.3136 0.418387 66.2585 0.640738 68.1077C0.885606 70.1426 1.48511 72.0058 2.39703 73.8438C4.13081 77.3395 6.89754 80.2835 10.033 82.5633C11.7217 83.7933 13.6159 84.7671 15.6058 85.4117C17.2383 85.938 18.9355 86.0984 20.6411 86.0984L18.2121 84.7052C20.7199 89.9544 24.4155 94.7138 28.8991 98.4235C33.3827 102.133 39.0625 105.207 44.9788 106.732C50.8556 108.249 56.9829 108.412 62.947 107.343C68.9111 106.273 74.6191 103.813 79.4714 100.259C84.4166 96.6362 88.5934 92.0203 91.5403 86.6276C91.8921 85.9858 92.2242 85.33 92.5367 84.6686L90.1077 86.0618C93.6315 86.3405 97.2342 84.9191 100.111 82.9771C103.184 80.8999 105.858 78.1613 107.738 74.9499C109.494 71.9495 110.505 68.4932 110.057 65.006C109.573 61.2232 107.955 57.6993 105.183 55.0368C102.126 52.1012 98.0279 50.4518 93.792 50.4293C92.3199 50.4209 90.9098 51.7296 90.9774 53.2439C91.0449 54.775 92.213 56.05 93.792 56.0584C94.1804 56.0584 94.5688 56.0753 94.9544 56.1063C95.1373 56.1204 95.3456 56.1767 95.5257 56.1682C95.5736 56.1682 94.8334 56.0641 95.1317 56.1176C95.2471 56.1401 95.3653 56.1541 95.4835 56.1767C96.2209 56.3118 96.9443 56.506 97.6479 56.7593C97.8224 56.8212 97.9913 56.9 98.1658 56.9591C97.2989 56.6636 97.9125 56.8522 98.1264 56.9535C98.4585 57.1083 98.785 57.2772 99.1031 57.4601C99.4211 57.6431 99.7279 57.8344 100.029 58.0427C100.178 58.1469 100.325 58.2538 100.474 58.3608C100.634 58.4762 100.803 58.6901 100.229 58.1694C100.296 58.2313 100.372 58.282 100.44 58.3411C101 58.8027 101.524 59.3121 102.002 59.8581C102.123 59.996 102.236 60.1368 102.354 60.2747C102.635 60.6068 102.171 60.0326 102.165 60.027C102.224 60.0889 102.278 60.1762 102.329 60.2465C102.557 60.559 102.77 60.8826 102.973 61.2119C103.15 61.5047 103.316 61.8058 103.474 62.1126C103.556 62.2758 103.637 62.4419 103.713 62.608C103.75 62.6868 103.803 62.7797 103.826 62.8613C103.789 62.729 103.561 62.2027 103.727 62.6361C103.992 63.3341 104.212 64.0462 104.364 64.778C104.397 64.9412 104.428 65.1017 104.456 65.2649C104.473 65.3578 104.482 65.4535 104.501 65.5464C104.33 64.7611 104.434 65.0144 104.456 65.2227C104.501 65.6308 104.532 66.0389 104.544 66.4499C104.552 66.7764 104.549 67.1028 104.53 67.4293C104.518 67.5954 104.501 67.7586 104.487 67.9247C104.468 68.133 104.372 68.4144 104.541 67.5504C104.521 67.6545 104.507 67.7586 104.49 67.8628C104.369 68.5439 104.189 69.2166 103.961 69.8696C103.902 70.0384 103.84 70.2045 103.775 70.3706C103.75 70.4325 103.725 70.4944 103.702 70.5591C103.544 70.9673 103.829 70.2636 103.829 70.2608C103.753 70.6126 103.491 70.9954 103.325 71.3163C102.976 71.9861 102.588 72.6307 102.162 73.2555C101.96 73.5539 101.74 73.8409 101.532 74.1337C102.053 73.4075 101.664 73.962 101.524 74.1337C101.383 74.3053 101.245 74.4714 101.101 74.6375C100.592 75.2285 100.049 75.7943 99.483 76.3318C99.1988 76.5992 98.9089 76.861 98.6105 77.1143C98.481 77.2241 98.3488 77.3338 98.2193 77.4408C98.1433 77.5027 98.0673 77.5618 97.9913 77.6237C97.5747 77.9615 98.4191 77.3057 98.1602 77.4943C97.465 77.9981 96.7613 78.485 96.0155 78.91C95.6524 79.1155 95.2837 79.3125 94.9065 79.4926C94.7208 79.5827 94.5294 79.6587 94.3464 79.7487C95.1936 79.3265 94.5547 79.6615 94.3295 79.7459C93.5977 80.0246 92.8406 80.2469 92.0723 80.3905C91.9878 80.4073 91.9062 80.4186 91.8217 80.4355C91.2954 80.5312 92.1229 80.3708 92.1342 80.3989C92.1285 80.3848 91.6219 80.4496 91.5769 80.4524C91.09 80.4862 90.6059 80.4777 90.1189 80.4411C89.2155 80.3708 88.0812 81.0125 87.69 81.8343C87.082 83.1093 86.4093 84.3534 85.6691 85.5552C85.3004 86.1547 84.9148 86.743 84.5123 87.3199C84.3265 87.5873 84.1351 87.8519 83.9438 88.1165C83.8396 88.2572 83.7355 88.3979 83.6285 88.5387C83.5694 88.6175 83.5131 88.7075 83.4456 88.7779C83.499 88.7216 83.8452 88.2685 83.6088 88.564C81.861 90.7594 79.9076 92.7774 77.7376 94.5562C77.6222 94.6519 77.504 94.7448 77.3886 94.8405C77.3098 94.9024 76.7975 95.3021 77.2 94.9925C77.6025 94.6829 77.11 95.06 77.0058 95.136C76.8454 95.2571 76.685 95.3753 76.5217 95.4935C75.9532 95.9072 75.3734 96.3041 74.7823 96.684C73.5974 97.4496 72.3702 98.1504 71.1093 98.7809C70.476 99.0989 69.8315 99.3945 69.1813 99.6787C68.7282 99.8758 69.7498 99.448 69.2911 99.6309C69.125 99.6985 68.9618 99.766 68.7957 99.8307C68.4636 99.963 68.1315 100.09 67.7965 100.211C66.4455 100.703 65.0692 101.12 63.6704 101.458C62.4573 101.75 61.2301 101.95 60.0002 102.164C59.8172 102.195 59.6343 102.223 59.4541 102.251C59.3078 102.277 60.2929 102.153 59.7975 102.201C59.6258 102.217 59.4541 102.237 59.2824 102.251C58.4662 102.322 57.6472 102.367 56.8309 102.4C55.2745 102.462 53.7152 102.426 52.1616 102.296C51.8266 102.268 51.4917 102.237 51.1568 102.201C50.9766 102.181 50.7993 102.161 50.6192 102.139C49.9943 102.063 51.2243 102.226 50.6023 102.139C49.893 102.037 49.1894 101.914 48.4885 101.773C47.1038 101.494 45.7331 101.137 44.3849 100.703C43.7178 100.489 43.0564 100.259 42.4034 100.008C42.1023 99.8927 41.8011 99.7716 41.4999 99.6506C41.0552 99.4705 42.1051 99.9124 41.5534 99.6731C41.3705 99.5943 41.1903 99.5127 41.0074 99.4311C38.5137 98.3052 36.141 96.9092 33.9428 95.2796C33.8049 95.1782 33.667 95.0741 33.5319 94.97C33.256 94.7617 34.0216 95.3556 33.7514 95.1417C33.6923 95.0966 33.636 95.0516 33.5769 95.0066C33.3067 94.7926 33.0421 94.5787 32.7776 94.3564C32.2512 93.9173 31.7362 93.4642 31.2324 92.9969C30.2276 92.0625 29.2706 91.0774 28.3728 90.0416C28.1476 89.7827 27.9252 89.5209 27.7085 89.2564C27.5256 89.034 27.154 88.7272 27.064 88.4542C27.0696 88.4711 27.5059 89.034 27.2357 88.6738C27.1906 88.6147 27.1456 88.5555 27.1034 88.4964C26.9992 88.3585 26.8979 88.2206 26.7966 88.0827C26.5939 87.8041 26.3941 87.5254 26.1971 87.244C25.4118 86.1097 24.6885 84.9332 24.0299 83.7229C23.6977 83.115 23.3853 82.4958 23.087 81.8709C22.6704 80.9984 21.584 80.4777 20.658 80.4777C20.188 80.4777 19.7151 80.489 19.2451 80.458C19.079 80.4467 18.9158 80.4299 18.7497 80.4158C18.3275 80.3792 19.1269 80.4552 19.1241 80.4693C19.1241 80.4693 18.9045 80.4355 18.8736 80.4299C18.4936 80.3651 18.1164 80.2807 17.7449 80.1822C17.4072 80.0893 17.0722 79.9852 16.7401 79.867C16.5712 79.8078 16.4052 79.7459 16.2391 79.6784C16.1462 79.6418 15.7128 79.4617 16.1997 79.6643C16.6866 79.867 16.2701 79.6896 16.1631 79.6418C15.4426 79.3125 14.7474 78.9353 14.0775 78.5159C13.7538 78.3133 13.4358 78.1022 13.1262 77.8827C12.9686 77.7729 12.8138 77.6547 12.659 77.5421C12.2903 77.2747 12.8813 77.7194 12.8841 77.7194C12.825 77.7194 12.5886 77.4858 12.5436 77.4464C11.899 76.9229 11.2855 76.3656 10.7028 75.7746C10.1202 75.1835 9.5742 74.5615 9.05632 73.9141C8.93811 73.7678 8.80019 73.5032 9.23082 74.1393C9.17735 74.0605 9.11543 73.9845 9.05632 73.9085C8.94092 73.7537 8.83115 73.5989 8.72139 73.4385C8.47652 73.0866 8.24291 72.7292 8.02056 72.3633C7.82635 72.0424 7.6434 71.7159 7.4689 71.3866C7.29158 71.0517 7.01294 70.6436 6.93132 70.2692C6.93132 70.2692 7.21559 70.9729 7.05797 70.5676C7.0242 70.4832 6.99042 70.4015 6.95946 70.3171C6.89473 70.151 6.83562 69.985 6.77652 69.8161C6.64986 69.4446 6.53728 69.0674 6.44158 68.6846C6.35996 68.3525 6.29804 68.0204 6.23611 67.6826C6.15449 67.2295 6.32337 68.482 6.25582 67.8093C6.23611 67.6038 6.22204 67.3984 6.2136 67.1929C6.19953 66.827 6.20797 66.4611 6.22486 66.0952C6.23612 65.9038 6.25019 65.7096 6.26708 65.5182C6.27552 65.4225 6.28678 65.3269 6.29804 65.2312C6.35151 64.7273 6.17982 65.9432 6.27552 65.4141C6.41625 64.6514 6.58512 63.8999 6.83562 63.1652C6.90317 62.9682 6.97916 62.774 7.05234 62.5798C7.11989 62.3969 7.28314 62.1436 6.9285 62.8697C6.96791 62.7881 7.00168 62.7008 7.04108 62.6164C7.20151 62.2618 7.37883 61.9156 7.57304 61.575C7.76724 61.2345 7.96989 60.908 8.18943 60.5871C8.29357 60.4379 8.40052 60.2916 8.50748 60.1424C8.62288 59.982 8.83678 59.8103 8.31609 60.3873C8.39208 60.3028 8.45963 60.2099 8.52999 60.1227C9.02536 59.5288 9.56857 58.98 10.1568 58.479C10.2272 58.4199 10.2976 58.3636 10.3651 58.3045C10.7169 58.0089 10.2694 58.3523 10.1709 58.448C10.3285 58.2932 10.5424 58.1722 10.7254 58.0484C11.0828 57.8035 11.4515 57.5755 11.8315 57.3672C12.2115 57.1589 12.6139 56.9844 13.0052 56.7902C12.1467 57.2124 12.8673 56.855 13.1065 56.7677C13.3035 56.6974 13.5005 56.6298 13.7004 56.5679C14.1254 56.4356 14.556 56.3258 14.9923 56.2386C15.1949 56.1964 15.5101 56.2076 15.6903 56.1147C15.6762 56.1232 14.9191 56.202 15.3666 56.1598C15.4848 56.1485 15.6058 56.1344 15.7241 56.1232C16.2025 56.081 16.6838 56.0613 17.1623 56.0697C17.4972 56.0753 17.8322 56.0922 18.1671 56.1232C18.2853 56.1344 18.4486 56.1767 18.564 56.1654L18.2093 56.1176C18.3388 56.1373 18.4683 56.157 18.5977 56.1823C20.2049 56.4553 21.4827 55.7657 22.0597 54.2177C22.1694 53.925 22.282 53.6323 22.4002 53.3424C22.4227 53.2833 22.4481 53.227 22.4706 53.1679C22.6282 52.7738 22.3327 53.4972 22.3327 53.4887C22.3749 53.3142 22.4903 53.1257 22.5635 52.9624C22.828 52.3714 23.1095 51.7887 23.405 51.2146C24.0299 50.0071 24.7223 48.8334 25.4737 47.702C25.8678 47.1109 26.2759 46.5283 26.7009 45.9569C26.7966 45.8275 26.8951 45.698 26.9936 45.5685C27.2751 45.197 26.5799 46.0977 26.9401 45.6417C27.1709 45.3462 27.4074 45.0563 27.6494 44.7692C28.581 43.6518 29.5718 42.5851 30.616 41.5718C31.6855 40.5332 32.8142 39.5622 33.9822 38.6362C34.2524 38.4223 33.4868 39.0134 33.7655 38.8051C33.8246 38.7601 33.8837 38.715 33.9428 38.67C34.1004 38.5518 34.2609 38.4336 34.4185 38.3154C34.7393 38.0789 35.063 37.851 35.3923 37.623C36.0115 37.198 36.642 36.787 37.2809 36.3958C38.6009 35.5908 39.9688 34.8619 41.3761 34.2173C41.5393 34.1413 41.7026 34.0682 41.8658 33.9978C42.0488 33.9162 42.7496 33.6403 41.9024 33.9781C42.2852 33.8261 42.668 33.6657 43.0536 33.5193C43.7826 33.2435 44.52 32.9874 45.2658 32.7566C46.811 32.2781 48.3844 31.9009 49.9774 31.6307C50.1632 31.5998 50.349 31.5688 50.5347 31.5407C50.7374 31.5097 51.5198 31.4168 50.5882 31.5266C51.0217 31.4759 51.4523 31.4196 51.8885 31.3802C52.7132 31.3014 53.5407 31.2508 54.3682 31.2283C55.9584 31.186 57.5543 31.2423 59.1389 31.3971C59.516 31.4337 59.8932 31.4788 60.2704 31.5238C60.7545 31.5829 59.5301 31.4196 60.1972 31.5153C60.4195 31.5491 60.6447 31.5829 60.867 31.6195C61.6073 31.7405 62.3419 31.8812 63.0737 32.0473C64.5429 32.3766 65.9924 32.7932 67.4109 33.2942C67.7571 33.4152 68.1005 33.5418 68.4439 33.6741C68.6043 33.736 68.7619 33.798 68.9224 33.8627C69.1391 33.95 69.8427 34.2596 68.9927 33.8852C69.6598 34.1779 70.3268 34.4763 70.9798 34.8C72.3027 35.4529 73.5861 36.1847 74.8217 36.9869C75.4268 37.3809 76.0235 37.789 76.6061 38.2168C76.761 38.3294 76.9158 38.4448 77.0706 38.5602C77.1268 38.6024 77.186 38.6475 77.2422 38.6897C77.5941 38.9571 77.0312 38.5236 77.0143 38.5152C77.3267 38.7319 77.6194 38.9965 77.9121 39.2385C79.0379 40.173 80.1131 41.175 81.1264 42.2304C81.6245 42.7511 82.1087 43.2831 82.5787 43.8319C82.8123 44.1049 83.0431 44.3836 83.2711 44.6622C83.378 44.7917 83.4822 44.924 83.5863 45.0563C83.6567 45.1463 83.8706 45.4194 83.5863 45.0563C83.2739 44.651 83.5807 45.0506 83.6285 45.1154C85.4045 47.4684 86.9103 50.0268 88.1037 52.7232C88.1572 52.8414 88.388 53.3874 88.1938 52.923C87.9911 52.4389 88.2332 53.0187 88.2754 53.1285C88.4217 53.4916 88.5625 53.8546 88.7004 54.2205C89.2746 55.7573 90.5439 56.4637 92.1623 56.1851C92.258 56.1682 92.3565 56.1513 92.455 56.1373C92.6718 56.1035 92.5845 56.1147 92.1961 56.1682C92.3171 56.1035 92.5592 56.1288 92.6915 56.1176C93.0602 56.0866 93.4289 56.0725 93.8004 56.0697C95.2724 56.0584 96.6825 54.7834 96.615 53.2551C96.5474 51.7409 95.3794 50.4293 93.8004 50.4406L93.7891 50.4237Z" fill="#009997"/>
<path d="M83.2059 50.7586L73.49 16.159C73.1185 14.839 71.9166 13.9271 70.546 13.9271H64.8999C65.3418 12.7844 65.5867 11.5431 65.5867 10.2456C65.5867 4.59957 61.0102 0.0230713 55.3641 0.0230713C49.7181 0.0230713 45.1416 4.59957 45.1416 10.2456C45.1416 11.5431 45.3864 12.7844 45.8283 13.9271H40.1823C38.8116 13.9271 37.6098 14.839 37.2383 16.159L27.5223 50.7586C26.9735 52.7091 28.4399 54.6427 30.4664 54.6427H80.2619C82.2884 54.6427 83.7519 52.7091 83.2059 50.7586ZM48.0969 10.2484C48.0969 6.23484 51.3505 2.98119 55.3641 2.98119C59.3777 2.98119 62.6314 6.23484 62.6314 10.2484C62.6314 11.591 62.2655 12.8491 61.6294 13.9299C60.3656 16.0746 58.0352 17.5157 55.3641 17.5157C52.6931 17.5157 50.3626 16.0746 49.0989 13.9299C48.4628 12.8491 48.0969 11.5938 48.0969 10.2484Z" fill="#C4E6FF"/>
</svg>
