<svg width="130" height="130" viewBox="0 0 130 130" fill="none" xmlns="http://www.w3.org/2000/svg">
<path d="M129.089 63.3745C126.601 61.0103 124.11 58.646 121.622 56.2818C117.659 52.5187 113.696 48.7528 109.733 44.9897C108.83 44.1313 107.926 43.2728 107.023 42.4172C105.272 40.7566 102.218 41.9246 102.218 44.4071V56.2199C103.156 55.2826 104.096 54.3425 105.033 53.4053H74.5089C75.4462 54.3425 76.3862 55.2826 77.3235 56.2199V25.6958C76.3862 26.633 75.4462 27.5731 74.5089 28.5104H86.3217C88.807 28.5104 89.975 25.4565 88.3116 23.7059C85.9474 21.2178 83.5831 18.7269 81.2189 16.2388C77.4558 12.2759 73.6899 8.31296 69.9268 4.35003C69.0683 3.44655 68.2099 2.54307 67.3543 1.6396C66.3269 0.558798 64.4018 0.555984 63.3744 1.6396C61.0102 4.12768 58.646 6.61858 56.2817 9.10667C52.5186 13.0696 48.7527 17.0325 44.9896 20.9954C44.1312 21.8989 43.2727 22.8024 42.4171 23.7059C40.7565 25.4565 41.9246 28.5104 44.407 28.5104H56.2198C55.2825 27.5731 54.3425 26.633 53.4052 25.6958V56.2199C54.3425 55.2826 55.2825 54.3425 56.2198 53.4053H25.6957C26.633 54.3425 27.573 55.2826 28.5103 56.2199V44.4071C28.5103 41.9218 25.4565 40.7538 23.7058 42.4172C21.2177 44.7814 18.7268 47.1457 16.2387 49.5099C12.2758 53.273 8.3129 57.0389 4.34997 60.802C3.44649 61.6604 2.54301 62.5189 1.63953 63.3745C0.558737 64.4018 0.555923 66.327 1.63953 67.3543C4.12762 69.7186 6.61852 72.0828 9.10661 74.4471C13.0695 78.2101 17.0325 81.9761 20.9954 85.7391C21.8989 86.5976 22.8023 87.456 23.7058 88.3117C25.4565 89.9723 28.5103 88.8042 28.5103 86.3218V74.509C27.573 75.4462 26.633 76.3863 25.6957 77.3236H56.2198C55.2825 76.3863 54.3425 75.4462 53.4052 74.509V105.033C54.3425 104.096 55.2825 103.156 56.2198 102.218H44.407C41.9217 102.218 40.7537 105.272 42.4171 107.023C44.7814 109.511 47.1456 112.002 49.5098 114.49C53.2729 118.453 57.0388 122.416 60.8019 126.379C61.6604 127.282 62.5188 128.186 63.3744 129.089C64.4018 130.17 66.3269 130.173 67.3543 129.089C69.7185 126.601 72.0827 124.11 74.447 121.622C78.2101 117.659 81.976 113.696 85.7391 109.733C86.5975 108.83 87.456 107.926 88.3116 107.023C89.9722 105.272 88.8041 102.218 86.3217 102.218H74.5089C75.4462 103.156 76.3862 104.096 77.3235 105.033V74.509C76.3862 75.4462 75.4462 76.3863 74.5089 77.3236H105.033C104.096 76.3863 103.156 75.4462 102.218 74.509V86.3218C102.218 88.807 105.272 89.9751 107.023 88.3117C109.511 85.9474 112.002 83.5832 114.49 81.2189C118.453 77.4558 122.416 73.6899 126.379 69.9268C127.282 69.0684 128.186 68.21 129.089 67.3543C130.159 66.3383 130.19 64.3849 129.089 63.3745C127.941 62.3219 126.249 62.2909 125.109 63.3745C122.621 65.7388 120.13 68.103 117.642 70.4672L105.754 81.7593C104.85 82.6178 103.947 83.4762 103.043 84.3319C104.645 84.9961 106.246 85.6575 107.848 86.3218V74.509C107.848 72.9863 106.559 71.6944 105.033 71.6944H74.5089C72.9862 71.6944 71.6943 72.9835 71.6943 74.509V105.033C71.6943 106.556 72.9834 107.848 74.5089 107.848H86.3217C85.6575 106.246 84.996 104.645 84.3318 103.043C81.9676 105.531 79.6033 108.022 77.2391 110.51C73.476 114.473 69.7101 118.436 65.947 122.399C65.0885 123.302 64.2301 124.206 63.3744 125.109H67.3543C64.99 122.621 62.6258 120.13 60.2615 117.642C56.4984 113.679 52.7325 109.717 48.9694 105.754C48.111 104.85 47.2526 103.947 46.3969 103.043C45.7327 104.645 45.0713 106.246 44.407 107.848H56.2198C57.7425 107.848 59.0344 106.559 59.0344 105.033V74.509C59.0344 72.9863 57.7453 71.6944 56.2198 71.6944H25.6957C24.173 71.6944 22.8811 72.9835 22.8811 74.509V86.3218C24.4826 85.6575 26.0841 84.9961 27.6856 84.3319C25.1975 81.9676 22.7066 79.6034 20.2186 77.2391C16.2556 73.476 12.2927 69.7101 8.32978 65.947C7.4263 65.0886 6.52282 64.2301 5.61935 63.3745V67.3543C8.10743 64.9901 10.5983 62.6258 13.0864 60.2616C17.0493 56.4985 21.0123 52.7326 24.9752 48.9695C25.8787 48.1111 26.7821 47.2526 27.6856 46.397C26.0841 45.7327 24.4826 45.0713 22.8811 44.4071V56.2199C22.8811 57.7425 24.1702 59.0344 25.6957 59.0344H56.2198C57.7425 59.0344 59.0344 57.7454 59.0344 56.2199V25.6958C59.0344 24.1731 57.7453 22.8812 56.2198 22.8812H44.407C45.0713 24.4827 45.7327 26.0842 46.3969 27.6857C48.7612 25.1976 51.1254 22.7067 53.4897 20.2186C57.2527 16.2557 61.0187 12.2928 64.7817 8.32984C65.6402 7.42636 66.4986 6.52289 67.3543 5.61941H63.3744C65.7387 8.10749 68.1029 10.5984 70.4672 13.0865C74.2303 17.0494 77.9962 21.0123 81.7593 24.9752C82.6177 25.8787 83.4762 26.7822 84.3318 27.6857C84.996 26.0842 85.6575 24.4827 86.3217 22.8812H74.5089C72.9862 22.8812 71.6943 24.1703 71.6943 25.6958V56.2199C71.6943 57.7425 72.9834 59.0344 74.5089 59.0344H105.033C106.556 59.0344 107.848 57.7454 107.848 56.2199V44.4071C106.246 45.0713 104.645 45.7327 103.043 46.397C105.531 48.7612 108.022 51.1255 110.51 53.4897C114.473 57.2528 118.436 61.0187 122.399 64.7818C123.302 65.6402 124.206 66.4987 125.109 67.3543C126.179 68.3676 128.042 68.4942 129.089 67.3543C130.1 66.2538 130.229 64.4581 129.089 63.3745Z" fill="#009997"/>
</svg>
