<svg width="141" height="144" viewBox="0 0 141 144" fill="none" xmlns="http://www.w3.org/2000/svg">
<g clip-path="url(#clip0_4671_23144)">
<path d="M70.0153 143.373C108.876 143.373 140.38 111.477 140.38 72.1319C140.38 32.7865 108.876 0.890625 70.0153 0.890625C31.1541 0.890625 -0.349121 32.7865 -0.349121 72.1319C-0.349121 111.477 31.1541 143.373 70.0153 143.373Z" fill="white"/>
<path d="M44.11 74.2293C36.8203 74.2293 29.781 71.1403 24.7936 65.7544C20.1805 60.7704 17.6389 54.2618 17.6389 47.4283C17.6389 32.65 29.5136 20.6273 44.11 20.6273C58.7064 20.6273 70.5811 32.65 70.5811 47.4283C70.5811 55.7379 66.8687 63.4377 60.3951 68.5585C55.7032 72.2687 50.0713 74.2293 44.11 74.2293ZM44.11 33.6673C36.6176 33.6673 30.5212 39.8397 30.5212 47.4255C30.5212 50.9334 31.8244 54.2732 34.1914 56.8322C36.7893 59.6391 40.3131 61.1836 44.11 61.1836C47.1723 61.1836 50.06 60.1777 52.4665 58.2769C55.7933 55.6467 57.6988 51.6914 57.6988 47.4255C57.6988 39.8397 51.6024 33.6673 44.11 33.6673Z" fill="#C4E6FF"/>
<path d="M55.92 93.4701L82.3855 124.964C84.2459 127.179 87.5249 127.447 89.7118 125.563L120.819 98.7676C123.005 96.884 123.27 93.5642 121.41 91.35L94.9441 59.8556C93.0837 57.6414 89.8047 57.3736 87.6178 59.2572L86.6102 60.1263L75.5658 46.9837C68.732 38.8508 56.6799 37.8677 48.6471 44.7866C40.6143 51.7056 39.6433 63.9078 46.4771 72.0407L57.5215 85.1833L56.5139 86.0525C54.327 87.9361 54.0624 91.2559 55.9228 93.4701H55.92ZM62.0642 75.6427L52.7536 64.5604C49.2326 60.3714 49.7336 54.0822 53.871 50.5173C58.0084 46.9524 64.2202 47.4596 67.7412 51.6486L77.0519 62.7309L62.0642 75.6398V75.6427Z" fill="white"/>
<path d="M53.9302 95.4849C54.5607 96.2343 55.1884 96.9838 55.8188 97.7332C57.4006 99.614 58.9824 101.498 60.5614 103.378C62.6413 105.852 64.7213 108.328 66.7985 110.802C68.8756 113.275 70.9922 115.794 73.0919 118.291C74.7525 120.268 76.4159 122.246 78.0765 124.221C78.8392 125.13 79.5964 126.042 80.3676 126.945C81.8959 128.737 84.3811 129.823 86.7257 129.652C87.5081 129.595 88.3047 129.476 89.0393 129.182C90.0159 128.792 90.7562 128.353 91.5724 127.686C91.6653 127.612 91.7525 127.535 91.8426 127.455C92.9009 126.546 93.9563 125.634 95.0146 124.725C97.0608 122.964 99.1042 121.2 101.15 119.439C103.641 117.293 106.132 115.147 108.623 113.002C111.114 110.856 113.411 108.878 115.803 106.815L121.078 102.27C122.26 101.253 123.464 100.329 124.3 98.9671C125.927 96.3084 125.848 92.6067 123.985 90.0876C123.65 89.6345 123.301 89.2128 122.941 88.7853C121.798 87.426 120.655 86.0668 119.516 84.7075C117.644 82.479 115.769 80.2506 113.898 78.0222C111.756 75.4746 109.614 72.9242 107.472 70.3766C105.524 68.057 103.577 65.7402 101.626 63.4206C100.334 61.8818 99.0395 60.3429 97.7476 58.8041C97.4914 58.4992 97.2353 58.1915 96.9764 57.8865C95.4987 56.1426 93.1879 55.1252 90.925 55.1509C89.4305 55.168 87.8374 55.6068 86.6018 56.4788C85.9038 56.9718 85.2649 57.5503 84.6176 58.1088H88.5974C87.4856 56.7866 86.3767 55.4643 85.2649 54.1421C83.351 51.8652 81.4399 49.5884 79.526 47.3115C78.1187 45.6387 76.7677 43.9033 75.079 42.5041C73.0722 40.8428 70.9134 39.5775 68.4844 38.6542C66.3256 37.8335 63.9952 37.4146 61.6928 37.332C57.0178 37.1639 52.1852 38.5972 48.394 41.3842C46.2464 42.9629 44.431 44.8066 42.9112 47.0123C41.5855 48.9386 40.5863 51.1414 39.9474 53.3955C38.678 57.878 38.8216 62.8905 40.4878 67.2477C41.442 69.7411 42.7367 71.9581 44.4423 74.0013C44.7716 74.3946 45.1009 74.785 45.4302 75.1782C47.2034 77.287 48.9738 79.3957 50.747 81.5073C52.2584 83.3054 53.767 85.1007 55.2784 86.8989L55.5233 87.1924V83.163C55.1292 83.5021 54.7239 83.8298 54.344 84.186C53.3476 85.1235 52.6355 86.3574 52.219 87.6597C51.8024 88.962 51.8052 90.3726 52.0417 91.7347C52.2781 93.0969 53.0296 94.3934 53.9246 95.482C54.3609 96.012 55.2587 96.317 55.9145 96.317C56.6041 96.317 57.4288 96.0063 57.9044 95.482C58.3801 94.9577 58.7629 94.2253 58.7291 93.4673C58.6953 92.7093 58.4054 92.0624 57.9044 91.4526C57.8538 91.3928 57.8059 91.3329 57.7609 91.2731L58.1999 91.8487C57.9297 91.4868 57.7046 91.1049 57.5245 90.6889L57.8087 91.37C57.6286 90.9311 57.5047 90.478 57.4372 90.005L57.5385 90.763C57.4822 90.2956 57.4794 89.8311 57.5385 89.3638L57.4372 90.1218C57.5019 89.6545 57.623 89.2042 57.8003 88.7682L57.516 89.4493C57.6905 89.0418 57.9044 88.6656 58.1662 88.3094L57.7271 88.8851C58.2309 88.2325 58.8867 87.7253 59.5059 87.1924C60.0069 86.7592 60.3587 85.8302 60.3306 85.1777C60.2968 84.3883 60.0125 83.7642 59.5059 83.163C58.2084 81.6184 56.9109 80.0739 55.6134 78.5294L49.6211 71.3967C49.0357 70.7014 48.4362 70.0147 47.8817 69.2937L48.3208 69.8693C47.3188 68.5471 46.4857 67.1052 45.8411 65.5692L46.1254 66.2503C45.4809 64.6887 45.039 63.053 44.8082 61.3774L44.9095 62.1354C44.6815 60.4056 44.6815 58.656 44.9039 56.9234L44.8026 57.6814C45.0334 55.983 45.4781 54.3273 46.131 52.7458L45.8468 53.4268C46.4913 51.888 47.3244 50.4433 48.332 49.121L47.893 49.6966C48.8978 48.3915 50.0574 47.2231 51.3493 46.2058L50.7807 46.6504C52.0867 45.6359 53.5109 44.7924 55.0279 44.1398L54.3552 44.4276C55.8976 43.7751 57.5132 43.3277 59.1682 43.094L58.4195 43.1966C60.1279 42.9658 61.8561 42.9658 63.5673 43.1909L62.8187 43.0883C64.4962 43.322 66.1314 43.7722 67.6935 44.4333L67.0208 44.1455C68.5407 44.7981 69.9677 45.6416 71.2737 46.6618L70.7051 46.2172C72.8583 47.9156 74.5386 50.1412 76.2977 52.2357C78.524 54.8859 80.7503 57.5332 82.9767 60.1834C83.5227 60.8331 84.0687 61.4828 84.6176 62.1354C85.0454 62.6426 85.9629 62.9988 86.6075 62.9703C87.3871 62.9361 88.0035 62.6483 88.5974 62.1354C88.9914 61.7963 89.377 61.4458 89.7823 61.1209L89.2138 61.5654C89.5712 61.2919 89.9484 61.0639 90.3593 60.8815L89.6866 61.1693C90.1201 60.987 90.5676 60.8616 91.0348 60.7932L90.2861 60.8958C90.7477 60.8388 91.2065 60.8359 91.6681 60.8958L90.9194 60.7932C91.381 60.8587 91.8257 60.9813 92.2563 61.1608L91.5836 60.873C91.9861 61.0497 92.3577 61.2662 92.7095 61.5312L92.1409 61.0867C92.6701 61.5028 93.0782 62.0157 93.5088 62.5258C94.1224 63.2553 94.736 63.9876 95.3524 64.7172C97.4577 67.2249 99.5658 69.7297 101.671 72.2374C104.252 75.3093 106.836 78.3812 109.417 81.4532C111.657 84.1204 113.9 86.7877 116.141 89.455C117.222 90.7402 118.308 92.0225 119.383 93.3134C119.445 93.3875 119.507 93.4616 119.566 93.5385L119.127 92.9629C119.397 93.3248 119.622 93.7067 119.803 94.1227L119.518 93.4417C119.698 93.8805 119.822 94.3336 119.89 94.8066L119.789 94.0486C119.845 94.516 119.848 94.9805 119.789 95.4478L119.89 94.6898C119.825 95.1571 119.704 95.6074 119.527 96.0434L119.811 95.3623C119.637 95.7698 119.423 96.146 119.161 96.5022L119.6 95.9266C119.189 96.4623 118.682 96.8755 118.179 97.3115L116.014 99.178C113.537 101.31 111.063 103.444 108.586 105.575C105.552 108.189 102.518 110.805 99.4842 113.418C96.8497 115.686 94.2153 117.957 91.5808 120.226C90.3115 121.32 89.0449 122.42 87.7699 123.508C87.6967 123.571 87.6235 123.634 87.5475 123.694L88.1161 123.249C87.7586 123.523 87.3815 123.751 86.9706 123.933L87.6432 123.645C87.2098 123.827 86.7623 123.953 86.2951 124.021L87.0437 123.919C86.5821 123.976 86.1234 123.979 85.6618 123.919L86.4105 124.021C85.9489 123.956 85.5042 123.833 85.0735 123.654L85.7462 123.941C85.3437 123.765 84.9722 123.548 84.6204 123.283L85.1889 123.728C84.6598 123.312 84.2517 122.799 83.821 122.289L81.9944 120.114C79.9003 117.621 77.8035 115.128 75.7094 112.634C73.1285 109.562 70.5475 106.49 67.9665 103.418C65.7261 100.751 63.4857 98.0866 61.2453 95.4193C60.1505 94.117 59.0894 92.7777 57.9579 91.5096C57.941 91.4925 57.9269 91.4725 57.91 91.4526C57.4653 90.9226 56.5844 90.6176 55.9201 90.6176C55.2559 90.6176 54.4059 90.9283 53.9302 91.4526C53.4546 91.9769 53.0718 92.7093 53.1056 93.4673C53.1393 94.2253 53.4236 94.8807 53.9302 95.482V95.4849Z" fill="#009997"/>
<path d="M64.0542 73.628C62.9734 72.3428 61.8926 71.0548 60.8118 69.7696C59.1315 67.772 57.454 65.7715 55.7737 63.7739C55.3206 63.2353 54.8533 62.7081 54.4255 62.1496L54.8646 62.7252C54.3664 62.0613 53.9499 61.3432 53.6234 60.5766L53.9076 61.2577C53.5615 60.4227 53.325 59.5479 53.204 58.6502L53.3053 59.4082C53.1956 58.5192 53.1984 57.6244 53.3166 56.7353L53.2153 57.4933C53.3363 56.6355 53.5615 55.8006 53.8908 54.9998L53.6065 55.6809C53.9358 54.9001 54.3552 54.1677 54.8618 53.4895L54.4227 54.0651C54.9547 53.3698 55.5711 52.7486 56.2578 52.21L55.6893 52.6546C56.3451 52.1502 57.0543 51.7284 57.8115 51.3979L57.1388 51.6857C57.9634 51.3352 58.8275 51.0958 59.7141 50.9733L58.9654 51.0759C59.8436 50.9647 60.7274 50.9676 61.6055 51.0873L60.8568 50.9847C61.704 51.1072 62.5287 51.3352 63.3196 51.6686L62.6469 51.3808C63.4181 51.7142 64.1414 52.1388 64.8113 52.6517L64.2428 52.2072C65.0055 52.8056 65.6332 53.518 66.2552 54.2561L68.3633 56.7638C70.1675 58.9096 71.9716 61.0553 73.7729 63.2011C74.2064 63.7141 74.637 64.2299 75.0704 64.7428V60.7134C73.3789 62.1696 71.6901 63.6257 69.9986 65.0819C67.3078 67.4015 64.6171 69.7183 61.9236 72.0379C61.31 72.5679 60.6964 73.0951 60.08 73.6252C59.5565 74.0754 59.2553 74.9673 59.2553 75.6399C59.2553 76.3124 59.5621 77.173 60.08 77.6546C60.5979 78.1362 61.3212 78.5237 62.0699 78.4895C62.8186 78.4553 63.4659 78.1675 64.0598 77.6546C65.7514 76.1984 67.4401 74.7422 69.1317 73.2861L77.2067 66.33C77.8203 65.8 78.4339 65.2728 79.0503 64.7428C79.5512 64.3096 79.9031 63.3807 79.8749 62.7281C79.8412 61.9387 79.5569 61.3147 79.0503 60.7134C77.0266 58.3054 75.0057 55.8975 72.982 53.4924L69.9873 49.9303C68.3014 47.9241 66.0863 46.4224 63.5588 45.7356C60.1166 44.8009 56.2072 45.3737 53.2547 47.434C51.6532 48.5511 50.2825 49.9616 49.303 51.6714C48.3235 53.3812 47.8366 55.1851 47.6452 57.1114C47.482 58.7756 47.6987 60.551 48.2391 62.1325C48.8133 63.811 49.652 65.2415 50.7807 66.5922C51.5462 67.5098 52.3174 68.4188 53.0858 69.3336C55.3656 72.0464 57.6482 74.7622 59.928 77.475L60.0772 77.6517C60.5219 78.1818 61.4029 78.4867 62.0671 78.4867C62.7313 78.4867 63.5813 78.1761 64.057 77.6517C64.5327 77.1274 64.9155 76.395 64.8817 75.637C64.8479 74.879 64.5636 74.2236 64.057 73.6223L64.0542 73.628Z" fill="#009997"/>
<path d="M85.9797 95.1229C85.9149 95.0431 85.8502 94.9634 85.7883 94.8836L86.2273 95.4592C85.9262 95.0574 85.6785 94.6271 85.4759 94.1655L85.7601 94.8465C85.549 94.3364 85.4027 93.8064 85.3267 93.2564L85.428 94.0144C85.3605 93.4701 85.3605 92.9287 85.428 92.3844L85.3267 93.1424C85.4055 92.5981 85.549 92.0738 85.7573 91.5666L85.473 92.2476C85.6813 91.766 85.9459 91.3158 86.2639 90.8997L85.8249 91.4754C86.1401 91.0764 86.4976 90.7202 86.8944 90.4039L86.3259 90.8485C86.7227 90.5435 87.1477 90.2928 87.6037 90.0876L86.931 90.3754C87.4348 90.1617 87.9583 90.0135 88.5015 89.9366L87.7528 90.0392C88.2904 89.9708 88.8252 89.9708 89.3628 90.0392L88.6141 89.9366C89.1517 90.0164 89.6696 90.1617 90.1706 90.3726L89.4979 90.0847C89.9736 90.2956 90.4183 90.5635 90.8292 90.8855L90.2606 90.441C90.6378 90.7459 90.9755 91.0907 91.2795 91.4725L90.8404 90.8969C91.1754 91.3386 91.4484 91.8116 91.6623 92.3246L91.378 91.6435C91.561 92.108 91.6904 92.5867 91.7636 93.0826L91.6623 92.3246C91.7299 92.8432 91.7101 93.3362 91.6876 93.8548C91.651 94.6955 92.0648 95.3936 92.577 96.012C92.8247 96.3112 93.078 96.6076 93.3285 96.904C94.0856 97.8045 94.8428 98.7078 95.6027 99.6083C95.7969 99.8391 95.9911 100.07 96.1853 100.304V96.2742C94.3755 97.833 92.5686 99.3889 90.7588 100.948L89.982 101.617H93.9618C92.8303 100.269 91.6961 98.9215 90.5646 97.5736C90.4802 97.4739 90.4014 97.3713 90.3141 97.2773C90.2043 97.1576 90.2888 97.2431 89.9989 97.0179C89.45 96.5905 88.8674 96.4566 88.1863 96.3996C88.0428 96.3882 87.902 96.3768 87.7585 96.3568L88.5072 96.4594C87.9696 96.3825 87.4545 96.2428 86.9535 96.032L87.6262 96.3198C87.1533 96.1118 86.7171 95.8553 86.3062 95.539L86.8747 95.9835C86.5454 95.7214 86.2499 95.4335 85.974 95.1144C85.5209 94.5872 84.654 94.2794 83.9841 94.2794C83.3143 94.2794 82.4699 94.59 81.9942 95.1144C81.5186 95.6387 81.1358 96.3711 81.1696 97.1291C81.2033 97.8871 81.4848 98.5482 81.9942 99.1438C83.5788 100.993 85.9065 101.976 88.2904 102.102L86.3005 101.267C87.5277 102.726 88.752 104.185 89.9792 105.644C90.407 106.151 91.3246 106.507 91.9691 106.479C92.7487 106.445 93.3651 106.157 93.959 105.644C95.7688 104.085 97.5757 102.529 99.3855 100.97L100.162 100.301C100.663 99.8676 101.015 98.9386 100.987 98.286C100.953 97.4967 100.669 96.8726 100.162 96.2713C98.9352 94.8123 97.7108 93.3533 96.4837 91.8943C96.7595 92.5668 97.0325 93.2365 97.3083 93.909C97.5785 91.387 96.5794 88.7967 94.8653 86.9815C93.3004 85.3258 91.1303 84.4168 88.8899 84.2886C87.9245 84.2344 86.9 84.3683 85.9769 84.6676C84.7525 85.0637 83.7421 85.6735 82.7542 86.4942C81.9914 87.1297 81.3384 87.9618 80.8656 88.8366C80.252 89.9708 79.9508 91.1078 79.7989 92.3759C79.6694 93.4473 79.782 94.5786 80.0719 95.6159C80.4462 96.9553 81.1217 98.0866 81.997 99.1438C82.4361 99.6738 83.3311 99.9787 83.9869 99.9787C84.6765 99.9787 85.5012 99.6681 85.9769 99.1438C86.4525 98.6195 86.8353 97.8871 86.8015 97.1291C86.7677 96.3711 86.4807 95.7214 85.9769 95.1144L85.9797 95.1229Z" fill="#009997"/>
<path d="M56.0355 54.0366C55.1602 55.6552 53.9555 57.1 52.4666 58.2798C50.063 60.1805 47.1724 61.1864 44.1102 61.1864C40.3133 61.1864 36.7923 59.6419 34.1916 56.835C33.4063 55.9858 32.7393 55.0482 32.1961 54.0509L22.8123 63.3407C23.423 64.1785 24.0788 64.9878 24.7909 65.7572C29.7783 71.1431 36.8176 74.2321 44.1073 74.2321C50.0714 74.2321 55.7034 72.2715 60.3925 68.5613C62.2839 67.0652 63.9332 65.344 65.3292 63.4547L56.0299 54.0395L56.0355 54.0366Z" fill="#C4E6FF"/>
</g>
<defs>
<clipPath id="clip0_4671_23144">
<rect width="140.729" height="142.483" fill="white" transform="translate(0 0.890625)"/>
</clipPath>
</defs>
</svg>
