<svg width="111" height="109" viewBox="0 0 111 109" fill="none" xmlns="http://www.w3.org/2000/svg">
<path d="M93.7889 50.4237C92.7362 50.4321 91.692 50.5616 90.6535 50.7389L94.1154 52.7035C91.8496 46.6268 88.2639 41.0877 83.5044 36.666C78.745 32.2443 72.9667 28.9428 66.7155 27.1528C60.0196 25.2332 52.8115 25.0587 46.0368 26.6883C39.4479 28.2729 33.374 31.611 28.2796 36.0468C23.796 39.9506 19.971 44.879 17.5786 50.342C17.2381 51.1217 16.9087 51.9098 16.6104 52.7063L20.0723 50.7417C15.8476 50.0212 11.44 50.7248 7.85988 53.1763C4.6006 55.4083 2.15474 58.6901 1.12179 62.5235C0.640494 64.3136 0.418142 66.2585 0.640494 68.1077C0.885362 70.1426 1.48487 72.0058 2.39679 73.8438C4.13057 77.3395 6.8973 80.2835 10.0327 82.5633C11.7215 83.7933 13.6157 84.7671 15.6056 85.4117C17.2381 85.938 18.9352 86.0984 20.6409 86.0984L18.2119 84.7052C20.7197 89.9544 24.4152 94.7138 28.8988 98.4235C33.5964 102.31 39.0623 105.207 44.9785 106.732C50.8554 108.249 56.9827 108.412 62.9468 107.343C68.8686 106.279 74.6188 103.813 79.4711 100.259C84.3235 96.7037 88.5932 92.0203 91.54 86.6276C91.8919 85.9858 92.224 85.33 92.5364 84.6686L90.1074 86.0618C93.6313 86.3405 97.2339 84.9191 100.11 82.9771C103.184 80.8999 105.858 78.1613 107.738 74.9499C109.494 71.9495 110.505 68.4932 110.057 65.006C109.573 61.2232 107.955 57.6993 105.182 55.0368C102.126 52.1012 98.0276 50.4518 93.7917 50.4293C92.3197 50.4209 90.9096 51.7296 90.9771 53.2439C91.0447 54.7581 92.2127 56.05 93.7917 56.0584C94.1801 56.0584 94.5685 56.0753 94.9541 56.1063C95.1371 56.1204 95.3454 56.1767 95.5255 56.1682C95.5733 56.1682 94.8331 56.0641 95.1314 56.1176C95.2468 56.1401 95.3651 56.1541 95.4833 56.1767C96.2207 56.3118 96.944 56.506 97.6477 56.7593C97.8222 56.8212 97.9911 56.9 98.1656 56.9591C97.2987 56.6636 97.9122 56.8522 98.1262 56.9535C98.4583 57.1083 98.7848 57.2772 99.1028 57.4601C99.4209 57.6431 99.7277 57.8344 100.029 58.0427C100.178 58.1469 100.324 58.2538 100.474 58.3608C100.634 58.4762 100.803 58.6901 100.229 58.1694C100.296 58.2313 100.372 58.282 100.44 58.3411C101 58.8027 101.523 59.3121 102.002 59.8581C102.123 59.996 102.235 60.1368 102.354 60.2747C102.635 60.6068 102.171 60.0326 102.165 60.027C102.224 60.0889 102.278 60.1762 102.328 60.2465C102.556 60.559 102.77 60.8826 102.973 61.2119C103.15 61.5047 103.316 61.8058 103.474 62.1126C103.555 62.2758 103.637 62.4419 103.713 62.608C103.75 62.6868 103.803 62.7797 103.826 62.8613C103.789 62.729 103.561 62.2027 103.727 62.6361C103.992 63.3341 104.211 64.0462 104.363 64.778C104.397 64.9412 104.428 65.1017 104.456 65.2649C104.473 65.3578 104.481 65.4535 104.501 65.5464C104.329 64.7611 104.434 65.0144 104.456 65.2227C104.501 65.6308 104.532 66.0389 104.543 66.4499C104.552 66.7764 104.549 67.1028 104.529 67.4293C104.518 67.5954 104.501 67.7586 104.487 67.9247C104.467 68.133 104.372 68.4144 104.541 67.5504C104.521 67.6545 104.507 67.7586 104.49 67.8628C104.369 68.5439 104.189 69.2166 103.961 69.8696C103.902 70.0384 103.84 70.2045 103.775 70.3706C103.75 70.4325 103.724 70.4944 103.702 70.5591C103.544 70.9673 103.828 70.2636 103.828 70.2608C103.752 70.6126 103.491 70.9954 103.325 71.3163C102.976 71.9861 102.587 72.6307 102.162 73.2555C101.96 73.5539 101.74 73.8409 101.532 74.1337C102.052 73.4075 101.664 73.962 101.523 74.1337C101.383 74.3053 101.245 74.4714 101.101 74.6375C100.592 75.2285 100.049 75.7943 99.4828 76.3318C99.1985 76.5992 98.9086 76.861 98.6103 77.1143C98.4808 77.2241 98.3485 77.3338 98.219 77.4408C98.143 77.5027 98.0671 77.5618 97.9911 77.6237C97.5745 77.9615 98.4189 77.3057 98.1599 77.4943C97.4647 77.9981 96.7611 78.485 96.0152 78.91C95.6521 79.1155 95.2834 79.3125 94.9063 79.4926C94.7205 79.5827 94.5291 79.6587 94.3462 79.7487C95.1934 79.3265 94.5545 79.6615 94.3293 79.7459C93.5975 80.0246 92.8404 80.2469 92.072 80.3905C91.9876 80.4073 91.9059 80.4186 91.8215 80.4355C91.2952 80.5312 92.1227 80.3708 92.1339 80.3989C92.1283 80.3848 91.6217 80.4496 91.5766 80.4524C91.0897 80.4862 90.6056 80.4777 90.1187 80.4411C89.2152 80.3708 88.0809 81.0125 87.6897 81.8343C87.0818 83.1093 86.4091 84.3534 85.6688 85.5552C85.3001 86.1547 84.9145 86.743 84.512 87.3199C84.3263 87.5873 84.1349 87.8519 83.9435 88.1165C83.8394 88.2572 83.7352 88.3979 83.6283 88.5387C83.5692 88.6175 83.5129 88.7075 83.4453 88.7779C83.4988 88.7216 83.845 88.2685 83.6086 88.564C81.8607 90.7594 79.9074 92.7774 77.7374 94.5562C77.622 94.6519 77.5038 94.7448 77.3884 94.8405C77.3095 94.9024 76.7973 95.3021 77.1998 94.9925C77.6023 94.6829 77.1097 95.06 77.0056 95.136C76.8451 95.2571 76.6847 95.3753 76.5215 95.4935C75.9529 95.9072 75.3731 96.3041 74.7821 96.684C73.5971 97.4496 72.37 98.1504 71.109 98.7809C70.4758 99.0989 69.8312 99.3945 69.1811 99.6787C68.7279 99.8758 69.7496 99.448 69.2908 99.6309C69.1248 99.6985 68.9615 99.766 68.7955 99.8307C68.4633 99.963 68.1312 100.09 67.7963 100.211C66.4453 100.703 65.069 101.12 63.6701 101.458C62.457 101.75 61.2299 101.95 59.9999 102.164C59.817 102.195 59.634 102.223 59.4539 102.251C59.3075 102.277 60.2926 102.153 59.7973 102.201C59.6256 102.217 59.4539 102.237 59.2822 102.251C58.466 102.322 57.6469 102.367 56.8307 102.4C55.2742 102.462 53.715 102.426 52.1613 102.296C51.8264 102.268 51.4914 102.237 51.1565 102.201C50.9764 102.181 50.7991 102.161 50.6189 102.139C49.9941 102.063 51.2241 102.226 50.602 102.139C49.8928 102.037 49.1891 101.914 48.4883 101.773C47.1035 101.494 45.7328 101.137 44.3846 100.703C43.7176 100.489 43.0562 100.259 42.4032 100.008C42.102 99.8927 41.8009 99.7716 41.4997 99.6506C41.055 99.4705 42.1048 99.9124 41.5532 99.6731C41.3702 99.5943 41.1901 99.5127 41.0072 99.4311C38.5134 98.3052 36.1407 96.9092 33.9426 95.2796C33.8046 95.1782 33.6667 95.0741 33.5316 94.97C33.2558 94.7617 34.0214 95.3556 33.7512 95.1417C33.6921 95.0966 33.6358 95.0516 33.5767 95.0066C33.3065 94.7926 33.0419 94.5787 32.7773 94.3564C32.251 93.9173 31.7359 93.4642 31.2321 92.9969C30.2273 92.0625 29.2704 91.0774 28.3725 90.0416C28.1474 89.7827 27.925 89.5209 27.7083 89.2564C27.5253 89.034 27.1538 88.7272 27.0637 88.4542C27.0694 88.4711 27.5056 89.034 27.2354 88.6738C27.1904 88.6147 27.1454 88.5555 27.1031 88.4964C26.999 88.3585 26.8977 88.2206 26.7964 88.0827C26.5937 87.8041 26.3939 87.5254 26.1968 87.244C25.4116 86.1097 24.6882 84.9332 24.0296 83.7229C23.6975 83.115 23.3851 82.4958 23.0867 81.8709C22.6702 80.9984 21.5838 80.4777 20.6578 80.4777C20.1877 80.4777 19.7149 80.489 19.2448 80.458C19.0788 80.4467 18.9155 80.4299 18.7495 80.4158C18.3273 80.3792 19.1266 80.4552 19.1238 80.4693C19.1238 80.4693 18.9043 80.4355 18.8733 80.4299C18.4934 80.3651 18.1162 80.2807 17.7447 80.1822C17.4069 80.0893 17.072 79.9852 16.7399 79.867C16.571 79.8078 16.4049 79.7459 16.2389 79.6784C16.146 79.6418 15.7126 79.4617 16.1995 79.6643C16.6864 79.867 16.2698 79.6896 16.1629 79.6418C15.4424 79.3125 14.7472 78.9353 14.0773 78.5159C13.7536 78.3133 13.4356 78.1022 13.126 77.8827C12.9683 77.7729 12.8135 77.6547 12.6587 77.5421C12.29 77.2747 12.8811 77.7194 12.8839 77.7194C12.8248 77.7194 12.5884 77.4858 12.5433 77.4464C11.8988 76.9229 11.2852 76.3656 10.7026 75.7746C10.12 75.1835 9.57396 74.5615 9.05608 73.9141C8.93787 73.7678 8.79995 73.5032 9.23058 74.1393C9.1771 74.0605 9.11518 73.9845 9.05608 73.9085C8.94068 73.7537 8.83091 73.5989 8.72114 73.4385C8.47627 73.0866 8.24266 72.7292 8.02031 72.3633C7.82611 72.0424 7.64316 71.7159 7.46866 71.3866C7.29415 71.0573 7.01269 70.6436 6.93107 70.2692C6.93107 70.2692 7.21534 70.9729 7.05773 70.5676C7.02395 70.4832 6.99018 70.4015 6.95922 70.3171C6.89448 70.151 6.83538 69.985 6.77627 69.8161C6.64962 69.4446 6.53703 69.0674 6.44134 68.6846C6.35971 68.3525 6.29779 68.0204 6.23587 67.6826C6.15425 67.2295 6.32312 68.482 6.25557 67.8093C6.23587 67.6038 6.2218 67.3984 6.21336 67.1929C6.19928 66.827 6.20773 66.4611 6.22461 66.0952C6.23587 65.9038 6.24994 65.7096 6.26683 65.5182C6.27528 65.4225 6.28653 65.3269 6.29779 65.2312C6.35127 64.7273 6.17958 65.9432 6.27527 65.4141C6.416 64.6514 6.58488 63.8999 6.83538 63.1652C6.90293 62.9682 6.97892 62.774 7.0521 62.5798C7.11965 62.3969 7.2829 62.1436 6.92826 62.8697C6.96766 62.7881 7.00144 62.7008 7.04084 62.6164C7.20127 62.2618 7.37859 61.9156 7.57279 61.575C7.767 61.2345 7.96965 60.908 8.18919 60.5871C8.29333 60.4379 8.40028 60.2916 8.50723 60.1424C8.62263 59.982 8.83654 59.8103 8.31584 60.3873C8.39184 60.3028 8.45939 60.2099 8.52975 60.1227C9.02512 59.5288 9.56833 58.98 10.1566 58.479C10.2269 58.4199 10.2973 58.3636 10.3649 58.3045C10.7167 58.0089 10.2692 58.3523 10.1707 58.448C10.3283 58.2932 10.5422 58.1722 10.7251 58.0484C11.0826 57.8035 11.4513 57.5755 11.8313 57.3672C12.2112 57.1589 12.6137 56.9844 13.0049 56.7902C12.1465 57.2124 12.867 56.855 13.1063 56.7677C13.3033 56.6974 13.5003 56.6298 13.7001 56.5679C14.1251 56.4356 14.5558 56.3258 14.992 56.2386C15.1947 56.1964 15.5099 56.2076 15.69 56.1147C15.676 56.1232 14.9188 56.202 15.3664 56.1598C15.4846 56.1485 15.6056 56.1344 15.7238 56.1232C16.2023 56.081 16.6836 56.0613 17.1621 56.0697C17.497 56.0753 17.8319 56.0922 18.1669 56.1232C18.2851 56.1344 18.4483 56.1767 18.5637 56.1654L18.2091 56.1176C18.3386 56.1373 18.468 56.157 18.5975 56.1823C20.2046 56.4553 21.4824 55.7657 22.0594 54.2177C22.1692 53.925 22.2818 53.6323 22.4 53.3424C22.4225 53.2833 22.4478 53.227 22.4703 53.1679C22.628 52.7738 22.3324 53.4972 22.3324 53.4887C22.3747 53.3142 22.4901 53.1257 22.5632 52.9624C22.8278 52.3714 23.1093 51.7887 23.4048 51.2146C24.0296 50.0071 24.722 48.8334 25.4735 47.702C25.8675 47.1109 26.2757 46.5283 26.7007 45.9569C26.7964 45.8275 26.8949 45.698 26.9934 45.5685C27.2748 45.197 26.5796 46.0977 26.9399 45.6417C27.1707 45.3462 27.4071 45.0563 27.6492 44.7692C28.5808 43.6518 29.5715 42.5851 30.6157 41.5718C31.6599 40.5586 32.8139 39.5622 33.982 38.6362C34.2522 38.4223 33.4866 39.0134 33.7652 38.8051C33.8243 38.7601 33.8835 38.715 33.9426 38.67C34.1002 38.5518 34.2606 38.4336 34.4182 38.3154C34.7391 38.0789 35.0628 37.851 35.3921 37.623C36.0113 37.198 36.6417 36.787 37.2807 36.3958C38.6007 35.5908 39.9686 34.8619 41.3759 34.2173C41.5391 34.1413 41.7023 34.0682 41.8656 33.9978C42.0485 33.9162 42.7494 33.6403 41.9022 33.9781C42.285 33.8261 42.6677 33.6657 43.0533 33.5193C43.7823 33.2435 44.5197 32.9874 45.2656 32.7566C46.8108 32.2781 48.3842 31.9009 49.9772 31.6307C50.163 31.5998 50.3487 31.5688 50.5345 31.5407C50.7371 31.5097 51.5196 31.4168 50.588 31.5266C51.0214 31.4759 51.452 31.4196 51.8883 31.3802C52.713 31.3014 53.5405 31.2508 54.3679 31.2283C55.9582 31.186 57.554 31.2423 59.1387 31.3971C59.5158 31.4337 59.893 31.4788 60.2701 31.5238C60.7542 31.5829 59.5299 31.4196 60.1969 31.5153C60.4193 31.5491 60.6444 31.5829 60.8668 31.6195C61.607 31.7405 62.3416 31.8812 63.0734 32.0473C64.5426 32.3766 65.9921 32.7932 67.4107 33.2942C67.7569 33.4152 68.1003 33.5418 68.4436 33.6741C68.6041 33.736 68.7617 33.798 68.9221 33.8627C69.1388 33.95 69.8425 34.2596 68.9925 33.8852C69.6595 34.1779 70.3266 34.4763 70.9796 34.8C72.3024 35.4529 73.5859 36.1847 74.8215 36.9869C75.4266 37.3809 76.0233 37.789 76.6059 38.2168C76.7607 38.3294 76.9155 38.4448 77.0703 38.5602C77.1266 38.6024 77.1857 38.6475 77.242 38.6897C77.5938 38.9571 77.0309 38.5236 77.014 38.5152C77.3264 38.7319 77.6191 38.9965 77.9119 39.2385C79.0377 40.173 80.1129 41.175 81.1261 42.2304C81.6243 42.7511 82.1084 43.2831 82.5784 43.8319C82.812 44.1049 83.0428 44.3836 83.2708 44.6622C83.3778 44.7917 83.4819 44.924 83.5861 45.0563C83.6564 45.1463 83.8703 45.4194 83.5861 45.0563C83.2736 44.651 83.5804 45.0506 83.6283 45.1154C85.4043 47.4684 86.9101 50.0268 88.1035 52.7232C88.1569 52.8414 88.3877 53.3874 88.1935 52.923C87.9993 52.4586 88.2329 53.0187 88.2751 53.1285C88.4215 53.4916 88.5622 53.8546 88.7001 54.2205C89.2743 55.7573 90.5437 56.4637 92.1621 56.1851C92.2578 56.1682 92.3563 56.1513 92.4548 56.1373C92.6715 56.1035 92.5843 56.1147 92.1958 56.1682C92.3169 56.1035 92.5589 56.1288 92.6912 56.1176C93.0599 56.0866 93.4286 56.0725 93.8002 56.0697C95.2722 56.0584 96.6823 54.7834 96.6147 53.2551C96.5472 51.7268 95.3791 50.4293 93.8002 50.4406L93.7889 50.4237Z" fill="#009997"/>
<path d="M39.6929 0.0258484H62.9301L56.2961 24.4113H74.2222L49.755 70.3368L52.3782 40.9667H36.5068L39.6929 0.0258484Z" fill="#C4E6FF"/>
</svg>
