<svg width="105" height="107" viewBox="0 0 105 107" fill="none" xmlns="http://www.w3.org/2000/svg">
<path d="M91.3398 54.4346C90.5264 54.4346 89.7271 54.5106 88.953 54.6485C83.5265 40.0099 69.4368 29.5762 52.9096 29.5762C35.1271 29.5762 21.4201 42.3657 16.8661 54.6485C16.0921 54.5106 15.2956 54.4346 14.4794 54.4346C6.98414 54.4346 0.907471 60.5112 0.907471 68.0065C0.907471 75.5017 9.88597 84.4802 17.3812 84.4802H18.1805C24.3501 97.461 37.5786 106.437 52.9096 106.437C53.8834 106.437 54.846 106.394 55.8002 106.324C55.8227 106.324 55.848 106.324 55.8705 106.324C57.7507 106.22 58.0968 106.082 58.8146 105.984C71.5984 104.013 82.3022 95.7441 87.6555 84.4464C87.9117 84.4689 88.1706 84.483 88.438 84.483C95.9332 84.483 104.912 75.5045 104.912 68.0093C104.912 60.5141 98.835 54.4374 91.3398 54.4374V54.4346Z" fill="#C4E6FF"/>
<path d="M15.0675 25.8244C15.0112 30.5698 15.8528 35.3855 17.6682 39.7763C18.5801 41.9773 19.6328 44.091 20.9528 46.0781C22.2728 48.0652 23.7477 49.9031 25.3942 51.5862C28.5156 54.778 32.259 57.4406 36.3091 59.3179C40.7027 61.3528 45.3524 62.5715 50.185 62.9008C52.5886 63.0641 55.0176 62.9881 57.4072 62.6841C59.9206 62.3632 62.3946 61.8763 64.7898 61.0404C69.1187 59.529 73.0956 57.1647 76.3943 53.9674C79.313 51.1387 81.6773 47.688 83.2647 43.9475C84.0894 42.0026 84.7846 40.0268 85.2377 37.9609C85.6881 35.9203 85.9611 33.8234 86.0371 31.735C86.2172 26.8771 85.1561 22.0726 83.0649 17.6931C81.1285 13.6401 78.1731 10.0009 74.6268 7.2454C72.7495 5.78745 70.7736 4.504 68.6064 3.51608C66.411 2.51409 64.1369 1.71476 61.7642 1.25035C56.9259 0.304654 51.8231 0.389089 47.1706 2.13694C44.9527 2.97006 42.8446 4.04804 40.9532 5.48066C39.9287 6.25748 38.938 7.06526 38.0317 7.98C37.1254 8.89474 36.3176 9.88828 35.552 10.9212C32.6699 14.7913 31.0881 19.562 30.8432 24.3637C30.7194 26.8095 31.0093 29.3258 31.7608 31.6618C32.5686 34.1696 33.8239 36.396 35.4563 38.4506C38.3722 42.1208 42.7967 44.7609 47.4126 45.5799C50.1006 46.0556 52.8166 46.095 55.4764 45.4251C58.1362 44.7553 60.2893 43.5253 62.282 41.8647C63.2672 41.0428 64.0862 40.0915 64.863 39.0754C65.5216 38.2142 66.0874 37.2882 66.5405 36.3031C67.6523 33.8713 68.2968 31.2228 68.1842 28.532C68.0716 25.9257 67.2807 23.2913 65.7777 21.141C64.2748 18.9906 62.3524 17.2625 59.991 16.2295C59.2761 15.9171 58.5612 15.6216 57.8097 15.4161C57.0582 15.2107 56.318 15.1121 55.558 15.0164C54.2042 14.8448 52.8476 14.9348 51.5107 15.2078C49.0367 15.7173 46.6246 17.178 45.04 19.1426C44.0971 20.3107 43.4075 21.5012 42.8924 22.9141C42.4477 24.1329 42.2507 25.4726 42.2451 26.7645C42.2366 28.2365 43.5454 29.6466 45.0597 29.5791C46.5739 29.5115 47.8658 28.3435 47.8742 26.7645C47.8742 26.3733 47.9024 25.9848 47.9502 25.5936C47.9164 25.8441 47.8827 26.0918 47.8489 26.3423C47.9587 25.5261 48.1726 24.7352 48.4934 23.9752L48.2092 24.6479C48.516 23.9387 48.9072 23.2744 49.3772 22.6608L48.9381 23.2294C49.411 22.6242 49.9542 22.0838 50.5593 21.6082L49.9908 22.0473C50.6044 21.5772 51.2686 21.186 51.9779 20.8792L51.3052 21.1635C52.0651 20.8454 52.856 20.6287 53.6723 20.5189L52.9236 20.6203C53.8327 20.5077 54.7502 20.5302 55.6565 20.654L54.9079 20.5527C55.8817 20.6934 56.8302 20.9524 57.7393 21.3324L57.0666 21.0481C57.9504 21.428 58.7807 21.9122 59.5463 22.4948L58.9777 22.0557C59.7574 22.6608 60.4554 23.356 61.0605 24.1385C60.9142 23.9499 60.7678 23.7585 60.6214 23.5699C61.2041 24.3355 61.6882 25.1658 62.0681 26.0496L61.7839 25.3769C62.1638 26.286 62.4256 27.2317 62.5635 28.2084C62.5297 27.9579 62.496 27.7102 62.4622 27.4597C62.6142 28.5968 62.5945 29.7451 62.4481 30.8822L62.5494 30.1335C62.3806 31.3916 62.0456 32.6188 61.5531 33.7897L61.8373 33.117C61.3617 34.2287 60.7481 35.2729 60.0107 36.2327L60.4498 35.6642C59.7123 36.6127 58.8595 37.4627 57.9138 38.2001C58.1024 38.0537 58.2938 37.9074 58.4824 37.761C57.5226 38.4985 56.4784 39.112 55.3666 39.5877L56.0393 39.3034C54.8684 39.796 53.6413 40.1309 52.3832 40.2998L53.1319 40.1985C51.7358 40.3786 50.3229 40.3476 48.9269 40.1647L49.6756 40.266C48.136 40.0577 46.633 39.6496 45.1976 39.0529L45.8703 39.3372C44.4714 38.7461 43.157 37.9806 41.9495 37.0574L42.5181 37.4965C41.2994 36.5564 40.2101 35.4643 39.2673 34.2456L39.7063 34.8142C38.7831 33.6067 38.0176 32.2923 37.4265 30.8935L37.7108 31.5662C37.1141 30.1307 36.706 28.6277 36.4977 27.0882L36.599 27.8368C36.3711 26.0862 36.4076 24.313 36.6384 22.5623L36.5371 23.311C36.7989 21.3661 37.3168 19.4663 38.0767 17.6565L37.7924 18.3292C38.5298 16.5926 39.4868 14.9602 40.6351 13.4628C40.4888 13.6514 40.3424 13.8428 40.1961 14.0313C41.3613 12.5255 42.7151 11.1745 44.2209 10.0065L43.6524 10.4456C45.1497 9.29722 46.7822 8.34027 48.5188 7.60285L47.8461 7.88712C49.6559 7.12718 51.5557 6.6093 53.5006 6.34755L52.7519 6.44887C54.9585 6.16179 57.1961 6.21245 59.3999 6.50516L58.6512 6.40384C61.0774 6.73596 63.4501 7.38331 65.7102 8.33182L65.0375 8.04755C67.2441 8.98199 69.3213 10.1951 71.2183 11.6587C71.0298 11.5123 70.8384 11.3659 70.6498 11.2196C72.5046 12.6578 74.1708 14.3212 75.6091 16.1732C75.4627 15.9847 75.3163 15.7933 75.17 15.6047C76.6082 17.4679 77.8044 19.5085 78.722 21.6785L78.4377 21.0059C79.3553 23.1956 79.9801 25.4951 80.2953 27.8481C80.2616 27.5976 80.2278 27.3499 80.194 27.0994C80.5233 29.6213 80.4867 32.1769 80.1518 34.696L80.2531 33.9473C79.8872 36.638 79.1723 39.2725 78.1197 41.7746L78.4039 41.1019C77.4245 43.4099 76.1635 45.5912 74.6324 47.5755C74.7788 47.3869 74.9251 47.1955 75.0715 47.0069C73.6332 48.8617 71.9698 50.5336 70.115 51.9746C70.3036 51.8283 70.495 51.6819 70.6836 51.5356C68.7471 53.0301 66.6221 54.2629 64.3705 55.217L65.0431 54.9328C62.4453 56.0248 59.7039 56.7369 56.9146 57.1169L57.6633 57.0156C54.435 57.4462 51.1476 57.4659 47.9165 57.0381L48.6651 57.1394C45.5409 56.7172 42.4815 55.8813 39.5769 54.6569L40.2495 54.9412C37.4406 53.7506 34.7921 52.2026 32.3744 50.3394L32.9429 50.7785C30.6349 48.9884 28.5578 46.9197 26.7677 44.6117L27.2068 45.1803C25.4646 42.9173 24.0094 40.4433 22.8949 37.8145L23.1791 38.4872C22.0477 35.7993 21.2793 32.9706 20.8853 30.0801L20.9866 30.8287C20.7642 29.1653 20.6685 27.4906 20.6882 25.816C20.7051 24.344 19.3823 22.9338 17.8737 23.0014C16.365 23.0689 15.0788 24.237 15.0591 25.816L15.0675 25.8244Z" fill="#009997"/>
<path d="M6.26632 47.9132L2.98453 46.7649C2.51731 46.6016 2.44132 45.974 2.85506 45.7009L5.76252 43.7955L5.84133 40.3223C5.85258 39.8269 6.42676 39.5595 6.81235 39.8691L9.52279 42.0448L12.8524 41.0456C13.3253 40.9021 13.7587 41.3665 13.5814 41.8281L12.3514 45.0789L14.3301 47.9357C14.6115 48.341 14.3048 48.8955 13.8094 48.873L10.339 48.7069L8.23372 51.4708C7.93537 51.8649 7.31335 51.7438 7.18388 51.2654L6.26914 47.9132H6.26632Z" fill="#009997"/>
<path d="M93.2846 8.26428L96.4172 6.75567C96.8619 6.54176 97.3601 6.93017 97.2616 7.41428L96.5551 10.8171L98.956 13.3305C99.2965 13.688 99.0826 14.2818 98.5901 14.3353L95.1366 14.7125L93.4901 17.7719C93.2564 18.2082 92.6232 18.1857 92.4205 17.7353L90.9935 14.5661L87.5738 13.9469C87.0869 13.8597 86.9124 13.2517 87.2783 12.9168L89.8508 10.5807L89.3836 7.13564C89.316 6.6459 89.8424 6.29126 90.2702 6.53613L93.2874 8.26147L93.2846 8.26428Z" fill="#009997"/>
<path d="M23.3113 13.9497C23.5112 14.0989 23.3986 14.006 23.286 13.9019C23.089 13.7189 23.4042 14.1327 23.2916 13.9103C23.2748 13.8765 23.2494 13.8202 23.2241 13.7921C23.134 13.688 23.2888 13.9384 23.2888 13.9638C23.2832 13.8765 23.2185 13.7639 23.196 13.6767C23.1031 13.3305 23.0693 12.973 22.9736 12.6297C22.6274 11.4025 21.6676 10.4287 20.4433 10.0656C19.9845 9.93049 19.492 9.90516 19.0219 9.96427C18.7433 9.99804 18.4618 10.0374 18.186 10.0853C17.9102 10.1331 18.5406 10.06 18.262 10.074C18.1607 10.0797 18.0622 10.0825 17.9608 10.0881C17.9299 10.0881 17.8567 10.0712 17.8286 10.0825C17.8426 10.0769 18.1635 10.1613 18.0199 10.1078C17.9355 10.0768 17.8342 10.0571 17.7469 10.0346C17.5921 9.99523 17.882 10.0769 17.8848 10.0909C17.882 10.0769 17.7554 10.0206 17.7385 10.0093C17.7244 10.0009 17.5893 9.92486 17.5893 9.91361C17.5893 9.91642 17.8089 10.1191 17.64 9.94175C17.6062 9.90516 17.5696 9.86294 17.5302 9.82917C17.4036 9.72221 17.6315 9.93331 17.6203 9.95301C17.6203 9.95301 17.4936 9.7194 17.4824 9.71658C17.4908 9.72221 17.5893 10.0318 17.5527 9.88546C17.5415 9.84324 17.5246 9.80384 17.5105 9.76162C17.4795 9.66592 17.457 9.56741 17.4345 9.47172C17.2234 8.51758 17.0236 7.60847 16.2552 6.91608C15.7739 6.47982 15.1829 6.11393 14.5383 5.98164C13.9304 5.8578 13.404 5.90283 12.7989 5.9929C12.7145 6.00416 12.63 6.02105 12.5456 6.0323C12.5034 6.03793 12.4612 6.04356 12.4189 6.05201C12.2529 6.08578 12.6413 6.02667 12.6216 6.02667C12.54 6.02105 12.4471 6.04356 12.3655 6.04919C12.2867 6.05201 11.9545 6.01823 12.2219 6.06327C12.4893 6.1083 12.1769 6.04638 12.1122 6.02949C12.0727 6.01823 12.0136 5.98446 11.9742 5.98164C12.0052 5.98164 12.236 6.12519 12.1093 6.02949C12.0671 5.99571 11.7631 5.80995 11.9292 5.92816C12.1065 6.05482 11.8025 5.76774 11.7716 5.75366C11.7969 5.76211 11.9236 6.00979 11.8701 5.8775C11.856 5.84091 11.8222 5.79307 11.7969 5.75929C11.6477 5.54538 11.8814 6.05201 11.811 5.80995C11.7603 5.62982 11.7097 5.4525 11.6731 5.26955C11.6027 4.91492 11.5464 4.56591 11.4085 4.22816C10.8484 2.8462 9.55933 1.87799 8.04227 1.85829C7.73267 1.85266 7.41744 1.90895 7.11346 1.95398C7.01495 1.96806 6.91644 1.98494 6.81793 1.99902C6.77571 2.00465 6.73349 2.01027 6.69127 2.01872C6.5027 2.05531 7.04591 1.99339 6.85171 1.9962C6.75038 1.9962 6.65187 2.01309 6.55055 2.0159C6.51114 2.0159 6.45766 2.00746 6.41826 2.01309C6.26909 2.03842 6.71379 2.0919 6.56743 2.03842C6.48581 2.00746 6.33101 1.95117 6.24657 1.94835C6.27753 1.94835 6.50551 2.0919 6.38167 1.9962C6.30849 1.93991 6.2128 1.89488 6.1368 1.84421C5.45849 1.38825 4.38051 1.68941 4.00336 2.40432C3.5868 3.18958 3.83729 4.05084 4.56346 4.53776C5.09822 4.89803 5.69492 5.07535 6.33382 5.12883C6.80104 5.16823 7.27389 5.06972 7.73548 4.99654C7.7777 4.99091 7.81992 4.98528 7.86214 4.97684C8.0282 4.94588 7.63979 5.00217 7.65949 5.00217C7.74111 5.0078 7.83399 4.98528 7.91562 4.97965C7.97754 4.97965 8.12389 5.0078 8.17737 4.98247C8.1633 4.9881 7.84244 4.90366 7.98598 4.95714C8.04227 4.97684 8.10982 4.98528 8.16893 5.00217C8.20833 5.01343 8.26744 5.0472 8.30684 5.05002C8.27588 5.05002 8.0479 4.90647 8.17174 5.00217C8.21396 5.03313 8.27307 5.06128 8.3181 5.08661C8.608 5.25267 8.27025 5.07535 8.28714 5.05283C8.29277 5.04157 8.4926 5.26955 8.51231 5.27518C8.48698 5.26674 8.36032 5.01906 8.4138 5.15134C8.43068 5.19637 8.47572 5.27518 8.50668 5.30896C8.59674 5.4131 8.44194 5.1626 8.44194 5.13727C8.44194 5.17386 8.47572 5.22452 8.48698 5.26111C8.51231 5.34273 8.53764 5.42717 8.55734 5.50879C8.60237 5.68893 8.63052 5.87187 8.66429 6.05482C8.75155 6.5136 8.89509 6.96956 9.13433 7.37486C9.77042 8.45847 10.9891 9.15648 12.2416 9.17337C12.6948 9.179 13.1958 9.11708 13.6348 9.0045C13.6517 9.00168 13.2661 9.03546 13.4322 9.03264C13.4744 9.03264 13.5166 9.0242 13.5617 9.02138C13.6489 9.01575 13.7362 9.02138 13.8206 9.01576C14.0795 8.99887 13.5026 8.93132 13.7615 9.00168C13.8234 9.01857 14.1668 9.12552 13.9444 9.04672C13.6855 8.95665 14.1499 9.13678 14.1471 9.18744C14.1471 9.20715 13.936 8.98761 14.057 9.12271C14.0908 9.16211 14.1358 9.1987 14.1724 9.23529C14.3694 9.41824 14.0542 9.0045 14.1668 9.22685C14.1837 9.26062 14.209 9.31691 14.2343 9.34506C14.3385 9.46327 14.1471 9.06642 14.1837 9.21559C14.2681 9.5646 14.3497 9.90798 14.4229 10.2598C14.6565 11.3575 15.3771 12.3538 16.4072 12.8323C16.9532 13.0856 17.5274 13.2376 18.1353 13.2038C18.4168 13.1898 18.6983 13.1419 18.9769 13.0997C19.0613 13.0856 19.1458 13.0744 19.2302 13.0603C19.5708 13.004 18.9431 13.0772 19.1964 13.0631C19.2978 13.0575 19.3963 13.0547 19.4976 13.049C19.5286 13.049 19.6017 13.0659 19.6299 13.0547C19.5849 13.0772 19.2612 12.9759 19.4835 13.0378C19.5454 13.0547 19.8888 13.1616 19.6665 13.0828C19.4638 13.0125 19.6299 13.0687 19.6721 13.0969C19.7115 13.125 19.9789 13.3164 19.8044 13.1729C19.6299 13.0293 19.9282 13.3333 19.962 13.3446C19.9367 13.3361 19.81 13.0884 19.8635 13.2207C19.8804 13.2658 19.9254 13.3446 19.9564 13.3783C20.0464 13.4825 19.8916 13.232 19.8916 13.2067C19.8916 13.2573 19.9339 13.3221 19.9479 13.3699C19.9789 13.4656 20.0014 13.5641 20.0239 13.6598C20.1112 14.0538 20.1562 14.4507 20.3054 14.8279C20.6094 15.6075 21.0738 16.1451 21.7436 16.6376C22.4135 17.1302 23.514 16.7671 23.8771 16.0775C24.3077 15.2613 24.0206 14.462 23.317 13.9441L23.3113 13.9497Z" fill="#009997"/>
<path d="M89.8705 48.1131C89.9521 48.0258 90.045 47.9104 90.1491 47.8457C89.7438 48.0934 90.2082 47.8541 90.2026 47.8457C90.2279 47.8766 89.8733 47.9498 90.1069 47.8879C90.1998 47.8626 90.2898 47.8344 90.3827 47.8147C90.5235 47.7837 90.7711 47.8147 90.3349 47.8147C90.394 47.8147 90.4587 47.8006 90.5178 47.795C90.8415 47.7584 91.1652 47.7275 91.4832 47.6599C92.5556 47.4319 93.5379 46.6298 94.0163 45.6475C94.2584 45.1465 94.3654 44.6596 94.4104 44.0995C94.4245 43.9137 94.4216 43.7279 94.4245 43.5422C94.4245 43.4803 94.4245 43.4183 94.4273 43.3564C94.4273 43.2945 94.4329 43.2326 94.4357 43.1707C94.4526 43.0018 94.4442 43.0468 94.416 43.3029C94.447 43.272 94.4751 43.0637 94.4864 43.0187C94.5455 42.7907 94.4498 43.1003 94.4498 43.1003C94.4413 43.0834 94.7087 42.6781 94.4695 43.0187C94.5455 42.9089 94.6524 42.8245 94.7425 42.7316C94.9057 42.5599 94.7115 42.7175 94.7031 42.7597L94.796 42.7034C94.9508 42.6246 94.917 42.6331 94.7003 42.7288C94.7031 42.7316 95.2294 42.5993 95.2519 42.588L95.0211 42.619C95.0831 42.6106 95.145 42.6049 95.2041 42.5993C95.266 42.5937 95.3279 42.5852 95.387 42.5796C95.6769 42.5458 95.9781 42.5177 96.2624 42.4445C96.8337 42.301 97.3347 42.0082 97.7823 41.6311C98.6717 40.8796 99.0741 39.8101 99.1079 38.673C99.1135 38.5041 99.1079 38.3324 99.1164 38.1635C99.1164 38.0875 99.1332 38.0059 99.1304 37.9299C99.122 37.7301 99.0263 38.3211 99.1248 38.0144C99.1361 37.9778 99.1726 37.7385 99.2121 37.7273C99.2008 37.7301 99.0685 38.02 99.198 37.8061C99.3894 37.488 98.9559 38.0115 99.2515 37.7188C99.3106 37.6541 99.3725 37.5922 99.4372 37.5331C99.5723 37.4177 99.5611 37.4261 99.3978 37.5612C99.4006 37.5331 99.5751 37.4655 99.5836 37.4542L99.395 37.5302C99.4569 37.5077 99.516 37.4852 99.5779 37.4683C99.668 37.443 99.7609 37.4261 99.8538 37.4064C99.9692 37.3811 100.104 37.4177 99.7159 37.4233C100.177 37.4177 100.704 37.3417 101.143 37.1953C102.381 36.7788 103.445 35.712 103.704 34.4032C103.8 33.922 103.797 33.4519 103.814 32.965C103.817 32.8862 103.848 32.7624 103.831 32.6864C103.794 32.9284 103.789 32.9875 103.811 32.8665C103.82 32.8186 103.831 32.7708 103.845 32.7229L103.873 32.6273C103.929 32.4725 103.918 32.4978 103.839 32.7089C103.876 32.6413 103.912 32.5738 103.955 32.5119C103.831 32.661 103.828 32.6638 103.946 32.5231C104.478 31.9067 104.599 30.916 103.946 30.3165C103.361 29.7789 102.308 29.6551 101.74 30.3165C101.334 30.7865 101.002 31.2875 100.833 31.8926C100.704 32.3599 100.693 32.8524 100.684 33.3337C100.684 33.4744 100.633 33.6658 100.662 33.7981C100.605 33.5335 100.712 33.5082 100.662 33.7137C100.653 33.7503 100.619 33.9417 100.586 33.9529L100.656 33.7756C100.619 33.8431 100.583 33.9107 100.541 33.9726L100.636 33.8572C100.594 33.9107 100.549 33.9614 100.501 34.0092C100.431 34.0824 100.355 34.1725 100.27 34.2259C100.434 34.1021 100.448 34.0852 100.31 34.1753C100.155 34.2541 100.189 34.2456 100.405 34.1499C100.253 34.1781 100.096 34.24 99.9438 34.2738C99.6117 34.3498 100.329 34.2344 99.9917 34.2682C99.9298 34.2738 99.8678 34.2822 99.8087 34.2879C99.1895 34.3582 98.6632 34.4427 98.1003 34.7157C97.1208 35.1857 96.3102 36.2102 96.0963 37.2769C96.0062 37.7273 96.0006 38.1663 95.9894 38.6223C95.9894 38.6842 95.9894 38.7461 95.9837 38.8081L95.9781 38.9009C95.9612 39.0698 95.9697 39.0248 95.9978 38.7687C95.9668 38.7996 95.9387 39.0079 95.9274 39.0529C95.8824 39.1796 95.8824 39.1824 95.9274 39.0614C95.9809 38.9403 95.9725 38.9432 95.9077 39.0698C95.6432 39.3653 96.1695 38.8447 95.8543 39.1571C95.767 39.2415 95.6826 39.3597 95.5756 39.4245L95.6404 39.371C95.7361 39.2978 95.7276 39.2978 95.6122 39.371L95.5193 39.4216C95.7389 39.3372 95.7698 39.3231 95.615 39.3794C95.4799 39.416 95.2829 39.4273 95.1534 39.4864L95.3842 39.4554C95.3223 39.4639 95.2604 39.4695 95.2013 39.4751C95.0409 39.492 94.8776 39.5145 94.7172 39.5342C93.5266 39.6947 92.519 40.3026 91.8632 41.3271C91.3284 42.1659 91.334 43.0553 91.2834 44.0038C91.2834 44.0488 91.2693 44.364 91.2834 44.077C91.2975 43.7899 91.244 44.1839 91.2271 44.2486C91.1427 44.5864 91.3875 43.939 91.2074 44.2655C91.0385 44.5695 91.4269 44.0713 91.1539 44.3528C91.0695 44.44 90.9822 44.5554 90.8753 44.6202C91.0385 44.4963 91.0526 44.4766 90.9147 44.5695C90.7908 44.6314 90.7908 44.6371 90.9147 44.5808L91.0076 44.5442C90.9485 44.5667 90.8865 44.5892 90.8246 44.6061C90.7177 44.637 90.5544 44.6342 90.4559 44.6849C90.4756 44.6765 90.8612 44.6371 90.5938 44.6652C90.47 44.6765 90.349 44.6933 90.2251 44.7074C89.938 44.744 89.6312 44.7722 89.3498 44.8538C88.694 45.0424 88.1142 45.4139 87.647 45.9064C87.084 46.5003 87.0137 47.5333 87.647 48.1131C88.2802 48.6929 89.2541 48.7463 89.8536 48.1131H89.8705Z" fill="#009997"/>
</svg>
