<svg width="111" height="87" viewBox="0 0 111 87" fill="none" xmlns="http://www.w3.org/2000/svg">
<path d="M14.6904 7.35305C26.1542 13.3931 30.3395 16.0529 36.419 12.8527C52.4761 4.40337 64.6492 8.76878 83.7742 7.04626C91.4608 6.35387 103.718 6.95338 103.268 14.6484C102.666 24.9076 91.9111 21.2289 89.06 22.397C85.28 23.945 99.108 23.7001 102.778 24.9329C106.144 26.0643 109.73 30.6437 106.924 37.5225C102.567 48.201 85.598 41.2743 85.598 41.2743C85.598 41.2743 103.597 44.4323 101.067 55.0911C95.2774 79.4766 62.6367 39.7939 68.8429 73.8868C69.9687 80.0648 66.9262 85.5842 61.2295 82.9441C51.9216 78.6322 49.3182 57.2527 49.3182 57.2527C49.3182 57.2527 43.8016 52.2934 27.0126 53.332" fill="white"/>
<path d="M13.2689 9.782C17.3529 11.9352 21.4031 14.2881 25.7403 15.9065C28.721 17.0183 31.9887 17.4461 35.0706 16.461C36.0248 16.1542 36.9508 15.7433 37.8402 15.2817C39.0673 14.6428 40.3114 14.0461 41.5864 13.5057L40.9137 13.79C44.6261 12.2335 48.5159 11.2005 52.5041 10.663L51.7554 10.7643C57.2045 10.0438 62.7098 10.1986 68.1898 10.2774C71.207 10.3196 74.2214 10.3393 77.2386 10.2464C80.2558 10.1535 83.0254 9.85237 85.9244 9.70882C88.5223 9.57935 91.137 9.62438 93.7151 9.96776L92.9665 9.86644C94.689 10.1029 96.4031 10.4716 98.013 11.1386L97.3403 10.8544C97.7991 11.0486 98.2466 11.2653 98.6744 11.5158C98.8799 11.6368 99.0797 11.7635 99.2711 11.8986C99.4822 12.0449 99.8115 12.3827 99.0488 11.7156C99.1248 11.7804 99.2036 11.8395 99.2796 11.9042C99.44 12.0421 99.592 12.1828 99.7383 12.3348C99.9663 12.5712 100.374 13.2439 99.7777 12.3292C100.017 12.7007 100.251 13.0525 100.425 13.4607C100.329 13.2355 100.237 13.0131 100.141 12.788C100.324 13.2383 100.445 13.7027 100.512 14.1812L100.411 13.4325C100.498 14.1615 100.45 14.8876 100.358 15.6138C100.391 15.3633 100.425 15.1156 100.459 14.8651C100.349 15.6617 100.163 16.4441 99.8594 17.19C99.9551 16.9648 100.048 16.7424 100.144 16.5173C99.9691 16.9254 99.7665 17.3223 99.516 17.691C99.4653 17.767 99.3471 17.8767 99.3218 17.9612C99.3415 17.8992 99.8622 17.3082 99.5582 17.6459C99.4231 17.7951 99.2908 17.9415 99.1473 18.0822C98.9221 18.2961 98.2945 18.6986 99.212 18.0709C99.0628 18.1723 98.9221 18.282 98.7701 18.3777C98.4464 18.5832 98.1031 18.7549 97.7513 18.9012L98.4239 18.617C97.6077 18.9519 96.7465 19.1489 95.8711 19.2671L96.6198 19.1658C95.069 19.3685 93.5069 19.3234 91.9504 19.3065C90.3771 19.2896 88.8065 19.3403 87.3795 20.0777C85.7977 20.8939 85.1673 22.76 85.9976 24.3531C86.4733 25.265 87.4893 25.7744 88.4463 26.0052C90.1547 26.419 91.9786 26.5006 93.7264 26.6385C95.9162 26.813 98.1143 26.9509 100.296 27.2408L99.547 27.1395C100.521 27.2718 101.514 27.4153 102.429 27.7868L101.756 27.5026C102.17 27.6771 102.564 27.8882 102.939 28.1387C103.017 28.1921 103.093 28.2456 103.169 28.2991C103.521 28.544 102.511 27.7671 102.975 28.1499C103.15 28.2963 103.321 28.4483 103.482 28.6087C103.642 28.7691 103.808 28.9465 103.96 29.1238C104.121 29.3152 104.391 29.7711 103.839 28.9577C103.898 29.045 103.963 29.1266 104.022 29.2138C104.329 29.6614 104.585 30.1398 104.802 30.638C104.706 30.4128 104.613 30.1905 104.517 29.9653C104.821 30.6943 105.024 31.4514 105.134 32.2339C105.1 31.9834 105.066 31.7357 105.033 31.4852C105.145 32.3746 105.134 33.264 105.024 34.1506C105.058 33.9001 105.092 33.6524 105.125 33.4019C104.962 34.5953 104.627 35.7493 104.168 36.861C104.264 36.6359 104.357 36.4135 104.453 36.1884C104.211 36.7569 103.926 37.3029 103.586 37.818C103.499 37.9503 103.403 38.0741 103.316 38.2036C103.147 38.4485 103.78 37.6322 103.586 37.8546C103.535 37.9137 103.49 37.9756 103.44 38.0319C103.257 38.2514 103.06 38.4625 102.854 38.6596C102.663 38.8453 102.46 39.0142 102.257 39.1859C102.024 39.3857 102.896 38.713 102.584 38.9326C102.536 38.9663 102.491 39.0029 102.443 39.0367C102.325 39.1211 102.207 39.2028 102.083 39.2816C101.621 39.5799 101.134 39.8304 100.631 40.0471L101.303 39.7629C100.276 40.1907 99.1951 40.4581 98.0946 40.6072C98.3451 40.5735 98.5928 40.5397 98.8433 40.5059C96.9969 40.7452 95.1224 40.672 93.2817 40.4271C93.5322 40.4609 93.7799 40.4947 94.0304 40.5284C91.5817 40.1963 89.1527 39.5855 86.8335 38.7327C86.6703 38.6736 86.507 38.6117 86.3466 38.547C85.8484 40.3567 85.3502 42.1665 84.8492 43.9763C86.417 44.2521 87.9706 44.6996 89.4792 45.2091C90.2617 45.4736 91.0357 45.7635 91.7984 46.0844L91.1257 45.8001C92.4373 46.3574 93.718 46.9991 94.9113 47.7816C95.1984 47.9702 95.4827 48.1672 95.7585 48.3727C95.8036 48.4064 95.8458 48.4402 95.8908 48.4712C96.1104 48.6316 95.3955 48.0799 95.4827 48.1559C95.5446 48.2094 95.6122 48.2573 95.6741 48.3079C95.812 48.4177 95.9471 48.5331 96.0794 48.6485C96.6057 49.1101 97.0673 49.6139 97.5233 50.1458C97.695 50.3457 97.1405 49.6364 97.2052 49.7321C97.2334 49.7743 97.27 49.8165 97.3009 49.8588C97.3628 49.9432 97.4248 50.0276 97.4839 50.1149C97.588 50.2641 97.6865 50.4189 97.7794 50.5765C97.9792 50.9114 98.1566 51.2604 98.3085 51.6179L98.0243 50.9452C98.2663 51.5334 98.4352 52.147 98.5281 52.7775L98.4268 52.0288C98.5224 52.7381 98.5168 53.4502 98.4268 54.1594L98.5281 53.4107C98.3479 54.7055 97.9426 55.9973 97.436 57.202C97.5317 56.9768 97.6246 56.7545 97.7203 56.5293C97.467 57.1232 97.1771 57.7002 96.8337 58.2462C96.6789 58.4939 96.5044 58.7303 96.3355 58.9695C97.0532 57.9563 96.4228 58.8457 96.1835 59.099C96.0034 59.2904 95.812 59.4734 95.615 59.645C95.4968 59.7492 95.0633 60.0841 95.5812 59.6844C96.0991 59.2848 95.6685 59.6141 95.539 59.7041C95.1253 59.9884 94.6862 60.2276 94.2246 60.4219C94.4498 60.3262 94.6721 60.2333 94.8973 60.1376C94.2021 60.4275 93.4703 60.6133 92.7244 60.7174C92.9749 60.6836 93.2226 60.6498 93.4731 60.6161C92.2516 60.7793 91.016 60.723 89.7973 60.5598C90.0478 60.5936 90.2954 60.6273 90.5459 60.6611C88.207 60.3402 85.9329 59.6479 83.6925 58.9245C81.5337 58.2293 79.3861 57.4637 77.1711 56.9599C75.0686 56.4815 72.6368 56.1156 70.5427 56.8586C69.4028 57.2639 68.3164 57.8775 67.5311 58.8232C66.6389 59.8983 66.0254 61.1199 65.696 62.4821C64.8263 66.0848 65.3527 69.9464 65.9494 73.5434C66.0451 74.126 66.1605 74.7058 66.2421 75.2913C66.2083 75.0408 66.1745 74.7931 66.1407 74.5426C66.2899 75.6909 66.3096 76.8449 66.1604 77.9961C66.1942 77.7456 66.228 77.4979 66.2618 77.2474C66.1436 78.0777 65.9409 78.8883 65.6172 79.6595C65.7129 79.4343 65.8058 79.212 65.9015 78.9868C65.7636 79.3048 65.606 79.6145 65.423 79.91C65.3442 80.0366 65.2542 80.1577 65.1725 80.2815C65.0008 80.5433 65.6651 79.6848 65.4033 79.9832C65.3499 80.0451 65.2992 80.107 65.2457 80.1661C65.15 80.2731 65.0487 80.3744 64.9445 80.4701C64.8883 80.5236 64.8235 80.5714 64.7672 80.6249C64.5421 80.836 65.4033 80.1661 65.0768 80.3857C64.8179 80.5602 64.5561 80.715 64.2662 80.8388L64.9389 80.5545C64.5815 80.7009 64.2184 80.7966 63.8356 80.8501C64.0861 80.8163 64.3338 80.7825 64.5843 80.7487C64.1705 80.7966 63.7596 80.7938 63.3431 80.7459L64.0917 80.8472C63.4472 80.76 62.8336 80.5742 62.2341 80.3237C62.4593 80.4194 62.6816 80.5123 62.9068 80.608C62.5381 80.4476 62.1778 80.2674 61.8316 80.0592C61.6796 79.9691 61.5277 79.8734 61.3813 79.7721C61.2349 79.6707 60.6495 79.2345 61.1252 79.6032C61.6008 79.9719 61.0689 79.5525 60.9507 79.4512C60.7987 79.3217 60.6495 79.1894 60.506 79.0515C60.2189 78.7813 59.9459 78.4999 59.6841 78.2072C59.5546 78.0636 59.428 77.9173 59.3041 77.7681C59.2366 77.6865 59.169 77.6048 59.1043 77.5232C59.0762 77.4866 59.048 77.4529 59.0199 77.4163C58.8003 77.1489 59.3098 77.799 59.2929 77.7709C59.0621 77.4078 58.7778 77.0729 58.5386 76.7154C58.0601 75.9977 57.621 75.2519 57.2185 74.4891C56.7401 73.5828 56.3066 72.654 55.9069 71.7111C56.0026 71.9363 56.0955 72.1586 56.1912 72.3838C54.3195 67.9311 53.129 63.1801 52.3324 58.4235C52.2367 57.8493 52.1467 57.2724 52.0679 56.6954C52.1016 56.9459 52.1354 57.1935 52.1692 57.444C52.1607 57.3821 52.1523 57.3174 52.1439 57.2555C52.0425 56.4871 51.8652 55.8172 51.3107 55.2402C51.0715 54.9925 50.7647 54.804 50.4861 54.6013C49.9119 54.1848 49.2871 53.8414 48.6482 53.5374C45.0877 51.8261 41.2205 51.055 37.3139 50.6468C33.897 50.2894 30.4491 50.2922 27.021 50.5005C25.5546 50.5905 24.136 51.7304 24.2064 53.3151C24.2711 54.7646 25.4476 56.2253 27.021 56.1296C30.8854 55.896 34.7779 55.9214 38.6226 56.4308L37.874 56.3295C40.5337 56.6897 43.1935 57.2752 45.6731 58.3166C45.448 58.2209 45.2256 58.128 45.0005 58.0323C45.7632 58.356 46.5119 58.7219 47.2099 59.1666C47.3872 59.2791 47.5561 59.4058 47.7278 59.524C47.8404 59.6 47.0016 58.8907 47.2943 59.1919C47.3056 59.2031 47.3225 59.2144 47.3337 59.2257C47.0579 58.5614 46.7849 57.9 46.5091 57.2358C46.7117 58.9048 46.9932 60.5626 47.3197 62.2119C47.9501 65.3755 48.7636 68.5138 49.8528 71.5535C51.1785 75.2491 52.8531 78.8404 55.4088 81.8549C58.2571 85.2126 63.0081 87.7204 67.3172 85.6067C69.5126 84.5287 70.9143 82.1419 71.4828 79.8452C71.7952 78.5787 71.9331 77.2361 71.8909 75.933C71.8459 74.5651 71.5701 73.2225 71.3505 71.8744C71.2689 71.3734 71.1929 70.8696 71.1254 70.3658C71.1591 70.6163 71.1929 70.8639 71.2267 71.1144C70.9283 68.8712 70.7257 66.5604 71.0269 64.3088L70.9255 65.0575C71.0325 64.2919 71.2014 63.5348 71.4997 62.8199L71.2154 63.4926C71.3365 63.2083 71.4744 62.9296 71.6404 62.6679C71.8177 62.3892 72.2427 61.984 71.4716 62.8537C71.5616 62.7523 71.6461 62.6426 71.7418 62.544C71.8374 62.4455 71.9331 62.3611 72.0317 62.271C72.3497 61.9811 71.4969 62.6623 71.6461 62.5638C71.6939 62.5328 71.7418 62.4962 71.7896 62.4624C72.0091 62.3133 72.2456 62.1894 72.4904 62.0853L71.8177 62.3695C72.2287 62.2007 72.6621 62.0937 73.1012 62.0346C72.8507 62.0684 72.603 62.1022 72.3525 62.1359C73.1547 62.0318 73.9653 62.0768 74.7646 62.181C74.5141 62.1472 74.2664 62.1134 74.0159 62.0796C77.3146 62.5272 80.4669 63.8359 83.6333 64.8042C87.2388 65.9075 91.0835 66.8053 94.8466 66.0369C96.7718 65.6429 98.5928 64.6409 99.9832 63.259C101.666 61.5899 102.73 59.3889 103.423 57.1513C103.859 55.744 104.183 54.2439 104.123 52.7634C104.059 51.1478 103.645 49.6392 102.908 48.2066C101.672 45.8029 99.4681 43.9425 97.194 42.5634C95.0971 41.2912 92.7751 40.3483 90.4446 39.5996C89.1668 39.1915 87.8636 38.8369 86.5464 38.5807C86.4817 38.5667 86.417 38.5554 86.3494 38.5442C85.5867 38.4091 84.8717 38.4231 84.1794 38.8284C83.5967 39.169 83.0395 39.8389 82.8847 40.5115C82.7214 41.2321 82.7552 42.0399 83.1689 42.6816C83.5911 43.3374 84.1343 43.6836 84.8521 43.9763C86.583 44.6799 88.4209 45.1781 90.2448 45.5637C94.0191 46.3574 98.1734 46.7318 101.908 45.5271C103.949 44.8685 105.914 43.7539 107.329 42.1187C109.373 39.7601 110.445 36.7428 110.71 33.6552C111.146 28.5524 107.943 23.1625 102.772 22.0029C100.92 21.5892 98.9981 21.4372 97.1095 21.2767C95.2209 21.1163 93.3887 21.0037 91.5339 20.8151C91.1595 20.7757 90.7852 20.7363 90.4108 20.6857L91.1595 20.787C90.5938 20.711 89.983 20.6463 89.4511 20.4239L90.1237 20.7082C90.0675 20.6829 90.014 20.6547 89.9633 20.6237C90.3095 20.8461 90.6867 21.1782 90.8584 21.5132C90.9541 21.7383 91.0469 21.9607 91.1426 22.1858C91.137 22.1718 91.1314 22.1577 91.1286 22.1408L91.2299 22.8895C91.2299 22.8895 91.2299 22.8698 91.2299 22.8585C91.1961 23.109 91.1623 23.3567 91.1286 23.6072C91.1286 23.5903 91.1342 23.5762 91.1398 23.5594C91.0441 23.7845 90.9512 24.0069 90.8555 24.232C90.9963 23.9252 90.2814 24.8935 90.4868 24.7021C90.6923 24.5107 89.7522 25.1806 90.0534 25.037C90.1829 24.9751 90.3011 24.9019 90.4334 24.8456L89.7607 25.1299C90.0365 25.0145 90.3236 24.9554 90.6191 24.916L89.8704 25.0173C91.6858 24.7865 93.5463 25.0286 95.3701 24.9216C98.1537 24.7584 100.859 24.0998 102.986 22.2027C104.166 21.1501 104.951 19.7231 105.46 18.2454C105.764 17.3588 105.894 16.4328 106.006 15.504C106.091 14.8145 106.122 14.1305 106.046 13.4409C105.838 11.5946 105.165 10.0156 103.946 8.60551C103.057 7.57537 101.849 6.75915 100.619 6.18779C97.6105 4.78894 94.3231 4.27388 91.0329 4.0853C87.8468 3.90235 84.7113 4.18944 81.5365 4.40616C77.4694 4.6848 73.3939 4.71295 69.3184 4.66229C65.6651 4.61725 62.0118 4.51593 58.3613 4.6257C54.7108 4.73547 50.9449 5.09573 47.3197 5.87256C43.3849 6.71411 39.5852 8.1214 35.9854 9.9171C35.2902 10.2633 34.6119 10.6404 33.897 10.9472L34.5696 10.663C33.7028 11.026 32.8049 11.2906 31.8733 11.4201L32.622 11.3188C31.7466 11.4313 30.8685 11.4201 29.9931 11.3075L30.7418 11.4088C29.115 11.1865 27.5557 10.6376 26.0499 10.0015L26.7226 10.2858C23.0777 8.74061 19.6158 6.76478 16.1173 4.92123C14.8169 4.23447 12.9987 4.54689 12.2669 5.93166C11.5802 7.232 11.887 9.05021 13.2774 9.782H13.2689Z" fill="#009997"/>
<path d="M32.6362 67.1149H12.0898C5.85835 67.1149 0.797745 62.0543 0.797745 55.8229L0.797745 12.0562C0.797745 5.82472 5.85835 0.764114 12.0898 0.764114H32.6362L32.6362 67.1149Z" fill="#C4E6FF"/>
<path d="M16.72 61.2325C21.1408 61.2325 24.7246 57.6486 24.7246 53.2278C24.7246 48.807 21.1408 45.2231 16.72 45.2231C12.2991 45.2231 8.71533 48.807 8.71533 53.2278C8.71533 57.6486 12.2991 61.2325 16.72 61.2325Z" fill="white"/>
</svg>
