<svg width="116" height="123" viewBox="0 0 116 123" fill="none" xmlns="http://www.w3.org/2000/svg">
<path d="M98.8222 29.1842C97.9891 29.1842 97.1757 29.263 96.3848 29.4037C90.8401 14.4442 76.4435 3.78262 59.5532 3.78262V82.3206C60.5468 82.3206 61.5319 82.2783 62.5057 82.2052C62.5311 82.2052 62.5536 82.2052 62.5789 82.2052C64.5012 82.101 64.8531 81.9575 65.5849 81.8562C78.6473 79.8409 89.5848 71.3944 95.0563 59.8462C95.318 59.8687 95.5826 59.8828 95.8556 59.8828C103.514 59.8828 112.69 50.7072 112.69 43.0488C112.69 35.3903 106.481 29.1814 98.8222 29.1814V29.1842Z" fill="white"/>
<path d="M98.8222 26.3696C97.7526 26.3752 96.6887 26.5075 95.6361 26.6877C96.79 27.3435 97.944 27.9992 99.098 28.6522C96.7844 22.4376 93.1058 16.7719 88.2309 12.2545C83.3561 7.7343 77.437 4.36806 71.0367 2.55266C67.3186 1.4972 63.4148 0.97087 59.5532 0.96524C58.0305 0.96524 56.7386 2.25713 56.7386 3.77982V79.1317C56.7386 80.1505 56.7302 81.1694 56.7386 82.1855C56.7386 82.2305 56.7386 82.2755 56.7386 82.3178C56.7386 83.8376 58.0277 85.1351 59.5532 85.1323C65.765 85.1183 71.8557 83.7279 77.4849 81.1131C82.9564 78.5744 87.9185 74.7437 91.7716 70.1025C94.0233 67.3892 95.971 64.4508 97.4881 61.2647C96.6775 61.7291 95.8669 62.1935 95.0591 62.6579C98.6477 62.9507 102.332 61.4871 105.259 59.5084C108.383 57.3947 111.099 54.6139 113.01 51.3518C114.812 48.2811 115.839 44.76 115.383 41.1912C115.121 39.1281 114.573 37.217 113.627 35.3537C112.825 33.7719 111.713 32.2999 110.438 31.0699C107.328 28.0724 103.143 26.3809 98.825 26.364C97.353 26.3583 95.9428 27.6615 96.0104 29.1786C96.0779 30.7097 97.246 31.9875 98.825 31.9931C99.447 31.9931 100.063 32.0353 100.68 32.117L99.9311 32.0156C101.158 32.1845 102.354 32.511 103.497 32.9923L102.824 32.708C103.905 33.1724 104.921 33.7663 105.856 34.4812L105.287 34.0421C106.239 34.7796 107.089 35.6324 107.826 36.5837C107.68 36.3951 107.533 36.2037 107.387 36.0152C108.102 36.9496 108.696 37.9657 109.16 39.0465L108.876 38.3738C109.357 39.5165 109.684 40.7127 109.852 41.9398C109.819 41.6893 109.785 41.4417 109.751 41.1912C109.892 42.2748 109.92 43.3668 109.776 44.4504C109.81 44.1999 109.844 43.9523 109.878 43.7018C109.712 44.8811 109.366 46.0238 108.904 47.1215L109.188 46.4488C108.541 47.9574 107.685 49.3647 106.689 50.6678C106.835 50.4793 106.982 50.2879 107.128 50.0993C105.906 51.6783 104.488 53.0968 102.909 54.3183C103.098 54.172 103.289 54.0256 103.477 53.8793C102.174 54.8756 100.77 55.7341 99.2584 56.3786L99.9311 56.0943C98.8334 56.5559 97.6907 56.8993 96.5114 57.0682L97.2601 56.9669C96.5255 57.0654 95.7937 57.0879 95.0563 57.0288C94.1528 56.9556 93.0157 57.603 92.6273 58.422C91.4142 60.972 89.9309 63.3869 88.2056 65.6245C88.3519 65.4359 88.4983 65.2445 88.6447 65.056C86.5956 67.696 84.223 70.0715 81.5829 72.1205C81.7715 71.9742 81.9629 71.8278 82.1514 71.6815C79.4579 73.7614 76.5082 75.4868 73.3756 76.8153C73.6007 76.7196 73.8231 76.6267 74.0483 76.531C70.7074 77.9326 67.1863 78.853 63.5977 79.3371C63.8482 79.3033 64.0959 79.2696 64.3464 79.2358C62.7646 79.4385 61.1434 79.5004 59.5504 79.5032C60.4876 80.4404 61.4277 81.3805 62.365 82.3178V6.96873C62.365 5.94986 62.379 4.93098 62.365 3.91492C62.365 3.86988 62.365 3.82485 62.365 3.78263C61.4277 4.71989 60.4876 5.65995 59.5504 6.59721C61.3292 6.59721 63.1024 6.71824 64.8643 6.95466L64.1156 6.85333C67.5297 7.32055 70.8706 8.23248 74.0483 9.56659L73.3756 9.28231C76.511 10.6108 79.4635 12.3389 82.1571 14.4189C81.9685 14.2726 81.7771 14.1262 81.5885 13.9798C84.2314 16.0317 86.6069 18.4128 88.6559 21.0557L88.2168 20.4871C90.2715 23.1554 91.9827 26.0741 93.3 29.1757L93.0157 28.5031C93.2465 29.0491 93.4632 29.5979 93.6687 30.1496C93.9192 30.8195 94.2991 31.4809 94.9634 31.8327C95.6698 32.2042 96.3482 32.2521 97.1334 32.117C97.322 32.086 97.5078 32.055 97.6963 32.0269L96.9477 32.1282C97.5697 32.0466 98.1945 32.0016 98.825 31.9988C100.297 31.9903 101.707 30.7097 101.64 29.1842C101.572 27.6587 100.404 26.3612 98.825 26.3696H98.8222Z" fill="#009997"/>
<path d="M53.1754 44.4082C35.0045 44.4082 20.9992 57.4763 16.3439 70.0293C15.553 69.8886 14.7368 69.8098 13.9065 69.8098C6.24802 69.8098 0.0390625 76.0187 0.0390625 83.6772C0.0390625 91.3356 9.21458 100.511 16.873 100.511H17.6893C23.9939 113.776 37.5123 122.946 53.1754 122.946V44.4082Z" fill="#C4E6FF"/>
<path d="M33.1274 80.4376C33.1274 80.4376 37.2508 83.1875 43.7299 80.4376H33.1274Z" fill="white"/>
<path d="M31.7092 82.8666C31.8583 82.9651 32.0216 83.0495 32.1848 83.1284C32.8209 83.4408 33.488 83.7138 34.1663 83.9192C35.9845 84.4681 37.9632 84.6004 39.8433 84.3527C41.456 84.1416 42.9815 83.7813 44.4845 83.1509C45.1938 82.8525 45.7623 82.5486 46.1676 81.8562C46.5195 81.2538 46.6715 80.3644 46.4519 79.6861C46.2324 79.0078 45.8102 78.3492 45.1572 78.003C44.5042 77.6568 43.6683 77.4345 42.9872 77.7187C41.7375 78.2422 40.4372 78.6278 39.0946 78.8192L39.8433 78.7179C38.7569 78.8643 37.662 78.8783 36.5756 78.7404C36.8261 78.7742 37.0737 78.808 37.3242 78.8418C36.4433 78.7207 35.5792 78.504 34.7573 78.1634C34.9825 78.2591 35.2049 78.352 35.43 78.4477C35.1317 78.3211 34.8249 78.186 34.5547 78.0058C33.9665 77.6146 33.0517 77.5386 32.3847 77.7216C31.7317 77.9017 31.0252 78.4055 30.7015 79.0163C29.9557 80.4292 30.3976 81.9969 31.712 82.8666H31.7092Z" fill="#009997"/>
<path d="M70.7866 40.1582C70.7866 40.1582 74.91 42.908 81.3891 40.1582H70.7866Z" fill="white"/>
<path d="M69.3649 42.59C69.5141 42.6885 69.6773 42.773 69.8406 42.8518C70.4767 43.1642 71.1437 43.4372 71.8221 43.6427C73.6403 44.1915 75.6189 44.3238 77.4991 44.0761C79.1118 43.865 80.6373 43.5048 82.1403 42.8743C82.8496 42.5759 83.4181 42.272 83.8234 41.5796C84.1752 40.9773 84.3272 40.0879 84.1077 39.4095C83.8881 38.7312 83.466 38.0726 82.813 37.7264C82.16 37.3802 81.3241 37.1579 80.6429 37.4422C79.3933 37.9657 78.0929 38.3513 76.7504 38.5427L77.4991 38.4413C76.4126 38.5877 75.3178 38.6018 74.2313 38.4639L74.98 38.5652C74.0991 38.4441 73.235 38.2274 72.4131 37.8869L73.0858 38.1711C72.7875 38.0445 72.4807 37.9094 72.2105 37.7292C71.6222 37.338 70.7075 37.262 70.0404 37.445C69.3734 37.6279 68.681 38.1289 68.3573 38.7397C67.6114 40.1526 68.0533 41.7203 69.3677 42.59H69.3649Z" fill="#009997"/>
</svg>
