<svg width="69" height="116" viewBox="0 0 69 116" fill="none" xmlns="http://www.w3.org/2000/svg">
<path d="M49.2988 15.8406V5.14519C49.2988 3.97433 48.3503 3.02582 47.1795 3.02582H21.5528C20.3819 3.02582 19.4334 3.97433 19.4334 5.14519V15.8406H2.83301V112.257H65.9048V15.8406H49.3045H49.2988Z" fill="white"/>
<path d="M52.1134 15.8406C52.1134 12.3196 52.1415 8.79573 52.1134 5.2747C52.0965 3.01178 50.6385 0.895215 48.3728 0.357631C47.7845 0.219717 47.2385 0.211273 46.6531 0.211273H22.8024C22.4196 0.211273 22.0368 0.208458 21.6568 0.211273C19.6528 0.230975 17.8318 1.3371 17.0437 3.20317C16.6413 4.15731 16.6216 5.09456 16.6216 6.09655V15.8434C17.5588 14.9062 18.4989 13.9661 19.4361 13.0289H2.83575C1.31307 13.0289 0.0211774 14.3179 0.0211774 15.8434V108.333C0.0211774 109.589 0.00428995 110.844 0.0211774 112.096C0.0211774 112.15 0.0211774 112.203 0.0211774 112.257C0.0211774 113.779 1.31025 115.071 2.83575 115.071H58.1478C60.695 115.071 63.2506 115.119 65.7978 115.071C65.8344 115.071 65.871 115.071 65.9076 115.071C67.4303 115.071 68.7222 113.782 68.7222 112.257V19.767C68.7222 18.5117 68.7391 17.2563 68.7222 16.0039C68.7222 15.9504 68.7222 15.8969 68.7222 15.8434C68.7222 14.3207 67.4331 13.0289 65.9076 13.0289H49.3072C47.8352 13.0289 46.4251 14.3236 46.4926 15.8434C46.5602 17.3689 47.7282 18.658 49.3072 18.658H65.9076C64.9703 17.7208 64.0303 16.7807 63.093 15.8434V108.333C63.093 109.586 63.0677 110.844 63.093 112.096C63.093 112.15 63.093 112.203 63.093 112.257C64.0303 111.319 64.9703 110.379 65.9076 109.442H10.5955C8.04835 109.442 5.4899 109.369 2.94552 109.442C2.90893 109.442 2.87234 109.442 2.83575 109.442C3.77301 110.379 4.71307 111.319 5.65033 112.257V19.767C5.65033 18.5145 5.67566 17.2563 5.65033 16.0039C5.65033 15.9504 5.65033 15.8969 5.65033 15.8434C4.71307 16.7807 3.77301 17.7208 2.83575 18.658H19.4361C20.9588 18.658 22.2507 17.3689 22.2507 15.8434V5.42105C22.2507 5.34788 22.2507 5.2747 22.2507 5.20152C22.2507 5.18744 22.2507 5.17056 22.2507 5.15648C22.2338 4.66393 22.1494 5.71096 22.2141 5.38165C22.2366 5.26344 22.3689 4.94539 22.1916 5.37884C22.0143 5.81228 22.155 5.51112 22.2169 5.40135C22.3858 5.10864 21.806 5.87983 22.0452 5.64341C22.2845 5.40698 21.5105 5.98397 21.8032 5.81509C21.913 5.75317 22.2029 5.61526 21.7807 5.78976C21.3585 5.96427 21.6653 5.8348 21.7835 5.81228C22.1128 5.74754 21.0658 5.82917 21.5527 5.84887C21.7863 5.85731 22.0255 5.84887 22.2591 5.84887H45.6905C46.1211 5.84887 46.5518 5.84887 46.9824 5.84887C47.0471 5.84887 47.1119 5.84887 47.1738 5.84887C47.6551 5.82917 46.8783 5.84887 46.8726 5.79539C46.8726 5.77569 47.1203 5.8742 47.1513 5.87702C46.8642 5.87702 46.5715 5.62089 46.8642 5.78132C47.2357 5.98397 46.6587 5.6237 46.6334 5.59837C46.9402 5.88546 46.4842 5.39291 46.4729 5.34787C46.4729 5.3535 46.5968 5.57023 46.6221 5.58993C46.4561 5.15367 46.4082 5.04109 46.4758 5.24936C46.5011 5.31691 46.518 5.38728 46.5349 5.46046C46.4814 5.45764 46.5011 4.67519 46.4814 5.16211C46.4814 5.17619 46.4814 5.19307 46.4814 5.20715C46.4814 5.28595 46.4814 5.36758 46.4814 5.44639V15.8491C46.4814 17.3211 47.7761 18.7312 49.296 18.6636C50.8158 18.5961 52.1105 17.428 52.1105 15.8491L52.1134 15.8406Z" fill="#009997"/>
<path d="M58.0239 82.3659H10.708V104.48H58.0239V82.3659Z" fill="#C4E6FF"/>
</svg>
