<svg width="72" height="103" viewBox="0 0 72 103" fill="none" xmlns="http://www.w3.org/2000/svg">
<g clip-path="url(#clip0_2240_32532)">
<path d="M36 73.5563C36.1443 73.5563 36.2855 73.5683 36.4267 73.5833L35.6274 73.4751C35.8949 73.5172 36.1503 73.5863 36.4027 73.6885L35.6845 73.3849C35.9249 73.4931 36.1473 73.6224 36.3576 73.7787L35.7506 73.3097C35.955 73.4721 36.1353 73.6495 36.2975 73.8539L35.8288 73.2466C35.985 73.454 36.1142 73.6705 36.2224 73.905L35.9189 73.1864C36.0331 73.457 36.1082 73.7336 36.1473 74.0253L36.0391 73.2255C36.0631 73.46 36.0631 73.6855 36.0391 73.9201L36.1473 73.1203C36.0872 73.5593 35.9309 73.9682 35.7597 74.3741L36.0631 73.6555C35.5974 74.7228 34.9724 75.706 34.2633 76.626L34.732 76.0187C33.9598 77.0078 33.0974 77.9248 32.2711 78.8719C31.4448 79.819 30.6606 80.733 29.8673 81.6711C28.4401 83.3578 27.0338 85.0655 25.6547 86.7943C23.4702 89.5333 21.3368 92.3144 19.3026 95.1677C18.6265 96.1148 17.9925 97.0979 17.3074 98.039L17.7762 97.4316C17.7161 97.5038 17.656 97.5639 17.5869 97.6241L18.1938 97.155C18.0977 97.2242 18.0045 97.2783 17.8964 97.3234L18.6145 97.0197C18.5334 97.0468 18.4553 97.0678 18.3711 97.0829L19.1704 96.9746C19.0592 96.9867 18.951 96.9897 18.8399 96.9746L19.6391 97.0829C19.528 97.0648 19.4258 97.0348 19.3206 96.9927L20.0388 97.2963C19.9606 97.2573 19.8915 97.2182 19.8194 97.1701L20.4264 97.6391C20.3332 97.5639 20.2551 97.4858 20.183 97.3926L20.6517 97.9999C20.5976 97.9217 20.5556 97.8466 20.5165 97.7594L20.82 98.4779C19.7443 95.9013 18.6686 93.3246 17.5929 90.748C17.4396 90.3842 17.2894 90.0204 17.1362 89.6566C16.9919 89.1485 16.7365 88.7065 16.3639 88.3307C15.9883 87.9579 15.5466 87.6993 15.0388 87.558C14.507 87.4137 13.9752 87.4137 13.4403 87.558C12.9325 87.7023 12.4908 87.9579 12.1152 88.3307C9.58221 90.306 7.04619 92.2844 4.51318 94.2597C4.14961 94.5423 3.78603 94.8279 3.41945 95.1105L4.02641 94.6415C3.94829 94.6986 3.87617 94.7437 3.78903 94.7858L4.50717 94.4822C4.399 94.5273 4.29383 94.5573 4.17665 94.5784L4.97591 94.4701C4.86173 94.4792 4.75657 94.4792 4.64539 94.4641L5.44466 94.5724C5.36353 94.5543 5.28841 94.5333 5.20728 94.5062L5.92542 94.8099C5.82325 94.7648 5.73311 94.7137 5.63996 94.6505L6.24693 95.1196C6.15979 95.0504 6.08767 94.9753 6.01556 94.8881L6.4843 95.4954C6.43623 95.4262 6.39716 95.3571 6.3581 95.2819L6.66158 96.0005C6.61651 95.8923 6.58947 95.784 6.57144 95.6698L6.67961 96.4695C6.65257 96.1027 6.73971 95.7119 6.78778 95.3481L6.67961 96.1478C7.27756 91.7011 8.30518 87.3024 9.73244 83.0481C10.2583 81.4847 10.8382 79.9423 11.4782 78.4239L11.1747 79.1425C12.9776 74.8852 15.2522 70.8263 18.0797 67.1642C18.5214 66.593 18.5634 65.5046 18.3831 64.8461C18.1908 64.1486 17.653 63.394 17.001 63.0482C16.3039 62.6784 15.4595 62.495 14.6843 62.7445L13.9661 63.0482C13.5154 63.3158 13.1549 63.6736 12.8874 64.1276C9.8316 68.0903 7.48789 72.4859 5.56485 77.095C4.0204 80.7961 2.83052 84.6446 1.95313 88.5592C1.61659 90.0625 1.32814 91.5778 1.08776 93.0991C0.955548 93.944 0.841367 94.7919 0.730191 95.6367C0.652067 96.229 0.637044 96.68 0.772258 97.3084C1.00362 98.3757 1.72477 99.2777 2.62619 99.864C3.52762 100.45 4.77459 100.631 5.84429 100.363C6.57444 100.18 7.09727 99.7978 7.67719 99.3468C7.86649 99.1995 8.05278 99.0552 8.23908 98.9079L10.9193 96.8183C12.6951 95.4323 14.486 94.0643 16.2468 92.6632C16.2798 92.6361 16.3129 92.6121 16.3459 92.585L11.325 91.2591C12.3526 93.7185 13.3772 96.1779 14.4048 98.6373C14.5881 99.0732 14.7684 99.5092 14.9517 99.9452C15.105 100.315 15.2251 100.703 15.4445 101.04C16.2377 102.248 17.5628 103.021 19.0262 103C20.4895 102.979 21.7214 102.173 22.5567 100.961C22.725 100.718 22.8873 100.474 23.0525 100.231C23.4522 99.6475 23.8578 99.0642 24.2695 98.487C25.5825 96.6379 26.9407 94.8189 28.3259 93.021L27.8571 93.6283C30.1257 90.6909 32.4785 87.8135 34.8913 84.9903C36.4357 83.1834 38.0793 81.4516 39.5156 79.5574C40.1376 78.7366 40.6995 77.8707 41.1262 76.9327C41.661 75.7631 42.1538 74.5454 42.0306 73.2285C41.8894 71.7132 41.3004 70.2129 40.1286 69.1847C38.9567 68.1564 37.5475 67.5461 35.979 67.5461C34.4105 67.5461 32.9021 68.9291 32.9742 70.5527C33.0464 72.1762 34.2933 73.5593 35.979 73.5593L36 73.5563Z" fill="#009997"/>
<path d="M36.0001 67.5431C33.3109 67.5431 30.856 69.3982 30.1408 71.9959C29.4257 74.5936 30.6547 77.0049 32.0639 79.0073C33.4731 81.0096 35.0927 82.6663 36.6371 84.4612C37.9442 85.9826 39.2332 87.5189 40.5043 89.0733C41.7753 90.6278 42.9381 92.092 44.122 93.6253L43.6532 93.018C44.9092 94.6476 46.1442 96.2952 47.3431 97.9699C47.7818 98.5832 48.2175 99.1996 48.6441 99.8189C49.2992 100.766 49.8851 101.854 50.9157 102.441C52.1837 103.159 53.7582 103.177 55.0323 102.471C55.6482 102.131 56.159 101.632 56.5346 101.04C56.7269 100.736 56.8411 100.393 56.9793 100.062C57.1176 99.7317 57.2588 99.392 57.397 99.0583L59.2569 94.6055C59.7227 93.49 60.1884 92.3746 60.6542 91.2591L55.6332 92.585C57.1596 93.7757 58.689 94.9693 60.2155 96.1599L63.2352 98.5141C64.1126 99.1996 65.0531 100.105 66.1378 100.366C68.2892 100.883 70.8102 99.5513 71.2159 97.2693C71.321 96.674 71.3271 96.214 71.2519 95.6398C71.1828 95.1016 71.1107 94.5634 71.0326 94.0252C70.8313 92.6121 70.5849 91.205 70.2964 89.807C69.5182 86.0096 68.4425 82.2694 67.0453 78.6555C65.2665 74.0554 63.058 69.6146 60.1884 65.5948C59.8339 65.0987 59.4703 64.6117 59.0977 64.1276C58.5959 63.4782 58.1272 62.9731 57.3008 62.7446C56.5827 62.5461 55.6242 62.6363 54.9842 63.0482C54.3442 63.4601 53.7793 64.0795 53.602 64.8462C53.4247 65.6129 53.4247 66.5389 53.9055 67.1643C56.7329 70.8293 59.0075 74.8852 60.8104 79.1426L60.5069 78.424C62.4991 83.1533 63.9323 88.1203 64.8368 93.1713C65.0141 94.1605 65.1703 95.1527 65.3055 96.1479L65.1973 95.3481C65.2454 95.7119 65.3326 96.1028 65.3055 96.4696L65.4137 95.6698C65.3957 95.7871 65.3686 95.8923 65.3235 96.0005L65.627 95.282C65.588 95.3601 65.5489 95.4263 65.5008 95.4954L65.9696 94.8881C65.9005 94.9753 65.8253 95.0505 65.7382 95.1196L66.3452 94.6506C66.255 94.7137 66.1619 94.7648 66.0597 94.8099L66.7779 94.5063C66.6997 94.5333 66.6246 94.5544 66.5405 94.5724L67.3397 94.4642C67.2286 94.4792 67.1204 94.4822 67.0092 94.4702L67.8085 94.5784C67.6913 94.5604 67.5861 94.5303 67.478 94.4822L68.1961 94.7859C68.112 94.7438 68.0368 94.6957 67.9587 94.6416L68.5657 95.1106C66.0327 93.1353 63.4967 91.1569 60.9636 89.1816C60.6001 88.899 60.2365 88.6133 59.8699 88.3307C59.4943 87.9579 59.0526 87.6993 58.5448 87.558C58.013 87.4137 57.4811 87.4137 56.9463 87.558C56.4385 87.7023 55.9968 87.9579 55.6212 88.3307C55.2486 88.7065 54.9902 89.1485 54.849 89.6566C53.7733 92.2333 52.6976 94.8099 51.6219 97.3866C51.4686 97.7504 51.3184 98.1142 51.1651 98.478L51.4686 97.7594C51.4295 97.8466 51.3875 97.9218 51.3334 97.9999L51.8021 97.3926C51.73 97.4858 51.6519 97.564 51.5588 97.6391L52.1657 97.1701C52.0936 97.2182 52.0245 97.2573 51.9464 97.2964L52.6645 96.9927C52.5593 97.0348 52.4572 97.0649 52.346 97.0829L53.1453 96.9747C53.0341 96.9867 52.9259 96.9837 52.8147 96.9747L53.614 97.0829C53.5299 97.0679 53.4517 97.0468 53.3706 97.0198L54.0888 97.3234C53.9806 97.2783 53.8874 97.2242 53.7913 97.1551L54.3982 97.6241C54.3261 97.564 54.269 97.5038 54.209 97.4317L54.6777 98.039C54.0858 97.2272 53.5419 96.3794 52.962 95.5616C52.1507 94.4161 51.3214 93.2826 50.48 92.1581C47.9861 88.8268 45.393 85.5707 42.7188 82.3837C41.8504 81.3494 40.976 80.3241 40.0896 79.3049C39.1431 78.2135 38.1425 77.1582 37.2531 76.0187L37.7218 76.626C37.0127 75.703 36.3877 74.7228 35.922 73.6555L36.2255 74.3741C36.0542 73.9652 35.898 73.5593 35.8379 73.1203L35.946 73.9201C35.922 73.6856 35.922 73.4601 35.946 73.2256L35.8379 74.0253C35.8769 73.7337 35.955 73.4571 36.0662 73.1865L35.7627 73.9051C35.8709 73.6705 36.0001 73.4541 36.1564 73.2466L35.6876 73.8539C35.8499 73.6525 36.0302 73.4721 36.2345 73.3098L35.6275 73.7788C35.8379 73.6224 36.0602 73.4901 36.3006 73.3849L35.5825 73.6886C35.8349 73.5864 36.0903 73.5172 36.3577 73.4751L35.5584 73.5834C35.6996 73.5653 35.8439 73.5563 35.9851 73.5563C37.5566 73.5563 39.062 72.1733 38.9899 70.5497C38.9177 68.9261 37.6708 67.5431 35.9851 67.5431H36.0001Z" fill="#009997"/>
<path d="M65.9905 34.6001C65.9905 34.7805 65.9754 34.9609 65.9514 35.1413L66.0596 34.3415C65.9965 34.7655 65.8763 35.1683 65.711 35.5622L66.0145 34.8436C65.69 35.5893 65.2333 36.2597 64.7375 36.9031L65.2062 36.2958C64.6053 37.0655 63.9502 37.7931 63.3283 38.5478C62.6101 39.4167 61.8589 40.3216 61.3511 41.3379C60.7171 42.6037 60.4287 43.8544 60.3445 45.2675C60.2814 46.3078 60.3716 47.3481 60.4497 48.3853C60.5368 49.5459 60.624 50.7155 60.4767 51.873L60.5849 51.0732C60.5158 51.5573 60.4046 52.0233 60.2153 52.4743L60.5188 51.7557C60.3926 52.0414 60.2394 52.3089 60.0531 52.5585L60.5218 51.9512C60.3115 52.2187 60.0741 52.4533 59.8097 52.6667L60.4166 52.1977C59.999 52.5194 59.5363 52.772 59.0525 52.9824L59.7706 52.6788C57.8386 53.4935 55.7082 53.68 53.7581 54.4466C52.442 54.9638 51.2642 55.5831 50.2606 56.6054C49.4102 57.4713 48.7191 58.5025 48.0761 59.5278C47.4331 60.553 46.8832 61.5212 46.1801 62.4442L46.6488 61.8369C46.2552 62.348 45.8225 62.826 45.3117 63.2229L45.9187 62.7539C45.6302 62.9703 45.3237 63.1567 44.9902 63.3011L45.7084 62.9974C45.4019 63.1237 45.0924 63.2079 44.7649 63.259L45.5641 63.1507C45.1224 63.2049 44.6807 63.1928 44.239 63.1327L45.0383 63.2409C42.7457 62.8982 40.7325 61.5963 38.506 61.0221C36.9555 60.6222 35.4621 60.6011 33.8997 60.9259C32.7579 61.1634 31.6731 61.6234 30.5974 62.0623C29.4196 62.5464 28.2237 63.0515 26.9587 63.2409L27.7579 63.1327C27.3162 63.1928 26.8775 63.2049 26.4328 63.1507L27.2321 63.259C26.9046 63.2109 26.5921 63.1237 26.2886 62.9974L27.0068 63.3011C26.6762 63.1567 26.3697 62.9703 26.0783 62.7539L26.6852 63.2229C26.1744 62.826 25.7417 62.348 25.3481 61.8369L25.8169 62.4442C24.4437 60.6402 23.4942 58.5627 21.9738 56.8609C20.3152 55.0029 17.9474 54.2482 15.6037 53.6769C14.4649 53.4003 13.3111 53.1388 12.2294 52.6818L12.9475 52.9854C12.4637 52.775 12.001 52.5254 11.5833 52.2007L12.1903 52.6697C11.9259 52.4563 11.6885 52.2218 11.4782 51.9542L11.9469 52.5615C11.7606 52.312 11.6074 52.0444 11.4812 51.7587L11.7846 52.4773C11.5954 52.0263 11.4842 51.5573 11.4151 51.0762L11.5232 51.876C11.2588 49.8195 11.7185 47.754 11.6705 45.6914C11.6554 44.9759 11.5653 44.2603 11.4421 43.5567C11.3189 42.8532 11.0695 42.285 10.7991 41.6656C10.3454 40.6313 9.62423 39.7384 8.92712 38.8665C8.23002 37.9945 7.47883 37.1797 6.79375 36.3018L7.26249 36.9092C6.7667 36.2657 6.30998 35.5953 5.98547 34.8496L6.28895 35.5682C6.12369 35.1744 6.0035 34.7715 5.9404 34.3475L6.04857 35.1473C6.0035 34.7835 6.0035 34.4257 6.04857 34.0649L5.9404 34.8647C6.0035 34.4407 6.12369 34.0379 6.28895 33.644L5.98547 34.3626C6.30998 33.6169 6.7667 32.9465 7.26249 32.3031L6.79375 32.9104C7.3947 32.1407 8.04974 31.4131 8.67172 30.6584C9.38986 29.7895 10.141 28.8846 10.6489 27.8683C11.2829 26.6025 11.5713 25.3518 11.6554 23.9387C11.7185 22.8984 11.6284 21.8581 11.5503 20.8209C11.4631 19.6603 11.376 18.4907 11.5232 17.3332L11.4151 18.133C11.4842 17.6489 11.5954 17.1829 11.7846 16.7319L11.4812 17.4505C11.6074 17.1648 11.7606 16.8972 11.9469 16.6477L11.4782 17.255C11.6885 16.9874 11.9259 16.7529 12.1903 16.5395L11.5833 17.0085C12.001 16.6868 12.4637 16.4342 12.9475 16.2238L12.2294 16.5274C14.1614 15.7126 16.2918 15.5262 18.2419 14.7596C19.558 14.2424 20.7358 13.6231 21.7394 12.6008C22.5898 11.7349 23.2809 10.7037 23.9239 9.67841C24.5669 8.65316 25.1168 7.68503 25.8199 6.76201L25.3511 7.36934C25.7448 6.85822 26.1774 6.38017 26.6882 5.9833L26.0813 6.45233C26.3697 6.23585 26.6762 6.04944 27.0098 5.90513L26.2916 6.20879C26.5981 6.08252 26.9076 5.99833 27.2351 5.94722L26.4358 6.05546C26.8775 6.00134 27.3192 6.01336 27.7609 6.0735L26.9617 5.96526C29.2543 6.30801 31.2675 7.60987 33.494 8.18413C35.0445 8.58401 36.5378 8.60505 38.1003 8.28034C39.2421 8.04282 40.3268 7.58281 41.4025 7.14385C42.5804 6.65978 43.7763 6.15467 45.0413 5.96526L44.242 6.0735C44.6837 6.01336 45.1224 6.00134 45.5671 6.05546L44.7679 5.94722C45.0954 5.99533 45.4079 6.08252 45.7114 6.20879L44.9932 5.90513C45.3238 6.04944 45.6302 6.23585 45.9217 6.45233L45.3147 5.9833C45.8255 6.38017 46.2582 6.85822 46.6519 7.36934L46.1831 6.76201C47.5563 8.56597 48.5058 10.6435 50.0262 12.3453C51.6848 14.2033 54.0526 14.958 56.3963 15.5292C57.5351 15.8059 58.6889 16.0674 59.7706 16.5244L59.0525 16.2208C59.5363 16.4312 59.999 16.6808 60.4166 17.0055L59.8097 16.5365C60.0741 16.7499 60.3115 16.9844 60.5218 17.252L60.0531 16.6447C60.2394 16.8942 60.3926 17.1618 60.5188 17.4475L60.2153 16.7289C60.4046 17.1799 60.5158 17.6489 60.5849 18.1299L60.4767 17.3302C60.7412 19.3867 60.2814 21.4522 60.3295 23.5148C60.3445 24.2303 60.4347 24.9459 60.5579 25.6494C60.6811 26.353 60.9305 26.9212 61.2009 27.5406C61.6546 28.5749 62.3758 29.4678 63.0729 30.3397C63.77 31.2117 64.5211 32.0264 65.2062 32.9044L64.7375 32.297C65.2333 32.9404 65.69 33.6109 66.0145 34.3566L65.711 33.638C65.8763 34.0318 65.9965 34.4347 66.0596 34.8587L65.9514 34.0589C65.9754 34.2393 65.9875 34.4197 65.9905 34.6001C65.9995 35.3758 66.318 36.1755 66.8709 36.7258C67.3907 37.2459 68.247 37.6398 68.9952 37.6067C70.6058 37.5345 72.021 36.2838 72 34.6001C71.9579 30.9381 69.1875 28.4937 67.1052 25.8118L67.574 26.4191C67.1143 25.8208 66.6906 25.1955 66.3871 24.5039L66.6906 25.2225C66.4923 24.7475 66.3751 24.2574 66.303 23.7493L66.4111 24.549C66.0446 21.6146 67.0121 18.6741 66.2248 15.7577C65.7411 13.9568 64.5933 12.5046 63.0278 11.5154C61.8439 10.7698 60.4437 10.3429 59.0946 10.0001C57.7454 9.65736 56.3813 9.39278 55.0982 8.85159L55.8164 9.15526C55.3356 8.9478 54.8759 8.69826 54.4612 8.37956L55.0682 8.84859C54.5934 8.46975 54.1878 8.01876 53.8182 7.54072L54.2869 8.14805C53.5568 7.18894 52.9648 6.13664 52.3248 5.12041C51.6007 3.97189 50.8044 2.76925 49.7588 1.88531C48.3616 0.709727 46.733 -0.0449289 44.864 0.00618322C43.3076 0.0482756 41.8503 0.517305 40.423 1.09156C38.9957 1.66582 37.5444 2.34231 35.997 2.5678L36.7962 2.45957C36.2644 2.52872 35.7386 2.52872 35.2037 2.45957L36.003 2.5678C34.6388 2.36937 33.3588 1.81916 32.0938 1.29902C31.4508 1.03444 30.8048 0.772866 30.1467 0.553384C29.3024 0.27377 28.452 0.126447 27.5656 0.030236C26.0212 -0.135127 24.3355 0.315863 23.0795 1.22987C21.8235 2.14387 20.8109 3.37057 19.9305 4.71451C19.1854 5.85401 18.5363 7.05966 17.71 8.14504L18.1788 7.53771C17.8092 8.01876 17.4035 8.46675 16.9288 8.84558L17.5358 8.37655C17.1181 8.69525 16.6614 8.9448 16.1806 9.15225L16.8987 8.84859C14.4439 9.88286 11.7306 10.0242 9.34779 11.2929C8.67773 11.6477 8.0257 12.1258 7.50287 12.673C6.75769 13.4517 6.29796 14.2995 5.91936 15.2977C5.37851 16.7199 5.38752 18.3675 5.47466 19.8678C5.5618 21.3681 5.78114 22.9916 5.58583 24.546L5.69401 23.7463C5.62189 24.2544 5.50471 24.7445 5.30639 25.2195L5.60987 24.5009C5.30639 25.1955 4.88272 25.8208 4.42299 26.4161L4.89174 25.8088C4.20064 26.6988 3.43443 27.5286 2.73132 28.4095C1.75777 29.6272 0.961513 30.7847 0.405633 32.2489C-0.61298 34.9368 0.405633 37.769 2.07027 39.9338C2.9747 41.1124 3.97829 42.2098 4.88873 43.3824L4.41999 42.775C4.87972 43.3733 5.30339 43.9987 5.60687 44.6902L5.30339 43.9717C5.5017 44.4467 5.61889 44.9368 5.691 45.4449L5.58283 44.6451C5.94941 47.5796 4.98188 50.52 5.76913 53.4364C6.25289 55.2374 7.40071 56.6896 8.96619 57.6787C10.1501 58.4244 11.5503 58.8513 12.8994 59.1941C14.2486 59.5368 15.6127 59.8014 16.8957 60.3426L16.1776 60.0389C16.6584 60.2464 17.1181 60.4959 17.5328 60.8146L16.9258 60.3456C17.4005 60.7244 17.8062 61.1754 18.1758 61.6535L17.707 61.0461C18.4372 62.0052 19.0291 63.0575 19.6691 64.0738C20.3933 65.2223 21.1895 66.4249 22.2352 67.3089C23.6324 68.4874 25.264 69.2421 27.1299 69.194C28.6864 69.1519 30.1437 68.6829 31.571 68.1086C32.9982 67.5344 34.4495 66.8579 35.997 66.6324L35.1977 66.7406C35.7296 66.6715 36.2554 66.6715 36.7902 66.7406L35.991 66.6324C37.3551 66.8308 38.6352 67.381 39.9002 67.9012C40.5432 68.1657 41.1892 68.4273 41.8472 68.6468C42.6916 68.9264 43.5419 69.0737 44.4283 69.1699C45.9728 69.3353 47.6584 68.8843 48.9144 67.9703C50.1704 67.0563 51.183 65.8296 52.0634 64.4857C52.8086 63.3462 53.4576 62.1405 54.2839 61.0551L53.8152 61.6625C54.1848 61.1814 54.5904 60.7334 55.0652 60.3546L54.4582 60.8236C54.8759 60.5049 55.3326 60.2554 55.8134 60.0479L55.0952 60.3516C57.5501 59.3173 60.2634 59.176 62.6462 57.9072C63.3162 57.5525 63.9683 57.0744 64.4911 56.5272C65.2363 55.7485 65.696 54.9006 66.0746 53.9024C66.6155 52.4803 66.6064 50.8327 66.5193 49.3324C66.4322 47.8321 66.2128 46.2086 66.4081 44.6542L66.3 45.4539C66.3721 44.9458 66.4893 44.4557 66.6876 43.9807L66.3841 44.6992C66.6876 44.0047 67.1112 43.3794 67.571 42.784L67.1022 43.3914C69.1845 40.7125 71.9519 38.2681 71.997 34.6031C72.015 33.0306 70.6028 31.5243 68.9922 31.5965C67.3817 31.6687 66.0085 32.9164 65.9875 34.6031L65.9905 34.6001Z" fill="#009997"/>
<path d="M51.739 34.5997C51.739 35.4385 51.6819 36.2714 51.5737 37.1012L51.6819 36.3014C51.4595 37.943 51.0239 39.5455 50.3838 41.0759L50.6873 40.3573C50.0533 41.8486 49.236 43.2497 48.2505 44.5335L48.7192 43.9262C47.7336 45.1979 46.5948 46.3374 45.3238 47.3236L45.9308 46.8546C44.6478 47.8407 43.2475 48.6615 41.7572 49.2929L42.4753 48.9893C40.9459 49.6297 39.3444 50.0656 37.7038 50.2881L38.503 50.1799C36.8414 50.3963 35.1617 50.3963 33.5001 50.1799L34.2994 50.2881C32.6588 50.0656 31.0572 49.6297 29.5278 48.9893L30.246 49.2929C28.7556 48.6585 27.3554 47.8407 26.0723 46.8546L26.6793 47.3236C25.4083 46.3374 24.2695 45.1979 23.2839 43.9262L23.7527 44.5335C22.7671 43.2497 21.9468 41.8486 21.3158 40.3573L21.6193 41.0759C20.9793 39.5455 20.5436 37.943 20.3212 36.3014L20.4294 37.1012C20.2131 35.4385 20.2131 33.7578 20.4294 32.0952L20.3212 32.8949C20.5436 31.2533 20.9793 29.6508 21.6193 28.1205L21.3158 28.839C21.9498 27.3478 22.7671 25.9467 23.7527 24.6629L23.2839 25.2702C24.2695 23.9984 25.4083 22.8589 26.6793 21.8728L26.0723 22.3418C27.3554 21.3556 28.7556 20.5348 30.246 19.9034L29.5278 20.2071C31.0572 19.5667 32.6588 19.1307 34.2994 18.9083L33.5001 19.0165C35.1617 18.8 36.8414 18.8 38.503 19.0165L37.7038 18.9083C39.3444 19.1307 40.9459 19.5667 42.4753 20.2071L41.7572 19.9034C43.2475 20.5378 44.6478 21.3556 45.9308 22.3418L45.3238 21.8728C46.5948 22.8589 47.7336 23.9984 48.7192 25.2702L48.2505 24.6629C49.236 25.9467 50.0563 27.3478 50.6873 28.839L50.3838 28.1205C51.0239 29.6508 51.4595 31.2533 51.6819 32.8949L51.5737 32.0952C51.6819 32.925 51.736 33.7608 51.739 34.5967C51.742 36.1691 53.1182 37.6754 54.7437 37.6033C56.3693 37.5311 57.7545 36.2834 57.7485 34.5967C57.7365 30.2101 56.4084 25.7573 53.8483 22.1794C53.1663 21.2263 52.4331 20.3003 51.6188 19.4555C50.8045 18.6106 49.8971 17.868 48.9626 17.1494C47.2379 15.8265 45.3148 14.8463 43.2806 14.0947C39.104 12.5553 34.3264 12.4411 30.0567 13.6587C25.7869 14.8764 22.1181 17.2546 19.4018 20.5559C18.6566 21.4639 17.9475 22.4079 17.3405 23.4151C16.7336 24.4224 16.2228 25.5408 15.766 26.6593C14.9217 28.7188 14.483 30.9106 14.3087 33.1265C13.9692 37.5131 15.09 42.0621 17.3646 45.8203C19.6392 49.5786 22.8753 52.525 26.7544 54.2839C27.8572 54.783 28.987 55.237 30.1528 55.5617C31.3187 55.8864 32.5386 56.0788 33.7555 56.2231C36.0061 56.4907 38.2957 56.3284 40.5132 55.8804C44.7289 55.0325 48.7222 52.7746 51.6879 49.6657C54.6536 46.5569 56.772 42.5161 57.424 38.2527C57.6103 37.038 57.7455 35.8234 57.7485 34.5937C57.7515 33.0212 56.3633 31.5149 54.7437 31.5871C53.1242 31.6592 51.745 32.907 51.739 34.5937V34.5997Z" fill="#009997"/>
</g>
<defs>
<clipPath id="clip0_2240_32532">
<rect width="72" height="103" fill="white"/>
</clipPath>
</defs>
</svg>
