<svg width="82" height="114" viewBox="0 0 82 114" fill="none" xmlns="http://www.w3.org/2000/svg">
<g clip-path="url(#clip0_2240_32560)">
<path d="M81.9998 39.7229V2.95689C81.9998 1.35721 80.6467 0 79.0455 0C77.976 0 76.9066 0 75.8371 0C73.1605 0 70.4809 0 67.8043 0H57.1717C53.5586 0 49.9455 0 46.3324 0H37.4842C35.9893 0 34.4974 0 33.0025 0C31.9744 0 30.9492 0 29.9211 0H20.5264C16.9458 0 13.3622 0 9.78155 0H2.9689C1.37061 0 0.014582 1.35426 0.014582 2.95689C0.014582 4.08051 0.014582 5.20413 0.014582 6.32775C0.014582 9.29942 0.014582 12.2741 0.014582 15.2457C0.014582 19.551 0.014582 23.8592 0.014582 28.1644C0.014582 33.1941 0.014582 38.2237 0.014582 43.2534C0.014582 48.2831 0.014582 53.7859 0.014582 59.0521C0.014582 63.931 0.014582 68.8098 0.014582 73.6887V85.6966C0.014582 88.2189 0.014582 90.7381 0.014582 93.2604C0.014582 94.3307 0.014582 95.4011 0.014582 96.4715C0.014582 100.939 0.014582 105.407 0.0116277 109.878C0.0116277 110.262 0.0116277 110.65 0.00867338 111.034C-0.0179155 112.634 1.38243 113.991 2.96299 113.991H75.9523C76.942 113.991 77.9317 114.006 78.9214 113.991C78.9657 113.991 79.01 113.991 79.0514 113.991C80.6497 113.991 82.0057 112.637 82.0057 111.034C82.0057 107.687 82.0057 104.34 82.0057 100.99C82.0057 95.1143 82.0057 89.239 82.0057 83.3636C82.0057 81.4062 82.0057 79.4517 82.0057 77.4942C82.0057 77.098 82.0057 76.7018 82.0057 76.3055C81.9968 74.5462 81.5803 72.8667 80.7619 71.3113C78.8151 67.6093 74.812 65.4212 71.2402 63.5761C69.4558 62.6565 67.6861 61.7192 65.9313 60.7464C65.5354 60.5276 66.4069 61.184 66.3065 61.0421C66.2592 60.9741 66.1735 60.912 66.1144 60.8499C65.7127 60.4389 66.5369 61.456 66.3449 61.1603C66.2681 61.045 66.1854 60.9327 66.1115 60.8144C65.9579 60.566 65.822 60.3058 65.6979 60.0426C65.5738 59.7795 65.4143 59.2118 65.7836 60.2614C65.7215 60.084 65.6447 59.9096 65.5827 59.7322C65.3434 59.0462 65.1602 58.3395 65.0361 57.6209C65.0184 57.5115 65.0007 57.4021 64.983 57.2957C64.915 56.8758 65.045 57.7924 65.045 57.751C65.045 57.547 65.0007 57.3371 64.9859 57.136C64.9564 56.7161 64.9445 56.2963 64.9564 55.8764C64.9623 55.6635 64.9741 55.4535 64.9948 55.2406C65.0007 55.1638 65.0095 55.0869 65.0184 55.01C65.0657 54.5044 64.8855 55.8379 64.9741 55.3353C65.0479 54.9124 65.1336 54.4985 65.2577 54.0875C65.3138 53.9012 65.3818 53.7178 65.4468 53.5345C65.6152 53.0614 65.1129 54.2619 65.3286 53.8066C65.3611 53.7356 65.3936 53.6646 65.4291 53.5937C65.624 53.1945 65.8722 52.8456 66.1056 52.47C65.559 53.3394 65.9431 52.677 66.1499 52.4523C66.3065 52.2808 66.4719 52.1182 66.6433 51.9644C66.7083 51.9082 66.7733 51.852 66.8383 51.7959C67.2341 51.444 66.2149 52.2364 66.6551 51.9348C66.8855 51.7752 67.1278 51.6332 67.3612 51.4795C67.757 51.2193 67.0953 51.5652 67.0776 51.5771C67.1869 51.5031 67.3819 51.4677 67.5089 51.4351C67.6182 51.4056 68.1175 51.3287 67.5532 51.4056C66.9889 51.4824 67.4823 51.4263 67.5975 51.4263C67.7127 51.4263 68.1972 51.4824 67.6389 51.3996C67.0805 51.3168 67.565 51.3937 67.6743 51.4174C67.7482 51.4351 68.0436 51.4795 68.0879 51.5416L67.6507 51.3523C67.7393 51.3937 67.825 51.4351 67.9107 51.4824C67.9964 51.5297 68.2297 51.6273 68.28 51.716C68.2859 51.7249 67.698 51.1867 68.0259 51.5327C68.1293 51.6391 68.2356 51.7486 68.342 51.852C68.6788 52.1891 68.1588 51.6125 68.1618 51.6125C68.2593 51.6717 68.3627 51.9319 68.4188 52.0295C68.475 52.127 68.6433 52.612 68.4897 52.13C68.3302 51.6244 68.4986 52.1655 68.5252 52.2483C68.5902 52.4346 68.6433 52.6268 68.6906 52.819C68.7231 52.9579 68.7497 53.0969 68.7792 53.2359C68.9181 53.8509 68.732 52.4996 68.7674 53.1294C68.7822 53.4162 68.8058 53.7001 68.8058 53.9899C68.8058 54.2797 68.7822 54.5576 68.7645 54.8444C68.732 55.4476 68.8679 54.2412 68.7999 54.6434C68.7733 54.8001 68.7497 54.9568 68.7172 55.1135C68.6168 55.6043 68.4572 56.0745 68.28 56.5417C68.0761 57.0769 68.6286 55.7611 68.3922 56.2785C68.3302 56.4175 68.2652 56.5594 68.2002 56.6984C68.0525 57.0059 67.893 57.3075 67.7275 57.6062C67.3907 58.2094 67.0214 58.7919 66.6285 59.3596C66.4247 59.6523 66.2179 59.9421 66.0022 60.226C65.5975 60.7641 66.5015 59.5961 66.0229 60.1964C65.8811 60.3738 65.7393 60.5512 65.5915 60.7257C64.4719 62.0711 63.2429 63.3189 61.9282 64.475C61.5796 64.7796 61.228 65.0812 60.8676 65.371C60.6815 65.5247 60.4924 65.7021 60.2885 65.8322C60.2885 65.8322 60.9208 65.3503 60.5633 65.6193C60.4185 65.7287 60.2738 65.8381 60.1261 65.9475C59.3432 66.5271 58.5337 67.0712 57.7065 67.5827C56.8793 68.0943 55.9782 68.5969 55.083 69.0464C54.6044 69.2859 54.1229 69.5136 53.6325 69.7265C53.5438 69.7649 53.4523 69.8033 53.3636 69.8418C54.2381 69.4544 53.7211 69.691 53.5261 69.7708C53.2514 69.8832 52.9766 69.9896 52.6989 70.0931C51.7181 70.4598 50.7166 70.7762 49.7032 71.0364C49.1892 71.1694 48.6692 71.2847 48.1463 71.3882C47.8952 71.4385 47.6441 71.4828 47.393 71.5272C47.2659 71.5479 47.1389 71.5686 47.0118 71.5893C46.9114 71.6041 46.808 71.6189 46.7076 71.6337C47.2127 71.5686 47.3457 71.5479 47.1093 71.5804C44.8641 71.8495 42.6572 71.8229 40.4119 71.5863C41.4932 71.7017 40.4769 71.5863 40.2228 71.5449C39.951 71.4976 39.6792 71.4444 39.4104 71.3882C38.8727 71.2759 38.3409 71.1428 37.8121 70.992C37.3365 70.856 36.8638 70.7052 36.397 70.5396C36.1636 70.4568 35.9332 70.3711 35.7027 70.2823C35.5698 70.2291 35.4191 70.1848 35.2921 70.1168L35.7264 70.3001C35.6348 70.2617 35.5461 70.2232 35.4575 70.1818C34.4974 69.759 33.5667 69.2681 32.6716 68.7211C32.2373 68.455 31.8119 68.1741 31.3953 67.8814C31.1974 67.7424 31.0024 67.5975 30.8074 67.4526C30.3702 67.1303 31.2978 67.8429 31.0024 67.6034C30.8695 67.497 30.7365 67.3935 30.6065 67.2841C29.8266 66.6395 29.0851 65.9416 28.3967 65.1995C28.051 64.8298 27.7202 64.4454 27.4011 64.0551C27.3243 63.9605 27.2534 63.8629 27.1766 63.7742C27.7792 64.478 27.4159 64.0877 27.2859 63.9132C27.1116 63.6826 26.9432 63.446 26.7807 63.2065C26.2046 62.3697 25.6876 61.4945 25.2297 60.5837C25.1204 60.3679 25.014 60.1491 24.9136 59.9273C24.8515 59.7943 24.7954 59.6612 24.7333 59.5281C24.5413 59.1053 24.8545 59.8209 24.8604 59.8297C24.6063 59.3419 24.4438 58.7653 24.2754 58.2448C23.9445 57.2306 23.6875 56.1928 23.5103 55.1401C23.4659 54.8858 23.3832 53.9692 23.4807 55.0307C23.4571 54.7794 23.4216 54.528 23.398 54.2737C23.3448 53.7149 23.3153 53.1531 23.3035 52.5913C23.2916 52.062 23.3035 51.5357 23.3271 51.0064C23.3507 50.4771 23.333 49.8236 23.4748 49.3032C23.4748 49.3062 23.3566 50.1193 23.4275 49.6521C23.4512 49.5072 23.4719 49.3623 23.4955 49.2175C23.5339 48.9779 23.5782 48.7384 23.6255 48.4989C23.7289 47.9756 23.85 47.4581 23.9918 46.9466C24.1188 46.4853 24.2607 46.024 24.4143 45.5716C24.4911 45.3469 24.5738 45.1222 24.6565 44.8974C24.7068 44.7644 24.7599 44.6313 24.8131 44.4983C24.8486 44.4096 24.884 44.3208 24.9224 44.2351L24.7363 44.6786C24.8692 44.2026 25.1765 43.7058 25.404 43.2682C25.6433 42.8069 25.8944 42.3545 26.1662 41.9139C26.4114 41.5118 26.6655 41.1185 26.9343 40.7341C27.0673 40.5419 27.2061 40.3527 27.345 40.1635C27.4749 39.989 27.8295 39.5928 27.2238 40.3143C27.3125 40.2078 27.3981 40.0925 27.4868 39.986C28.1219 39.2054 28.8073 38.4692 29.54 37.7802C29.8975 37.4431 30.2668 37.1179 30.6449 36.8074C30.837 36.6507 31.5371 36.145 30.707 36.7453C30.9345 36.5797 31.156 36.4082 31.3865 36.2456C32.193 35.6749 33.035 35.1574 33.9095 34.6991C34.3703 34.4567 34.8401 34.2378 35.3128 34.022C35.493 33.9392 35.8209 33.8298 34.9996 34.1521C35.1325 34.0989 35.2625 34.0427 35.3955 33.9924C35.6614 33.886 35.9302 33.7884 36.199 33.6938C37.1533 33.3596 38.1282 33.0876 39.1179 32.8836C39.5965 32.786 40.0781 32.715 40.5596 32.6352C39.4754 32.8126 40.468 32.653 40.728 32.6293C41.0234 32.5997 41.3218 32.579 41.6173 32.5613C42.7724 32.4962 43.9334 32.5199 45.0827 32.6293C45.3161 32.653 46.2969 32.8363 45.2895 32.6411C45.5583 32.6943 45.8331 32.7239 46.1049 32.7712C46.6957 32.8777 47.2836 33.0078 47.8627 33.1586C48.4122 33.3035 48.9528 33.4691 49.4905 33.6553C49.7682 33.7529 50.0459 33.8535 50.3207 33.9629C50.4211 34.0013 50.5186 34.0427 50.6191 34.0811C51.1036 34.2763 49.9189 33.7707 50.6486 34.0989C51.6649 34.5572 52.6487 35.0924 53.5852 35.6956C54.0313 35.9824 54.4597 36.2899 54.8851 36.6004C55.3666 36.9493 54.3267 36.148 54.7876 36.5235C54.891 36.6063 54.9944 36.6891 55.0949 36.7719C55.3401 36.973 55.5794 37.177 55.8157 37.3899C56.6222 38.1084 57.3756 38.8861 58.0699 39.714C58.2382 39.9151 58.3948 40.1309 58.5691 40.329C57.931 39.5928 58.5366 40.2936 58.6755 40.4917C58.8912 40.7903 59.092 41.0949 59.29 41.4053C59.4436 40.2108 59.5972 39.0162 59.7509 37.8216C57.1451 40.2049 54.5394 42.5851 51.9337 44.9684C47.7977 48.7503 43.6617 52.5292 39.5286 56.311C38.5802 57.1804 37.6289 58.0467 36.6806 58.9161H40.858C39.0263 56.5683 37.1946 54.2205 35.363 51.8727C34.9316 51.3168 33.939 51.0064 33.2743 51.0064C32.5505 51.0064 31.6849 51.3287 31.1856 51.8727C30.6863 52.4168 30.2845 53.1767 30.32 53.9633C30.3584 54.8001 30.6745 55.4003 31.1856 56.0538C33.0172 58.4016 34.8489 60.7493 36.6806 63.0971C37.0942 63.6293 38.1223 63.993 38.7693 63.9635C39.5729 63.928 40.2583 63.6441 40.858 63.0971C43.4637 60.7138 46.0694 58.3336 48.6751 55.9503C52.8112 52.1684 56.9472 48.3895 61.0803 44.6077C62.0286 43.7383 62.9799 42.872 63.9283 42.0026C64.8766 41.1333 65.0716 39.4804 64.3891 38.4189C61.7627 34.3206 57.9428 30.9025 53.4818 28.9302C48.5274 26.7392 43.1565 26.1005 37.8298 27.1236C28.6537 28.8859 21.0404 36.0356 18.4111 44.9625C17.0492 49.59 17.0344 54.7114 18.4229 59.333C19.779 63.8452 22.429 68.0085 25.9889 71.0984C29.5725 74.2121 33.9626 76.4356 38.6541 77.2517C43.5848 78.1092 48.6899 77.716 53.4316 76.1045C57.8394 74.6053 61.8366 72.2457 65.4025 69.2681C68.1913 66.9411 70.735 64.1468 72.5874 61.0125C73.3141 59.7824 73.967 58.44 74.3245 57.0562C75.0306 54.3447 74.8533 51.0271 73.258 48.6468C71.2727 45.6899 67.3582 44.6224 64.2326 46.4646C62.0375 47.7568 60.4924 49.8118 59.6563 52.195C59.03 53.984 58.9059 56.0006 59.1393 57.8723C59.3816 59.815 59.8454 61.6689 60.7701 63.4105C61.1039 64.0404 61.5353 64.6613 62.0405 65.164C62.7229 65.8411 63.6387 66.2846 64.4719 66.74C66.3419 67.7572 68.2682 68.6679 70.1323 69.6969C71.0186 70.1877 71.8931 70.7022 72.7321 71.2759C72.9153 71.4001 73.0985 71.5302 73.2757 71.6603C73.3821 71.7371 73.4855 71.8199 73.5918 71.8968C72.8532 71.3616 73.1841 71.5745 73.3525 71.7164C73.7277 72.0299 74.097 72.3463 74.4397 72.6922C74.5845 72.8371 74.7263 72.9879 74.8651 73.1417C75.0542 73.3546 75.5476 74.0967 74.9419 73.2008C75.1872 73.5645 75.4412 73.9193 75.6451 74.3096C75.7012 74.4161 75.7514 74.5225 75.8046 74.629C76.0321 75.0814 75.521 73.8838 75.6953 74.3599C75.7632 74.5491 75.8342 74.7354 75.8903 74.9276C75.9464 75.1198 75.9966 75.3209 76.038 75.519C76.0616 75.6402 76.0794 75.7644 76.103 75.8857C75.8962 74.8922 76.0409 75.3948 76.0616 75.6668C76.1443 76.7846 76.0823 77.9259 76.0823 79.0466C76.0823 84.6499 76.0823 90.2561 76.0823 95.8595C76.0823 100.661 76.0823 105.463 76.0823 110.265C76.0823 110.526 76.0823 110.783 76.0823 111.043L79.0366 108.086H6.05616C5.06646 108.086 4.07677 108.063 3.08707 108.086C3.04276 108.086 2.99844 108.086 2.95708 108.086L5.9114 111.043C5.97344 107.155 5.91731 103.264 5.91731 99.3752C5.91731 97.675 5.91731 95.9777 5.91731 94.2775C5.91731 92.1781 5.91731 90.0787 5.91731 87.9793C5.91731 84.3039 5.91731 80.6315 5.91731 76.9561C5.91731 72.2132 5.91731 67.4703 5.91731 62.7275C5.91731 57.5322 5.91731 52.334 5.91731 47.1388C5.91731 41.976 5.91731 36.8103 5.91731 31.6476C5.91731 27.1383 5.91731 22.6261 5.91731 18.1169V8.02205C5.91731 6.40463 5.93799 4.78721 5.91731 3.16979C5.91731 3.09882 5.91731 3.02786 5.91731 2.95393L2.96299 5.91083C4.51105 5.91083 6.05911 5.91083 7.60717 5.91083H17.7818C21.2059 5.91083 24.627 5.91083 28.051 5.91083C29.6405 5.91083 31.2269 5.91083 32.8164 5.91083C33.8474 5.91083 34.8785 5.91083 35.9095 5.91083H43.8714C47.4048 5.91083 50.9411 5.91083 54.4744 5.91083C58.0935 5.91083 61.7125 5.91083 65.3316 5.91083H74.2418C75.7721 5.91083 77.2995 5.92857 78.8298 5.91083C78.9007 5.91083 78.9716 5.91083 79.0425 5.91083L76.0882 2.95393V39.7199C76.0882 41.2664 77.4472 42.7478 79.0425 42.6768C80.6379 42.6058 81.9968 41.3787 81.9968 39.7199L81.9998 39.7229Z" fill="#009997"/>
</g>
<defs>
<clipPath id="clip0_2240_32560">
<rect width="82" height="114" fill="white"/>
</clipPath>
</defs>
</svg>
