<svg width="95" height="97" viewBox="0 0 95 97" fill="none" xmlns="http://www.w3.org/2000/svg">
<g clip-path="url(#clip0_2240_32555)">
<path d="M88.0815 89.9532C87.8779 90.1608 87.6596 90.3534 87.4324 90.5309L88.0284 90.0615C87.6065 90.3835 87.1581 90.6513 86.6772 90.8649L87.3823 90.561C86.8453 90.7897 86.2877 90.9462 85.7124 91.0304L86.4972 90.9221C85.9248 90.9943 85.3495 90.9943 84.7772 90.9221L85.5619 91.0304C84.9866 90.9462 84.429 90.7897 83.8921 90.558L84.5972 90.8619C84.1163 90.6453 83.6678 90.3775 83.2459 90.0555L83.8419 90.5249C83.3374 90.1247 82.8978 89.6433 82.4494 89.1829L80.1865 86.869C77.6404 84.2663 75.0942 81.6665 72.5481 79.0638L63.1484 69.4592C60.443 66.6939 57.7346 63.9257 55.0292 61.1604C53.7045 59.8064 52.4034 58.4283 51.0551 57.1013C51.0374 57.0833 51.0197 57.0652 51.002 57.0472V61.3019C52.0258 60.2608 53.0495 59.2166 54.0762 58.1755L58.9472 53.2198C59.3219 52.8376 59.6995 52.4555 60.0742 52.0734H55.9025C56.9911 53.1867 58.0827 54.3 59.1714 55.4133L66.9455 63.357C70.0817 66.5615 73.2178 69.7661 76.3511 72.9706C79.0182 75.6967 81.6852 78.4199 84.3494 81.146C85.5885 82.4128 86.8365 83.6735 88.0697 84.9493C88.2792 85.166 88.4768 85.3946 88.6598 85.6354L88.1995 85.0275C88.5152 85.4578 88.7778 85.9152 88.9872 86.4056L88.6893 85.6865C88.9135 86.2341 89.0669 86.8028 89.1495 87.3896L89.0433 86.5892C89.1141 87.1729 89.1141 87.7597 89.0433 88.3434L89.1495 87.543C89.0669 88.1298 88.9135 88.6985 88.6863 89.2461L88.9843 88.527C88.7719 89.0174 88.5093 89.4748 88.1936 89.9051L88.6539 89.2973C88.4768 89.5289 88.288 89.7486 88.0844 89.9592C86.9987 91.0816 86.9043 93.1096 88.0844 94.2139C89.2646 95.3182 91.0997 95.4115 92.2562 94.2139C93.9674 92.4416 94.9587 90.0615 95 87.5701C95.0413 85.0787 94.0765 82.7227 92.4539 80.9173C92.0733 80.493 91.6602 80.0989 91.2619 79.6926L88.468 76.8371C87.1049 75.444 85.7419 74.0508 84.3759 72.6577L79.4784 67.6538L74.2681 62.3309C72.5835 60.6098 70.8989 58.8857 69.2143 57.1645L64.8596 52.7143L61.6703 49.4556C61.1599 48.935 60.6554 48.4054 60.1391 47.8909C60.1155 47.8698 60.0949 47.8458 60.0742 47.8217C58.9472 46.6693 57.0324 46.6723 55.9025 47.8217C54.8787 48.8628 53.8549 49.9069 52.8282 50.948L47.9573 55.9038C47.5826 56.2859 47.2049 56.6681 46.8303 57.0502C45.7003 58.1996 45.7032 60.1524 46.8303 61.3049C47.1813 61.6629 47.5324 62.021 47.8835 62.3821L50.7335 65.2948C52.1084 66.6999 53.4803 68.1021 54.8551 69.5073C56.4925 71.1803 58.1299 72.8533 59.7674 74.5293C61.5051 76.3046 63.2428 78.0798 64.9776 79.8551L70.0197 85.0065C71.4624 86.4809 72.9051 87.9553 74.3478 89.4297L77.4958 92.6462C77.9885 93.1487 78.4782 93.6512 78.9709 94.1537C80.039 95.24 81.2899 96.0073 82.706 96.5188C83.7062 96.8829 84.8332 97.0423 85.8894 97.0002C87.2584 96.946 88.4621 96.6091 89.7012 96.0464C90.6483 95.6191 91.5245 94.9571 92.2532 94.2139C93.3478 93.1006 93.4275 91.0575 92.2532 89.9592C91.079 88.861 89.2469 88.7707 88.0815 89.9592V89.9532Z" fill="#009997"/>
<path d="M58.9618 29.4337C58.9883 29.6112 59.0149 29.7917 59.0385 29.9693L58.9323 29.1689C59.2775 31.8258 59.2775 34.5158 58.9323 37.1697L59.0385 36.3693C58.6845 39.0293 57.9911 41.632 56.9733 44.1084L57.2713 43.3892C56.2682 45.8054 54.97 48.0802 53.4005 50.1594L53.8607 49.5516C52.3206 51.5766 50.5357 53.3941 48.5472 54.9617L49.1432 54.4923C47.1045 56.0871 44.8741 57.405 42.5109 58.425L43.216 58.1211C40.8174 59.1442 38.3008 59.8483 35.7251 60.2094L36.5099 60.101C33.9107 60.4561 31.2761 60.4561 28.6739 60.107L29.4587 60.2154C26.8241 59.8543 24.2455 59.1352 21.7938 58.082L22.4989 58.3859C20.1623 57.3719 17.9613 56.063 15.9492 54.4863L16.5452 54.9557C14.5537 53.385 12.7658 51.5616 11.2228 49.5305L11.6831 50.1384C10.1135 48.0561 8.81242 45.7723 7.80931 43.3531L8.10729 44.0723C7.10419 41.626 6.41382 39.0593 6.05978 36.4325L6.16599 37.2329C5.81785 34.582 5.81785 31.895 6.16009 29.2411L6.05388 30.0415C6.40792 27.3545 7.11304 24.7246 8.14565 22.2242L7.84767 22.9433C8.84192 20.5602 10.1253 18.3155 11.6713 16.2634L11.211 16.8712C12.7511 14.8402 14.539 13.0167 16.5304 11.4431L15.9345 11.9125C17.9731 10.3147 20.2065 8.99376 22.5727 7.97071L21.8675 8.27462C24.2956 7.23653 26.8447 6.52942 29.4528 6.17135L28.668 6.27968C31.2436 5.93665 33.8488 5.93966 36.4214 6.28569L35.6366 6.17737C38.2595 6.53845 40.8262 7.25157 43.2661 8.29568L42.561 7.99178C44.4197 8.79517 46.1929 9.78512 47.8598 10.9496L47.2638 10.4802C48.3849 11.4792 49.4441 12.5564 50.3587 13.757L49.8984 13.1491C50.5357 13.9947 51.0963 14.9004 51.5123 15.8813L51.2143 15.1621C51.4946 15.8392 51.6981 16.5402 51.7955 17.2684L51.6893 16.468C51.7571 17.0157 51.7601 17.5663 51.6893 18.1139L51.7955 17.3136C51.7217 17.8702 51.5742 18.4058 51.3618 18.9233L51.6598 18.2042C51.4267 18.7518 51.1287 19.2604 50.7747 19.7328L51.2349 19.1249C50.754 19.7598 50.1876 20.3165 49.568 20.807L50.164 20.3376C49.2995 21.0176 48.3436 21.5652 47.3405 22.0015L48.0457 21.6976C47.0248 22.1339 45.9539 22.4619 44.8534 22.6153L45.6382 22.507C45.0629 22.5853 44.4758 22.6184 43.8946 22.5401L44.6793 22.6484C44.3047 22.5943 43.9418 22.501 43.5907 22.3566L44.2958 22.6605C44.0273 22.5431 43.7766 22.3987 43.5405 22.2182L44.1365 22.6876C43.9034 22.504 43.6998 22.2964 43.514 22.0617L43.9742 22.6695C43.7205 22.3325 43.5199 21.9654 43.3576 21.5742L43.6556 22.2934C43.4786 21.842 43.3399 21.3787 43.275 20.8972L43.3812 21.6976C43.3399 21.3606 43.337 21.0236 43.3753 20.6866L43.2691 21.487C43.3104 21.1771 43.3871 20.8762 43.5022 20.5843L43.2042 21.3034C43.3281 21.0025 43.4874 20.7257 43.6821 20.4639L43.2219 21.0717C43.4343 20.7979 43.6762 20.5542 43.9477 20.3406L43.3517 20.81C43.6674 20.5662 44.0096 20.3707 44.3755 20.2112L43.6703 20.5151C44.0686 20.3496 44.4787 20.2383 44.9036 20.1751L44.1188 20.2834C44.5761 20.2232 45.0304 20.2232 45.4877 20.2834L44.7029 20.1751C45.116 20.2383 45.5143 20.3496 45.8978 20.5151L45.1927 20.2112C45.5379 20.3676 45.8595 20.5602 46.1604 20.7949L45.5644 20.3255C45.8565 20.5632 46.1161 20.831 46.3463 21.1289L45.886 20.5211C46.0394 20.7257 46.1663 20.9303 46.2637 21.165L45.9657 20.4459C46.1516 20.9063 46.246 21.3997 46.3138 21.8932L46.2076 21.0928C46.5616 23.852 46.1929 26.7406 45.8329 29.4788L45.9391 28.6784C45.6175 31.1187 45.2311 33.565 44.6793 35.9631C44.4846 36.8116 44.2161 37.6421 43.8887 38.4485L44.1866 37.7294C43.6585 39.0022 42.9741 40.1997 42.148 41.295L42.6082 40.6872C41.8087 41.7343 40.8882 42.6731 39.8585 43.4885L40.4545 43.0191C39.3924 43.8496 38.2359 44.5357 37.0026 45.0652L37.7078 44.7613C36.4421 45.2969 35.1144 45.667 33.7573 45.8536L34.5421 45.7453C33.2026 45.9198 31.8514 45.9138 30.512 45.7332L31.2967 45.8415C29.9455 45.649 28.6297 45.2789 27.3728 44.7433L28.0779 45.0472C26.827 44.5026 25.6528 43.8045 24.5759 42.9559L25.1719 43.4254C24.1452 42.6069 23.2247 41.6681 22.4252 40.621L22.8854 41.2288C22.0977 40.1787 21.4427 39.0383 20.9323 37.8227L21.2303 38.5418C20.6992 37.2509 20.3304 35.8969 20.1387 34.5098L20.2449 35.3102C20.062 33.911 20.059 32.4998 20.2419 31.1006L20.1357 31.901C20.3216 30.5319 20.6786 29.196 21.2008 27.9171L20.9028 28.6363C21.4309 27.3665 22.1124 26.175 22.9385 25.0827L22.4783 25.6905C23.2778 24.6434 24.1983 23.7076 25.2279 22.8922L24.632 23.3616C25.6675 22.5522 26.7916 21.8812 27.9894 21.3576L27.2843 21.6615C28.5647 21.1109 29.9042 20.7347 31.279 20.5392L30.4942 20.6475C31.4354 20.5211 32.3765 20.482 33.3236 20.5271C34.8666 20.5993 36.3418 19.0918 36.2739 17.5182C36.2001 15.8241 34.9787 14.5874 33.3236 14.5092C26.7592 14.1963 20.4337 17.6837 16.9612 23.3345C13.9224 28.2812 13.3323 34.7415 15.5421 40.1396C16.1439 41.6139 16.8402 42.9921 17.7932 44.2649C18.7461 45.5376 19.7168 46.6419 20.9205 47.6138C23.3161 49.5486 26.0924 50.9959 29.1224 51.5435C32.1523 52.0912 35.3918 51.9678 38.3686 50.9147C41.3455 49.8615 44.0214 48.1524 46.0984 45.7784C48.1755 43.4043 49.5975 40.7444 50.3233 37.7625C50.6419 36.4506 50.872 35.1116 51.0992 33.7786C51.5034 31.4015 51.8427 29.0094 52.0551 26.6052C52.2498 24.4267 52.3059 22.2723 51.9784 20.1059C51.5772 17.449 49.6477 15.5052 47.2284 14.6055C45.8978 14.109 44.4227 14.1391 43.0537 14.4129C41.6848 14.6867 40.5047 15.3878 39.5163 16.2995C38.5279 17.2112 37.8022 18.5021 37.5927 19.802C37.4216 20.8491 37.4334 21.6826 37.6251 22.7327C37.7786 23.5692 38.1179 24.4117 38.522 25.1459C39.8969 27.6524 42.6997 28.8499 45.4317 28.537C49.3202 28.0917 53.2087 26.2682 55.6368 23.0607C56.988 21.2794 57.8112 19.0166 57.6194 16.7388C57.4896 15.2133 57.1031 13.8984 56.4658 12.5112C55.8286 11.1241 54.9228 9.92353 53.9699 8.78614C52.7838 7.37193 51.4385 6.10215 49.8955 5.10618C48.6269 4.28774 47.2963 3.56559 45.9214 2.95176C44.3312 2.24164 42.7144 1.60976 41.0357 1.14939C39.357 0.689018 37.6665 0.403167 35.9494 0.198557C29.4056 -0.580765 22.6553 0.893628 16.8845 4.09818C12.0371 6.7912 7.91847 10.7931 4.97702 15.5503C2.08571 20.2413 0.436488 25.6574 0.0676988 31.1728C-0.312891 36.8478 0.881984 42.5317 3.26584 47.6499C5.66149 52.7983 9.43493 57.1793 13.9902 60.4531C16.197 62.0388 18.6045 63.2695 21.1211 64.2564C23.6377 65.2434 26.3373 65.8451 29.0574 66.1761C34.2854 66.814 39.7759 66.0437 44.638 63.9856C46.122 63.3597 47.5706 62.6797 48.9602 61.8522C50.3498 61.0248 51.6273 60.086 52.8871 59.081C55.1854 57.2485 57.1415 55.0731 58.8733 52.6869C62.3134 47.9448 64.2989 42.2699 64.9214 36.4295C65.2283 33.5499 65.0748 30.6884 64.65 27.8299C64.5467 27.1348 63.8623 26.3705 63.2929 26.0305C62.6615 25.6544 61.7292 25.4919 61.0182 25.7266C60.3071 25.9613 59.6168 26.4127 59.2539 27.1107L58.9559 27.8299C58.8143 28.3625 58.8143 28.8951 58.9559 29.4307L58.9618 29.4337Z" fill="#009997"/>
</g>
<defs>
<clipPath id="clip0_2240_32555">
<rect width="95" height="97" fill="white"/>
</clipPath>
</defs>
</svg>
