<svg width="91" height="108" viewBox="0 0 91 108" fill="none" xmlns="http://www.w3.org/2000/svg">
<g clip-path="url(#clip0_4024_9925)">
<path d="M36.4698 94.9352C36.1476 94.4068 35.852 93.8608 35.5919 93.2999C35.5328 93.173 35.4766 93.0431 35.4175 92.9132C35.2668 92.5797 35.6717 93.5538 35.4884 93.0697C35.3761 92.7775 35.2668 92.4852 35.1663 92.1901C34.7702 91.0153 34.5041 89.805 34.3297 88.58L34.4361 89.3652C34.1553 87.234 34.1819 85.0851 34.4598 82.9539L34.3534 83.7391C34.4716 82.8772 34.646 82.03 34.918 81.2065C34.9919 80.9821 35.0776 80.7637 35.1574 80.5423C35.3081 80.135 35.0332 80.7903 35.0421 80.8109C35.0273 80.7755 35.1544 80.5659 35.1751 80.5246C35.3673 80.1261 35.583 79.7365 35.8254 79.3645C35.9023 79.2465 36.3161 78.6856 35.9998 79.0959C35.6835 79.5062 36.121 78.9661 36.2156 78.8627C36.3545 78.7122 36.4994 78.5676 36.6501 78.4288C36.7299 78.358 36.8363 78.2163 36.9398 78.1779C36.8984 78.1927 36.3604 78.5912 36.6885 78.3727C36.8452 78.2694 36.9989 78.1661 37.1644 78.0746C37.2442 78.0303 37.33 77.989 37.4098 77.9477C37.7763 77.7529 37.0905 78.0687 37.0817 78.0776C37.1556 77.9743 37.5369 77.9211 37.6669 77.8857C37.865 77.8355 38.063 77.7971 38.267 77.7647L37.4807 77.8709C37.93 77.8148 38.3704 77.8119 38.8197 77.865L38.0335 77.7588C38.2315 77.7883 38.4296 77.8237 38.6217 77.8768C38.7636 77.9152 39.3518 78.1425 38.8375 77.9241C38.3231 77.7056 38.9557 77.9979 39.0858 78.0776C39.1626 78.1248 39.2395 78.1779 39.3134 78.2252C39.7035 78.482 38.8493 77.8208 39.0976 78.0628C39.2336 78.1956 39.3725 78.3196 39.4996 78.4613C39.7035 78.6886 39.5883 78.7889 39.3784 78.293C39.4227 78.3964 39.5144 78.4938 39.5705 78.5882C39.6267 78.6827 39.6799 78.786 39.7331 78.8864C39.9548 79.2878 39.6267 78.6295 39.6267 78.6295C39.7065 78.6414 39.8011 79.3055 39.8129 79.3822L39.7065 78.5971C39.7508 78.9513 39.7538 79.2907 39.7154 79.645L39.8218 78.8598C39.7656 79.2671 39.6001 79.6332 39.5203 80.0287C39.6562 79.3704 39.7154 79.5889 39.5617 79.89C39.4641 80.0789 39.3577 80.2589 39.2424 80.439C39.1833 80.5275 39.1242 80.619 39.0621 80.7047C38.8818 80.9497 38.938 80.8818 39.2336 80.4951C39.1183 80.6013 39.0237 80.7489 38.9173 80.867C38.6483 81.1681 38.3557 81.4367 38.0601 81.7112C37.8857 81.8559 37.9891 81.7791 38.3675 81.481C38.2877 81.54 38.2079 81.599 38.1251 81.6522C37.9596 81.7643 37.7881 81.8677 37.6108 81.9651C37.4778 82.0389 37.3388 82.1038 37.2029 82.1717C36.925 82.2986 37.0166 82.2602 37.4837 82.0595C37.3861 82.0979 37.2886 82.1363 37.191 82.1717C36.4166 82.4521 35.6067 82.6174 34.7909 82.7266L35.5771 82.6204C33.907 82.824 32.2163 82.7886 30.5492 82.5702L31.3354 82.6764C29.621 82.4403 27.9421 82.0005 26.337 81.357C26.2513 81.3216 26.1537 81.2684 26.0651 81.2448C26.0799 81.2478 26.7834 81.5607 26.3666 81.3688C26.1892 81.2862 26.0089 81.2065 25.8316 81.1238C25.4325 80.9349 25.0394 80.7342 24.6522 80.5187C23.8984 80.1025 23.1713 79.642 22.4737 79.1432C22.314 79.028 22.1574 78.91 21.9978 78.7919C21.711 78.5794 22.5239 79.2081 22.2461 78.9808C22.1515 78.9041 22.0539 78.8273 21.9593 78.7506C21.6165 78.4702 21.2795 78.1779 20.9543 77.8768C20.3366 77.3042 19.7483 76.6991 19.1985 76.0585C19.0685 75.908 18.9414 75.7545 18.8143 75.601C18.7522 75.5243 18.6901 75.4446 18.6281 75.3678C18.3354 75.0107 18.8025 75.5981 18.8143 75.6099C18.5187 75.2793 18.2733 74.8778 18.028 74.5088C17.5373 73.7768 17.0969 73.0123 16.686 72.2301C15.882 70.701 15.1283 69.1454 14.4218 67.5692C14.2474 67.1766 14.076 66.784 13.9045 66.3914C13.6356 65.7627 14.1706 67.029 13.9045 66.3973C13.807 66.1641 13.7095 65.928 13.6149 65.6948C13.2779 64.8683 12.9527 64.0359 12.6424 63.2006C11.3861 59.8267 10.3338 56.379 9.46184 52.887C8.43024 48.7515 7.65284 44.5571 7.08235 40.3331L7.18876 41.1182C6.11578 33.1307 5.77881 25.0546 5.94434 16.9992C5.99459 14.5728 6.09213 12.1494 6.2281 9.72892L1.77949 12.2763C7.27449 15.2074 13.4789 16.4442 19.6774 15.7417C25.9261 15.0333 31.7788 12.8814 37.463 10.2661C40.6879 8.7814 43.8418 7.14611 46.9809 5.49015H43.9985C54.7934 11.1782 66.6287 17.3386 79.2297 15.6C82.7324 15.1159 86.0844 13.9352 89.1999 12.2734L84.7513 9.72597C85.2183 18.0028 85.2183 26.318 84.5089 34.583C84.3227 36.7584 84.0833 38.931 83.7936 41.0976L83.9 40.3124C83.1729 45.6787 82.1176 51.0008 80.6278 56.2107C79.9184 58.6961 79.1115 61.155 78.1951 63.5725C77.9646 64.1835 77.7281 64.7916 77.4828 65.3967C77.3704 65.6771 77.2552 65.9575 77.1369 66.2379C77.0482 66.4534 76.8118 66.9966 77.2079 66.0697C77.1399 66.2291 77.0719 66.3885 77.0039 66.5449C76.5103 67.6873 75.993 68.8178 75.4491 69.9395C73.2824 74.4026 70.699 78.662 67.7047 82.6204C67.616 82.7384 67.5273 82.8536 67.4387 82.9716C67.4002 83.0218 67.3618 83.072 67.3234 83.1222C67.1165 83.3937 67.7638 82.5554 67.5539 82.824C67.3588 83.072 67.1638 83.3199 66.9687 83.5649C66.5874 84.0402 66.2001 84.5125 65.807 84.9788C65.006 85.9293 64.1783 86.8621 63.33 87.7712C61.6274 89.5925 59.8302 91.3252 57.9503 92.9634C57.0044 93.787 56.0348 94.5869 55.0505 95.3632C54.9293 95.4577 54.8111 95.5521 54.6899 95.6466C54.3382 95.9241 55.2929 95.1861 54.82 95.5462C54.5598 95.744 54.2968 95.9447 54.0337 96.1395C53.5046 96.5351 52.9666 96.9218 52.4286 97.3026C50.2738 98.8227 48.0451 100.234 45.7542 101.538C45.1719 101.869 44.5867 102.194 43.9985 102.512C42.6358 103.247 42.0919 105.24 42.9373 106.551C43.827 107.929 45.5266 108.398 46.9809 107.61C53.3479 104.168 59.3129 99.9237 64.5567 94.9293C69.5255 90.1976 73.8441 84.7427 77.3586 78.8539C80.9825 72.785 83.7759 66.2055 85.8361 59.4518C88.0442 52.214 89.3832 44.7371 90.1694 37.216C91.0178 29.1428 91.1537 21.0018 90.8168 12.8932C90.7724 11.8365 90.7192 10.7827 90.6601 9.72892C90.533 7.4649 88.254 6.08937 86.2115 7.18153C85.8302 7.3852 85.4459 7.58297 85.0558 7.77189C84.8488 7.87225 84.6419 7.96966 84.4321 8.06411C84.302 8.12315 84.0241 8.31797 83.897 8.30026C84.2784 8.14086 84.3641 8.10249 84.1572 8.18809C84.0685 8.22351 83.9798 8.25893 83.8911 8.29435C83.7138 8.3652 83.5364 8.43309 83.3561 8.49803C82.9719 8.63971 82.5876 8.77254 82.1974 8.89652C80.7135 9.3688 79.1942 9.70531 77.6513 9.91488L78.4375 9.80862C75.8245 10.1451 73.1908 10.0979 70.5808 9.75254L71.367 9.8588C67.9944 9.39537 64.7104 8.4626 61.5269 7.27894C60.6844 6.96605 59.8509 6.6325 59.0173 6.29009C58.503 6.07756 59.5198 6.50557 59.0055 6.28714C58.7956 6.19858 58.5858 6.10708 58.3789 6.01557C57.9591 5.83256 57.5394 5.6466 57.1226 5.45768C55.4584 4.70498 53.8179 3.91095 52.1863 3.09035C50.5546 2.26975 48.8845 1.40193 47.244 0.537055C46.7001 0.250732 46.1178 -0.0355918 45.4823 -0.00902574C44.8468 0.0175403 44.3473 0.21531 43.8093 0.489826C43.3866 0.702355 42.9698 0.929643 42.5501 1.15103C41.7136 1.58789 40.8741 2.02476 40.0346 2.45277C38.403 3.28812 36.7595 4.10281 35.0983 4.87913C34.2943 5.25401 33.4903 5.62003 32.6774 5.97425C32.4675 6.06575 32.2606 6.15431 32.0507 6.24581C31.9621 6.28418 31.8704 6.31961 31.7818 6.36093C31.8438 6.33436 32.4261 6.09527 31.9502 6.29009C31.5335 6.46129 31.1167 6.6325 30.6969 6.7978C27.1203 8.2058 23.4166 9.33338 19.6005 9.8588L20.3868 9.75254C17.7768 10.0979 15.1431 10.1451 12.5301 9.80862L13.3163 9.91488C11.7733 9.70531 10.254 9.37175 8.77017 8.89652C8.37999 8.77254 7.99572 8.63971 7.61146 8.49803C7.4341 8.43309 7.25379 8.36224 7.07644 8.29435C6.89909 8.22646 6.33747 7.94899 7.07053 8.30026C6.29609 7.93128 5.51573 7.58887 4.75607 7.18448C2.71355 6.09527 0.434558 7.4708 0.307455 9.73187C-0.24234 19.8329 -0.124105 29.9959 1.14397 40.0379C2.29677 49.1737 4.29199 58.2061 7.72378 66.7752C8.5869 68.93 9.51505 71.0612 10.5378 73.1481C11.4659 75.0431 12.4355 76.9087 13.7154 78.5941C16.6387 82.4462 20.4016 85.336 24.9093 87.1071C27.0494 87.9483 29.3106 88.4 31.5985 88.5918C34.0016 88.7925 36.6472 88.6774 38.9173 87.8126C40.3272 87.2753 41.5658 86.5787 42.6535 85.519C43.7413 84.4593 44.6015 83.1753 45.169 81.7466C45.7365 80.318 45.8134 78.7948 45.4261 77.3632C44.9739 75.6866 43.892 74.3199 42.5235 73.2957C40.2445 71.5925 37.1881 71.6102 34.6785 72.7348C32.169 73.8595 30.5255 76.3419 29.5146 78.8244C28.5598 81.174 28.3115 83.8513 28.3204 86.3691C28.3293 88.887 28.7076 91.6912 29.6062 94.1618C30.0762 95.4606 30.6497 96.7299 31.365 97.9106C32.166 99.2301 34.0519 99.844 35.4086 98.9703C36.7654 98.0966 37.327 96.3432 36.4698 94.9323V94.9352Z" fill="#009997"/>
</g>
<defs>
<clipPath id="clip0_4024_9925">
<rect width="91" height="108" fill="white"/>
</clipPath>
</defs>
</svg>
