<svg width="20" height="21" viewBox="0 0 20 21" fill="none" xmlns="http://www.w3.org/2000/svg">
<path d="M7.5 17.8501H12.5M10 2.85011C7.23858 2.85011 5 5.08869 5 7.85011C5 8.86219 5.3007 9.80404 5.81764 10.5912C6.61256 11.8016 7.00967 12.4065 7.06127 12.4969C7.52024 13.301 7.43573 13.0174 7.49349 13.9414C7.49998 14.0453 7.5 14.2025 7.5 14.5168C7.5 14.977 7.8731 15.3501 8.33333 15.3501L11.6667 15.3501C12.1269 15.3501 12.5 14.977 12.5 14.5168C12.5 14.2025 12.5 14.0453 12.5065 13.9414C12.5643 13.0174 12.4793 13.301 12.9382 12.4969C12.9898 12.4065 13.3876 11.8016 14.1825 10.5912C14.6995 9.80404 15.0002 8.86219 15.0002 7.85011C15.0002 5.08869 12.7614 2.85011 10 2.85011Z" stroke="#3B3C3C" stroke-width="1.5" stroke-linecap="round" stroke-linejoin="round"/>
</svg>
