<svg width="86" height="126" viewBox="0 0 86 126" fill="none" xmlns="http://www.w3.org/2000/svg">
<g clip-path="url(#clip0_6303_6708)">
<path d="M48.461 34.4569C47.6933 34.8041 46.9285 35.1571 46.1524 35.4901L46.9116 35.1656C45.5 35.769 44.0435 36.3212 42.5194 36.5403L43.363 36.4265C42.7472 36.509 42.1257 36.5318 41.5071 36.4521L42.3507 36.5659C41.9317 36.5062 41.5268 36.4009 41.1359 36.2386L41.8952 36.5631C41.5465 36.4122 41.2203 36.2187 40.9194 35.9853L41.5633 36.4891C41.2372 36.2301 40.9532 35.9312 40.6945 35.6011L41.1922 36.2529C40.7563 35.6722 40.4526 35.0233 40.163 34.3601C39.8368 33.6144 39.5078 32.8687 39.1816 32.123L38.1665 29.809C37.801 28.9751 37.4073 28.2322 36.7381 27.5662C35.9311 26.7636 34.8428 26.1175 33.7237 25.9012C33.1416 25.7902 32.5455 25.7048 31.955 25.7674C30.9821 25.8727 30.4197 26.0407 29.5227 26.4448C28.8422 26.7522 28.2517 27.6715 28.0633 28.366C27.8552 29.1345 27.948 30.1591 28.3838 30.8422C28.8197 31.5253 29.4721 32.1316 30.2819 32.3194L31.1255 32.4332C31.6991 32.4332 32.2334 32.2852 32.7283 31.9949C32.7592 31.9807 32.7873 31.9693 32.8182 31.9551L32.059 32.2796C32.3009 32.1856 32.5427 32.1202 32.7986 32.0803L31.955 32.1942C32.2334 32.16 32.5089 32.1629 32.7901 32.197L31.9466 32.0832C32.2221 32.1259 32.4836 32.2027 32.7395 32.3109L31.9803 31.9864C32.2052 32.0889 32.4133 32.2141 32.613 32.3649L31.969 31.8612C32.1659 32.0177 32.3402 32.1942 32.5005 32.3906L32.0028 31.7388C32.2671 32.086 32.4302 32.4731 32.6045 32.8687L33.3188 34.4967C33.8109 35.6182 34.3029 36.7367 34.7922 37.8581C35.0284 38.3932 35.2871 38.9112 35.6302 39.3865C36.3978 40.4567 37.3201 41.4614 38.5236 42.0364C39.7272 42.6113 40.9025 42.913 42.2298 42.9301C43.2983 42.9443 44.3893 42.7621 45.4241 42.4974C47.5949 41.9424 49.6336 40.9263 51.6722 40.0099C52.3527 39.7025 52.9432 38.7831 53.1316 38.0887C53.3397 37.3202 53.2469 36.2956 52.8111 35.6125C52.3752 34.9294 51.7228 34.3231 50.913 34.1353L50.0694 34.0214C49.4958 34.0214 48.9615 34.1694 48.4666 34.4597L48.461 34.4569Z" fill="#009B99"/>
<path d="M51.6697 40.0098C53.2359 39.3068 54.8247 38.638 56.2981 37.7471C58.0218 36.7054 59.7905 35.2908 60.6988 33.4294C61.264 32.2681 61.6126 31.0414 61.5845 29.735C61.5536 28.2835 61.1402 27.0425 60.575 25.7333C60.1898 24.8452 59.7961 23.9572 59.4081 23.072C58.9582 22.0446 58.4914 21.0228 58.0584 19.9896L58.3789 20.7581C58.2861 20.5133 58.2215 20.2685 58.1821 20.0095L58.2946 20.8634C58.2608 20.5816 58.2636 20.3027 58.2974 20.0181L58.1849 20.8719C58.2271 20.593 58.303 20.3283 58.4099 20.0693L58.0893 20.8378C58.1905 20.6101 58.3143 20.3995 58.4633 20.1974L57.9656 20.8492C58.1202 20.6499 58.2946 20.4735 58.4886 20.3112L57.8447 20.815C58.0499 20.6556 58.2665 20.519 58.5027 20.4108C59.1831 20.1035 59.7736 19.1841 59.962 18.4897C60.1701 17.7212 60.0773 16.6965 59.6415 16.0135C59.2056 15.3304 58.5533 14.7241 57.7434 14.5363L56.8999 14.4224C56.3262 14.4224 55.792 14.5704 55.2971 14.8607C53.4749 15.6804 52.2602 17.65 52.0015 19.5911C51.8721 20.556 51.9031 21.5436 52.2517 22.4658C52.3923 22.8387 52.5582 23.2058 52.7185 23.573C53.3259 24.9562 53.9333 26.3395 54.5378 27.7228C54.7487 28.2066 54.9681 28.6876 55.1705 29.1743L54.85 28.4058C55.058 28.9267 55.2183 29.4589 55.2971 30.0168L55.1846 29.1629C55.238 29.587 55.2464 30.0111 55.193 30.438L55.3055 29.5842C55.2493 29.9769 55.148 30.3555 54.9962 30.7227L55.3167 29.9542C55.1424 30.3612 54.9146 30.7369 54.6475 31.0898L55.1452 30.438C54.7459 30.9503 54.2791 31.3944 53.773 31.7928L54.4169 31.289C52.6314 32.6808 50.5083 33.5404 48.4641 34.4569C47.7836 34.7614 47.1931 35.6836 47.0047 36.3781C46.7966 37.1465 46.8894 38.1712 47.3252 38.8543C47.7611 39.5374 48.4135 40.1436 49.2233 40.3314L50.0669 40.4453C50.6405 40.4453 51.1748 40.2973 51.6697 40.007V40.0098Z" fill="#009B99"/>
<path d="M44.8425 31.3346C46.3132 30.6743 47.7838 30.0111 49.2544 29.3508C49.4653 29.2569 49.6762 29.163 49.8871 29.0662C50.2583 28.8641 50.5535 28.588 50.7785 28.2379C51.0597 27.9277 51.2481 27.5634 51.3465 27.145C51.5546 26.3765 51.4618 25.3519 51.026 24.6688C50.5901 23.9857 49.9377 23.3795 49.1279 23.1916L48.2843 23.0778C47.7107 23.0778 47.1764 23.2258 46.6815 23.5161C45.2109 24.1764 43.7402 24.8396 42.2696 25.4999C42.0587 25.5938 41.8478 25.6877 41.6369 25.7845C41.2658 25.9866 40.9705 26.2627 40.7455 26.6127C40.4643 26.923 40.276 27.2873 40.1775 27.7057C39.9695 28.4742 40.0622 29.4988 40.4981 30.1819C40.9339 30.865 41.5863 31.4712 42.3961 31.6591L43.2397 31.7729C43.8134 31.7729 44.3476 31.6249 44.8425 31.3346Z" fill="#009B99"/>
<path d="M51.5486 56.5947C52.9461 55.9657 54.3436 55.3395 55.7384 54.7105C57.9513 53.7143 60.1643 52.721 62.3773 51.7248C62.8863 51.4971 63.3952 51.2666 63.9042 51.0389C64.5847 50.7315 65.1752 49.8122 65.3636 49.1177C65.5717 48.3492 65.4789 47.3246 65.043 46.6415C64.6072 45.9584 63.9548 45.3522 63.145 45.1643L62.3014 45.0505C61.7278 45.0505 61.1935 45.1985 60.6986 45.4888C59.3011 46.1178 57.9035 46.744 56.5088 47.373C54.2958 48.3692 52.0828 49.3625 49.8699 50.3587C49.3609 50.5864 48.8519 50.8169 48.343 51.0446C47.6625 51.352 47.072 52.2713 46.8836 52.9658C46.6755 53.7343 46.7683 54.7589 47.2042 55.442C47.64 56.1251 48.2924 56.7313 49.1022 56.9192L49.9458 57.033C50.5194 57.033 51.0537 56.885 51.5486 56.5947Z" fill="#009B99"/>
<path d="M43.02 29.0463C43.363 29.8318 43.7089 30.6145 44.0519 31.4001C44.873 33.2729 45.6941 35.1457 46.518 37.0185C47.5162 39.2955 48.5145 41.5724 49.5155 43.8494C50.3788 45.819 51.242 47.7885 52.1081 49.7553C52.5271 50.7087 52.9207 51.6821 53.3678 52.6242C53.3735 52.6385 53.3791 52.6499 53.3847 52.6641C53.6884 53.3529 54.5967 53.9506 55.2828 54.1413C56.042 54.3519 57.0543 54.258 57.7291 53.8168C58.404 53.3756 59.003 52.7153 59.1885 51.8956L59.301 51.0418C59.301 50.4611 59.1548 49.9203 58.868 49.4194C58.5249 48.6339 58.1791 47.8512 57.836 47.0656C57.0149 45.1928 56.1938 43.32 55.3699 41.4472C54.3717 39.1702 53.3735 36.8933 52.3724 34.6163C51.5092 32.6467 50.6459 30.6771 49.7798 28.7104C49.3608 27.7569 48.9672 26.7835 48.5201 25.8414C48.5145 25.8272 48.5088 25.8158 48.5032 25.8016C48.1995 25.1128 47.2913 24.5151 46.6052 24.3244C45.8459 24.1138 44.8336 24.2077 44.1588 24.6489C43.4839 25.09 42.885 25.7504 42.6994 26.5701L42.5869 27.4239C42.5869 28.0045 42.7331 28.5453 43.02 29.0463Z" fill="#009B99"/>
<path d="M20.3215 68.6882C20.9992 71.7934 21.6796 74.8987 22.3573 78.0039C22.8213 80.1328 23.2881 82.2646 23.752 84.3936C24.7278 88.8565 25.7007 93.3165 26.6764 97.7793C27.6662 102.31 28.656 106.839 29.6458 111.37C30.1548 113.701 30.6778 116.032 31.1755 118.366C31.2036 118.5 31.229 118.631 31.2514 118.767L31.139 117.913C31.184 118.283 31.1896 118.639 31.153 119.009L31.2655 118.155C31.2374 118.357 31.2036 118.559 31.1502 118.759C31.1249 118.858 31.0912 118.952 31.0602 119.049C30.9337 119.465 31.1615 118.73 31.2093 118.702C31.1108 118.759 30.9787 119.12 30.914 119.228C30.6862 119.613 31.1418 118.955 31.1446 118.941C31.1362 119.023 30.9449 119.169 30.8915 119.223C30.8212 119.294 30.7425 119.359 30.6722 119.43C30.4332 119.681 31.2543 119.032 30.959 119.211C30.7847 119.317 30.6047 119.419 30.4332 119.527C30.1379 119.712 31.1024 119.294 30.7622 119.391C30.6609 119.419 30.5625 119.459 30.4613 119.487C30.2813 119.539 30.0986 119.576 29.913 119.604L30.7565 119.49C30.391 119.536 30.0395 119.541 29.674 119.504L30.5175 119.618C30.2926 119.587 30.0704 119.544 29.8511 119.482C29.7555 119.453 29.6599 119.416 29.5643 119.388C29.1903 119.268 30.3235 119.795 29.8427 119.499C29.674 119.393 29.5052 119.282 29.3337 119.183C30.017 119.587 29.8061 119.576 29.6262 119.402C29.5165 119.297 29.4124 119.188 29.3056 119.08C28.9794 118.744 29.5137 119.334 29.5165 119.376C29.5165 119.334 29.3787 119.171 29.3478 119.12C29.2803 119.009 29.2269 118.892 29.1622 118.781C28.9738 118.448 29.4096 119.487 29.2972 119.114C29.2409 118.932 29.1847 118.756 29.1397 118.568C29.12 118.485 29.1031 118.403 29.0863 118.318L28.7404 116.735C28.2314 114.407 27.7225 112.082 27.2163 109.753C26.4177 106.096 25.6192 102.441 24.8206 98.784C23.8167 94.1903 22.8128 89.5965 21.809 84.9999C20.6983 79.9165 19.5876 74.8303 18.4769 69.747C17.3661 64.6637 16.2161 59.3982 15.0857 54.2238C14.0256 49.3739 12.9655 44.5211 11.9054 39.6711C11.0056 35.5584 10.1086 31.4456 9.20875 27.3328C8.562 24.3728 7.91526 21.4127 7.26852 18.4527C6.96483 17.058 6.65551 15.6634 6.35464 14.2687C6.3209 14.1094 6.28715 13.9528 6.26184 13.7906L6.37432 14.6444C6.32933 14.2744 6.32371 13.9187 6.36026 13.5487L6.24778 14.4025C6.2759 14.2004 6.30965 13.9984 6.36307 13.7991C6.38838 13.6995 6.42212 13.6056 6.45306 13.5088C6.57959 13.0933 6.35183 13.8276 6.30402 13.856C6.40244 13.7991 6.5346 13.4376 6.59928 13.3295C6.82704 12.9453 6.37151 13.6027 6.3687 13.617C6.37713 13.5344 6.56834 13.3893 6.62177 13.3352C6.69207 13.264 6.7708 13.1986 6.8411 13.1274C7.08012 12.8769 6.25903 13.5259 6.55429 13.3466C6.72862 13.2413 6.90859 13.1388 7.08012 13.0306C7.37537 12.8456 6.41088 13.264 6.75112 13.1673C6.85235 13.1388 6.95077 13.0989 7.052 13.0705C7.23196 13.0193 7.41474 12.9823 7.60032 12.9538L6.75674 13.0676C7.12229 13.0221 7.47379 13.0164 7.83934 13.0534L6.99576 12.9396C7.1954 12.968 7.39505 13.0022 7.59189 13.0563C7.68749 13.0819 7.78591 13.1132 7.8787 13.1473C8.18239 13.264 8.0671 13.2128 7.53565 12.9965C7.66218 13.0733 7.80278 13.1331 7.92932 13.2128C8.60418 13.6283 7.52159 12.7916 7.88714 13.1616C7.9715 13.2498 8.29206 13.4718 8.30612 13.597L7.9968 13.1872C8.05585 13.2697 8.11209 13.3551 8.16552 13.4433C8.21895 13.5316 8.26956 13.6227 8.31736 13.7137C8.45796 14.0097 8.41578 13.8959 8.18801 13.375C8.22738 13.58 8.32299 13.7849 8.37079 13.9898C8.76165 15.6264 10.6822 16.7592 12.2766 16.2355C13.9581 15.6862 14.9113 14.0325 14.4952 12.2821C14.0143 10.2584 12.6027 8.36855 10.7412 7.44638C8.57606 6.37336 6.27028 6.38475 4.08541 7.38376C2.20142 8.24332 0.722347 10.1531 0.221824 12.1682C-0.0874885 13.4092 -0.0537454 14.6046 0.20214 15.8484C0.356796 16.6055 0.531136 17.3569 0.697039 18.1111C1.09633 19.9412 1.49563 21.7685 1.89492 23.5986C2.48543 26.2968 3.07312 28.9922 3.66362 31.6904C4.39472 35.0347 5.12583 38.3761 5.85412 41.7204C6.68645 45.5343 7.52159 49.3483 8.35392 53.1622C9.24249 57.2266 10.1311 61.2909 11.0168 65.3553C11.911 69.4482 12.8052 73.5382 13.6994 77.631C14.5627 81.5816 15.4259 85.5292 16.2892 89.4798L18.6371 100.23C19.2923 103.23 19.9475 106.23 20.6027 109.227C21.0919 111.464 21.5812 113.701 22.0677 115.935C22.3404 117.188 22.616 118.443 22.8888 119.695C22.931 119.889 22.9703 120.082 23.0153 120.276C23.9517 124.286 28.0234 126.62 31.9151 125.749C33.875 125.311 35.7618 123.842 36.6588 122.018C37.4911 120.324 37.6908 118.574 37.314 116.724C37.2155 116.243 37.1031 115.762 36.999 115.284C36.4057 112.563 35.8096 109.844 35.2163 107.123C34.353 103.167 33.4869 99.2081 32.6237 95.2519C31.7885 91.4351 30.9562 87.6184 30.1211 83.7988C29.6177 81.4962 29.1144 79.1936 28.611 76.891C28.1555 74.8104 27.7028 72.7298 27.2473 70.6521C26.9801 69.4282 26.713 68.2072 26.4459 66.9834C26.0859 65.3382 24.112 64.2225 22.5401 64.7377C20.8333 65.2956 19.9362 66.9321 20.3215 68.6911V68.6882Z" fill="#009B99"/>
<path d="M35.9057 71.8675C42.674 71.5885 49.0627 68.9131 55.0578 65.9132C56.6578 65.1134 58.2212 64.234 59.869 63.5309L59.1098 63.8554C61.5027 62.8422 64.0081 62.1363 66.5782 61.7777L65.7347 61.8915C68.1417 61.5671 70.5768 61.5528 72.9838 61.8744L72.1402 61.7606C73.774 61.9854 75.4077 62.3298 76.9374 62.9674L76.1782 62.6429C76.8783 62.9418 77.5476 63.3032 78.1521 63.7672L77.5082 63.2634C78.0425 63.6846 78.498 64.1856 78.917 64.7235L78.4193 64.0717C78.872 64.6666 79.2572 65.3041 79.5553 65.9929L79.2347 65.2244C79.4597 65.7652 79.6228 66.3202 79.7071 66.9008L79.5947 66.047C79.6481 66.4682 79.6593 66.8809 79.6059 67.3022L79.7184 66.4483C79.6649 66.7955 79.575 67.1314 79.4428 67.4559L79.7634 66.6874C79.6256 67.0033 79.4569 67.2965 79.2488 67.5726L79.7465 66.9208C79.5525 67.1627 79.3388 67.379 79.0969 67.5697L79.7409 67.0659C79.5187 67.2339 79.2825 67.3733 79.0294 67.49L79.7887 67.1655C79.4934 67.2908 79.1926 67.3733 78.8748 67.4189L79.7184 67.305C79.4175 67.3392 79.1222 67.3392 78.8214 67.305L79.6649 67.4189C79.3894 67.379 79.1251 67.3107 78.8635 67.2082L79.6228 67.5327C79.381 67.4274 79.1588 67.2993 78.9479 67.1428L79.5918 67.6466C79.3641 67.4672 79.1672 67.2652 78.9845 67.0403L79.4822 67.6921C79.2488 67.3847 79.0632 67.0517 78.9085 66.6931L79.2291 67.4615C79.0295 66.9748 78.9029 66.4654 78.8298 65.9445L78.9423 66.7984C78.8326 65.9331 78.8495 65.0537 78.9592 64.1884L78.8467 65.0423C78.9676 64.177 79.1926 63.3402 79.5187 62.5348L79.1982 63.3032C79.4934 62.5974 79.8787 61.957 80.2526 61.2967C80.6519 60.5937 81.0203 59.8764 81.3605 59.1421C82.1423 57.4543 82.8256 55.7096 83.3373 53.9193C84.2878 50.6092 84.7377 47.1026 84.7095 43.6587C84.6814 40.2148 84.0769 36.862 83.3458 33.5205C82.7018 30.5747 82.0579 27.6289 81.414 24.683C80.621 21.057 79.828 17.4281 79.0379 13.802C78.5177 11.4169 77.9947 9.03175 77.4745 6.64663C77.4351 6.47017 77.4013 6.2937 77.3592 6.11724C77.0555 4.8706 75.9054 4.06512 74.9493 3.34218C73.7177 2.40863 72.2162 1.75685 70.723 1.40107C67.3121 0.587055 63.7354 1.04245 60.392 1.95324C56.5875 2.98925 52.9348 4.62298 49.3917 6.35063C45.7194 8.14089 42.137 10.119 38.5518 12.0829C35.1325 13.9557 31.7103 15.8427 28.1842 17.5049C27.4137 17.8664 26.6404 18.2193 25.8587 18.5523L26.6179 18.2278C24.7649 19.0162 22.8668 19.7306 20.9013 20.1718C20.4176 20.28 19.9312 20.371 19.4419 20.4365L20.2855 20.3227C19.3435 20.4479 18.3846 20.4877 17.4426 20.3597L18.2862 20.4735C17.7182 20.3938 17.1642 20.2515 16.6328 20.0295L17.392 20.354C17.2345 20.2857 17.0827 20.2117 16.928 20.1377C16.2757 19.8274 15.7105 19.6111 14.9681 19.6225C14.2258 19.6339 13.6212 19.8018 12.9407 20.1405C12.2209 20.4963 11.6388 21.1224 11.2283 21.8084C10.6293 22.8017 10.5618 23.9829 10.7896 25.0929C10.8121 25.2068 10.8402 25.3206 10.8655 25.4344C11.0455 26.2598 11.2254 27.0852 11.4054 27.9106C12.1365 31.2635 12.8704 34.6163 13.6015 37.9663C14.5576 42.3438 15.5136 46.7212 16.4697 51.1016C17.3217 55.0065 18.1765 58.9087 19.0285 62.8137C19.4503 64.7434 19.8412 66.6817 20.2939 68.6057C20.2995 68.6342 20.3052 68.6627 20.3108 68.6883C20.4767 69.4539 21.115 70.2224 21.7702 70.6095C22.4253 70.9965 23.4545 71.1844 24.2165 70.9339C25.9234 70.3761 26.8204 68.7395 26.4352 66.9805C26.1202 65.5347 25.8025 64.0859 25.4875 62.6401C24.7283 59.1677 23.9691 55.6925 23.2099 52.2201C22.2932 48.0191 21.3737 43.8181 20.457 39.6171C19.664 35.9882 18.8711 32.3593 18.0781 28.7304C17.6929 26.9742 17.2908 25.2181 16.9252 23.4592C16.914 23.4023 16.9027 23.3482 16.8915 23.2913L17.004 24.1451C16.9955 24.0483 16.9927 23.9601 17.004 23.8605L16.8915 24.7144C16.9112 24.592 16.9421 24.481 16.9899 24.3671L16.6693 25.1356C16.7115 25.0531 16.7537 24.9819 16.8071 24.9079L16.3094 25.5597C16.3656 25.4914 16.4247 25.4316 16.4922 25.3718L15.8482 25.8756C15.941 25.8045 16.0366 25.7475 16.1435 25.6991L15.3843 26.0236C15.4686 25.9923 15.5474 25.9724 15.6345 25.9553L14.791 26.0692C14.8809 26.0606 14.9625 26.0606 15.0553 26.0663L14.2117 25.9525C14.3073 25.9695 14.3889 25.9895 14.4788 26.0236L13.7196 25.6991C14.3607 25.9951 15.0019 26.3082 15.6852 26.4989C16.3685 26.6896 17.0996 26.7779 17.8082 26.8433C19.0595 26.96 20.3248 26.7864 21.5593 26.5843C24.2897 26.1346 26.8879 25.0616 29.4158 23.963C32.2615 22.7277 35.0172 21.2904 37.7504 19.8246C40.7226 18.2278 43.6666 16.5827 46.6389 14.986C49.6111 13.3893 52.5102 11.8865 55.5414 10.5346C55.8985 10.3752 56.2585 10.2186 56.6184 10.0649L55.8592 10.3894C58.3084 9.34484 60.8222 8.41128 63.4204 7.83065C64.0784 7.68265 64.7421 7.56026 65.4113 7.46918L64.5677 7.58303C65.9624 7.39234 67.3825 7.33826 68.78 7.52326L67.9364 7.40941C68.8587 7.53465 69.7642 7.76804 70.6246 8.1352L69.8654 7.81073C70.5768 8.11812 71.2489 8.51659 71.8619 8.99475L71.2179 8.49097C71.5075 8.71867 71.7831 8.96344 72.0446 9.22245L71.2292 7.80504C71.4597 8.85529 71.6875 9.90554 71.9181 10.9558L73.5378 18.3645C74.1817 21.3103 74.8256 24.2533 75.4667 27.1991C75.9926 29.607 76.5184 32.0177 77.0442 34.4256C77.3226 35.695 77.6207 36.9616 77.8597 38.2367C77.9778 38.8742 78.079 39.5175 78.1662 40.1607L78.0537 39.3069C78.4446 42.3125 78.4614 45.3551 78.0734 48.3606L78.1859 47.5068C77.8147 50.2961 77.0977 53.0284 76.0151 55.6213L76.3356 54.8528C75.9054 55.8746 75.4218 56.8737 74.8847 57.8442C74.2632 58.9628 73.6727 60.0244 73.2313 61.2397C72.7898 62.4551 72.5817 63.7985 72.5255 65.0964C72.5002 65.6514 72.517 66.2064 72.5817 66.7557C72.6604 67.4246 72.7364 68.1019 72.9444 68.7452C73.3353 69.9577 73.968 71.21 74.9325 72.061C76.15 73.134 77.5869 73.7403 79.215 73.7659C82.2547 73.8114 84.8895 71.6284 85.7218 68.7224C86.4951 66.0271 85.5391 62.9987 83.8997 60.8299C83.0055 59.6459 82.0804 58.6525 80.8235 57.8442C79.7943 57.1839 78.6189 56.7114 77.4604 56.3443C76.4144 56.0113 75.3346 55.7864 74.2492 55.6213C72.8713 55.4136 71.4879 55.2485 70.0932 55.2143C67.568 55.1517 65.0092 55.4477 62.5459 55.9999C60.0827 56.552 57.6813 57.4543 55.3896 58.5529C53.0979 59.6516 50.9973 60.8213 48.745 61.8488C48.1967 62.0993 47.6483 62.3412 47.0944 62.5775L47.8536 62.253C44.5187 63.6704 41.0572 64.843 37.4635 65.3411L38.3071 65.2273C37.5085 65.3354 36.7043 65.4066 35.9001 65.4407C35.0959 65.4749 34.2523 65.7766 33.6534 66.3828C33.1022 66.9407 32.6889 67.8543 32.7226 68.657C32.7564 69.4596 33.0291 70.3504 33.6534 70.9311C34.2776 71.5117 35.0509 71.9073 35.9001 71.8732L35.9057 71.8675Z" fill="#009B99"/>
</g>
<defs>
<clipPath id="clip0_6303_6708">
<rect width="86" height="124.949" fill="white" transform="translate(0 0.979797)"/>
</clipPath>
</defs>
</svg>
