<svg width="80" height="80" viewBox="0 0 80 80" fill="none" xmlns="http://www.w3.org/2000/svg">
<g filter="url(#filter0_i_2404_25259)">
<g clip-path="url(#clip0_2404_25259)">
<path fill-rule="evenodd" clip-rule="evenodd" d="M70.8738 62.6203C70.8749 62.6421 70.8747 62.6642 70.8729 62.6866C70.5243 67.0552 67.0553 70.5242 62.6867 70.8728C62.6644 70.8746 62.6424 70.8749 62.6207 70.8737L55.665 71.4288C53.9999 71.5617 52.4201 72.215 51.1491 73.2982L45.7908 77.8678C42.4552 80.7103 37.5458 80.7109 34.2103 77.8684L28.8518 73.3029C27.5803 72.2194 26.0004 71.563 24.3359 71.4302L17.3803 70.8739C17.3599 70.8748 17.3392 70.8745 17.3184 70.8728C12.9498 70.5242 9.48077 67.0552 9.13215 62.6866L8.57059 55.6649C8.43776 54.0004 7.78147 52.4204 6.69793 51.1489L2.13252 45.7904C-0.709898 42.4549 -0.711363 37.5455 2.13126 34.2099L6.70078 28.8514C7.78347 27.5808 8.43382 26.0011 8.56674 24.3355L9.1283 17.3136C9.13009 17.2911 9.13337 17.2691 9.13803 17.2476C9.51665 12.9278 12.9483 9.50319 17.2713 9.13549C17.2854 9.13313 17.2997 9.13136 17.3142 9.1302L24.3336 8.57004C25.9982 8.43721 27.579 7.78088 28.8504 6.69737L34.2107 2.13193C37.5462 -0.710642 42.4551 -0.710642 45.7907 2.13193L51.1502 6.69938C52.421 7.78232 53.9991 8.43329 55.6645 8.56619L62.6838 9.12775C67.0523 9.47637 70.5222 12.9464 70.8709 17.315L71.4289 24.3332C71.5617 25.9975 72.2189 27.5785 73.3025 28.85L77.8679 34.2103C80.7103 37.5458 80.7109 42.4501 77.8685 45.7856L73.3031 51.1489C72.2195 52.4205 71.5631 53.9999 71.4303 55.6644L70.8738 62.6203Z" fill="#BDFFCB"/>
<path d="M35 55H45M40 25C34.4772 25 30 29.4772 30 35C30 37.0242 30.6014 38.9079 31.6353 40.4822C33.2251 42.903 34.0193 44.1127 34.1225 44.2935C35.0405 45.9017 34.8715 45.3345 34.987 47.1826C35 47.3904 35 47.7048 35 48.3333C35 49.2538 35.7462 50 36.6667 50L43.3333 50C44.2538 50 45 49.2538 45 48.3333C45 47.7048 45 47.3904 45.013 47.1826C45.1285 45.3345 44.9585 45.9017 45.8765 44.2935C45.9797 44.1127 46.7752 42.903 48.3651 40.4822C49.3989 38.9079 50.0003 37.0242 50.0003 35C50.0003 29.4772 45.5228 25 40 25Z" stroke="#076267" stroke-width="3" stroke-linecap="round" stroke-linejoin="round"/>
</g>
</g>
<defs>
<filter id="filter0_i_2404_25259" x="0" y="-8" width="80" height="88" filterUnits="userSpaceOnUse" color-interpolation-filters="sRGB">
<feFlood flood-opacity="0" result="BackgroundImageFix"/>
<feBlend mode="normal" in="SourceGraphic" in2="BackgroundImageFix" result="shape"/>
<feColorMatrix in="SourceAlpha" type="matrix" values="0 0 0 0 0 0 0 0 0 0 0 0 0 0 0 0 0 0 127 0" result="hardAlpha"/>
<feOffset dy="-8"/>
<feGaussianBlur stdDeviation="8"/>
<feComposite in2="hardAlpha" operator="arithmetic" k2="-1" k3="1"/>
<feColorMatrix type="matrix" values="0 0 0 0 0.027451 0 0 0 0 0.384314 0 0 0 0 0.403922 0 0 0 0.2 0"/>
<feBlend mode="darken" in2="shape" result="effect1_innerShadow_2404_25259"/>
</filter>
<clipPath id="clip0_2404_25259">
<rect width="80" height="80" rx="40" fill="white"/>
</clipPath>
</defs>
</svg>
