<svg width="25" height="25" viewBox="0 0 25 25" fill="none" xmlns="http://www.w3.org/2000/svg">
<path d="M12.208 15.5L15.208 12.5M15.208 12.5L12.208 9.5M15.208 12.5H4.20801M9.20801 7.74859V7.7002C9.20801 6.58009 9.20801 6.01962 9.42599 5.5918C9.61774 5.21547 9.92348 4.90973 10.2998 4.71799C10.7276 4.5 11.2881 4.5 12.4082 4.5H17.0082C18.1283 4.5 18.6876 4.5 19.1154 4.71799C19.4917 4.90973 19.7985 5.21547 19.9902 5.5918C20.208 6.0192 20.208 6.57899 20.208 7.69691V17.3036C20.208 18.4215 20.208 18.9805 19.9902 19.4079C19.7985 19.7842 19.4917 20.0905 19.1154 20.2822C18.688 20.5 18.129 20.5 17.0111 20.5H12.4049C11.287 20.5 10.7272 20.5 10.2998 20.2822C9.92348 20.0905 9.61774 19.7839 9.42599 19.4076C9.20801 18.9798 9.20801 18.4201 9.20801 17.3V17.25" stroke="#009B99" stroke-width="2" stroke-linecap="round" stroke-linejoin="round"/>
</svg>
