<svg width="177" height="32" viewBox="0 0 177 32" fill="none" xmlns="http://www.w3.org/2000/svg">
<g clip-path="url(#clip0_6630_5823)">
<path d="M3.44837 6.04198V2.32743C3.44837 0.96952 4.44735 0 5.80165 0C7.15596 0 8.1229 1.00164 8.1229 2.39168V6.04198H12.1509C13.1178 6.04198 13.7615 6.71947 13.7615 7.72112C13.7615 8.72276 13.1178 9.33601 12.1509 9.33601H8.1229V16.0584C8.1229 18.3216 9.86456 19.9686 12.1829 19.9686C13.5372 19.9686 14.5041 20.8096 14.5041 22.0683C14.5041 23.394 13.5692 24.2322 12.1829 24.2322H10.7004C6.50939 24.2322 3.44837 21.0316 3.44837 16.6074V9.33601H1.6106C0.61162 9.33601 0 8.65851 0 7.65687C0 6.65523 0.61162 6.04198 1.6106 6.04198H3.44837Z" fill="#009B99"/>
<path d="M67.1121 5.7207C72.6546 5.7207 76.6854 9.63091 76.6854 14.9954V21.9105C76.6854 23.3006 75.7826 24.238 74.3322 24.238C72.8817 24.238 72.0109 23.3006 72.0109 21.9105V21.8463C70.6246 23.3648 68.6907 24.238 66.2093 24.238C61.0513 24.238 57.5388 20.3599 57.5388 14.9954C57.5388 9.63091 61.5347 5.7207 67.1121 5.7207ZM67.1442 20.5526C69.9809 20.5526 72.0109 18.3887 72.0109 14.9954C72.0109 11.6021 69.9809 9.40605 67.1442 9.40605C64.3074 9.40605 62.3095 11.5699 62.3095 14.9954C62.3095 18.4208 64.3395 20.5526 67.1442 20.5526Z" fill="#009B99"/>
<path d="M90.4761 24.235C88.1548 24.235 86.285 23.4933 84.9016 22.1996V27.6605C84.9016 29.0505 83.9667 29.9879 82.5483 29.9879C81.1299 29.9879 80.2271 29.0505 80.2271 27.6605V14.9925C80.2271 9.62798 84.223 5.71777 89.7654 5.71777C95.3079 5.71777 99.3708 9.62798 99.3708 14.9925C99.3708 20.3569 95.7942 24.235 90.4761 24.235ZM89.7363 9.40312C86.9316 9.40312 84.9016 11.567 84.9016 14.9925C84.9016 18.4179 86.9316 20.5497 89.7363 20.5497C92.541 20.5497 94.603 18.3858 94.603 14.9925C94.603 11.5991 92.573 9.40312 89.7363 9.40312Z" fill="#009B99"/>
<path d="M106.367 15.9941C106.591 18.8705 108.525 20.7453 111.265 20.7453C113.167 20.7453 114.941 19.6794 115.809 18.0967C116.292 17.6119 117.035 17.2556 117.711 17.2556C118.969 17.2556 119.613 18.3858 119.161 19.4195C118.194 22.004 114.81 24.235 110.75 24.235C105.4 24.235 101.532 20.3569 101.532 14.9925C101.532 9.62798 105.336 5.71777 110.555 5.71777C115.034 5.71777 118.386 8.56209 119.257 12.6008C119.805 14.4113 118.386 15.9941 116.164 15.9941H106.367ZM114.714 13.3133C114.423 10.5654 112.748 8.78987 110.558 8.78987C108.368 8.78987 106.722 10.5683 106.434 13.3133H114.717H114.714Z" fill="#009B99"/>
<path d="M139.691 21.9076C139.691 23.2976 138.756 24.235 137.306 24.235C136.08 24.235 135.212 23.4933 135.017 22.3281C133.662 23.4904 131.824 24.235 129.762 24.235C125.315 24.235 122.155 21.455 122.155 17.5798V8.04521C122.155 6.65517 123.058 5.71777 124.508 5.71777C125.959 5.71777 126.83 6.71942 126.83 8.04521V16.803C126.83 18.9669 128.504 20.5847 130.858 20.5847C133.211 20.5847 135.014 18.9698 135.014 16.7388V8.04521C135.014 6.65517 135.916 5.71777 137.367 5.71777C138.817 5.71777 139.688 6.65517 139.688 8.04521V21.9076H139.691Z" fill="#009B99"/>
<path d="M144.881 6.04198V2.32743C144.881 0.96952 145.88 0 147.235 0C148.589 0 149.556 1.00164 149.556 2.39168V6.04198H153.584C154.551 6.04198 155.194 6.71947 155.194 7.72112C155.194 8.72276 154.551 9.33601 153.584 9.33601H149.556V16.0584C149.556 18.3216 151.297 19.9686 153.616 19.9686C154.97 19.9686 155.937 20.8096 155.937 22.0683C155.937 23.394 155.002 24.2322 153.616 24.2322H152.133C147.942 24.2322 144.881 21.0316 144.881 16.6074V9.33601H143.043C142.044 9.33601 141.433 8.65851 141.433 7.65687C141.433 6.65523 142.044 6.04198 143.043 6.04198H144.881Z" fill="#009B99"/>
<path d="M166.637 5.7207C172.18 5.7207 176.211 9.63091 176.211 14.9954V21.9105C176.211 23.3006 175.308 24.238 173.857 24.238C172.407 24.238 171.536 23.3006 171.536 21.9105V21.8463C170.15 23.3648 168.216 24.238 165.734 24.238C160.576 24.238 157.064 20.3599 157.064 14.9954C157.064 9.63091 161.06 5.7207 166.637 5.7207ZM166.669 20.5526C169.506 20.5526 171.536 18.3887 171.536 14.9954C171.536 11.6021 169.506 9.40605 166.669 9.40605C163.833 9.40605 161.835 11.5699 161.835 14.9954C161.835 18.4208 163.865 20.5526 166.669 20.5526Z" fill="#009B99"/>
<path d="M54.3148 4.91481C51.0732 5.03162 48.1462 6.91518 46.5705 9.73029C45.2366 12.1074 45.2861 15.013 43.9347 17.3638C42.8251 19.2941 40.4339 20.0679 38.3107 19.884C35.7186 19.6562 33.4847 18.0734 31.8246 16.1373C34.2274 14.7765 36.1264 12.8053 36.8545 9.95807C37.7049 6.62023 36.0914 3.07798 32.9488 1.64122C29.6257 0.122699 26.0579 1.83396 24.5463 5.01994C23.1163 8.03655 23.9435 11.2897 25.3589 14.1282C24.8056 14.3121 24.2667 14.502 23.76 14.7181C20.7019 16.0146 17.903 18.0997 17.0351 21.4609C16.1438 24.9097 17.9729 28.2826 19.6592 31.1561C20.2504 32.1636 21.8232 32.2337 22.6824 31.5883C23.7017 30.8232 23.7076 29.5675 23.1134 28.5571C21.8931 26.4779 20.1427 23.4875 21.8203 21.1981C23.1687 19.3583 25.4987 18.5757 27.6889 17.8515C31.2043 22.3983 36.5603 25.5259 42.4668 23.6628C44.2056 23.1138 45.8336 22.0216 46.9579 20.579C48.1054 19.1072 48.6558 17.3375 49.1247 15.5591C49.5179 14.0668 49.8004 12.4082 50.7674 11.1583C51.7518 9.88506 53.1964 9.28349 54.772 9.22509C55.937 9.18421 56.8079 7.94894 56.6914 6.84509C56.5603 5.61275 55.4856 4.87977 54.3177 4.92065L54.3148 4.91481ZM28.1025 8.49211C28.0996 6.60855 29.5937 4.57899 31.481 5.7354C33.3915 6.90642 32.9139 9.50543 31.5858 10.9977C30.9625 11.6985 30.1907 12.2213 29.3461 12.6447C28.618 11.3218 28.1025 9.90259 28.0996 8.49503L28.1025 8.49211Z" fill="#009B99"/>
</g>
<defs>
<clipPath id="clip0_6630_5823">
<rect width="176.208" height="32" fill="white"/>
</clipPath>
</defs>
</svg>
