<svg width="246" height="45" viewBox="0 0 246 45" fill="none" xmlns="http://www.w3.org/2000/svg">
<g clip-path="url(#clip0_6791_646)">
<path d="M4.80168 8.41314V3.24083C4.80168 1.35001 6.1927 0 8.0785 0C9.96429 0 11.3107 1.39473 11.3107 3.33028V8.41314H16.9194C18.2658 8.41314 19.1621 9.35651 19.1621 10.7512C19.1621 12.146 18.2658 12.9999 16.9194 12.9999H11.3107V22.3605C11.3107 25.5118 13.7359 27.8052 16.964 27.8052C18.8498 27.8052 20.1962 28.9763 20.1962 30.7289C20.1962 32.575 18.8944 33.742 16.964 33.742H14.8998C9.06398 33.742 4.80168 29.2854 4.80168 23.1249V12.9999H2.24268C0.851649 12.9999 0 12.0565 0 10.6618C0 9.26705 0.851649 8.41314 2.24268 8.41314H4.80168Z" fill="white"/>
<path d="M93.4502 7.96582C101.168 7.96582 106.781 13.4106 106.781 20.8803V30.5093C106.781 32.4448 105.523 33.7501 103.504 33.7501C101.484 33.7501 100.272 32.4448 100.272 30.5093V30.4198C98.3411 32.5343 95.6483 33.7501 92.193 33.7501C85.0108 33.7501 80.1199 28.3501 80.1199 20.8803C80.1199 13.4106 85.684 7.96582 93.4502 7.96582ZM93.4948 28.6185C97.4448 28.6185 100.272 25.6054 100.272 20.8803C100.272 16.1553 97.4448 13.0975 93.4948 13.0975C89.5448 13.0975 86.7627 16.1106 86.7627 20.8803C86.7627 25.6501 89.5894 28.6185 93.4948 28.6185Z" fill="white"/>
<path d="M125.983 33.7462C122.751 33.7462 120.147 32.7134 118.221 30.912V38.5159C118.221 40.4515 116.919 41.7568 114.944 41.7568C112.969 41.7568 111.712 40.4515 111.712 38.5159V20.8764C111.712 13.4067 117.276 7.96191 124.994 7.96191C132.711 7.96191 138.369 13.4067 138.369 20.8764C138.369 28.3462 133.388 33.7462 125.983 33.7462ZM124.953 13.0936C121.048 13.0936 118.221 16.1067 118.221 20.8764C118.221 25.6462 121.048 28.6146 124.953 28.6146C128.858 28.6146 131.73 25.6014 131.73 20.8764C131.73 16.1514 128.903 13.0936 124.953 13.0936Z" fill="white"/>
<path d="M148.11 22.2712C148.422 26.2764 151.115 28.887 154.931 28.887C157.579 28.887 160.049 27.4028 161.258 25.1989C161.931 24.5239 162.965 24.0278 163.906 24.0278C165.658 24.0278 166.554 25.6014 165.925 27.0409C164.579 30.6396 159.867 33.7462 154.213 33.7462C146.763 33.7462 141.378 28.3462 141.378 20.8764C141.378 13.4067 146.674 7.96191 153.942 7.96191C160.179 7.96191 164.847 11.9225 166.059 17.5461C166.822 20.0672 164.847 22.2712 161.752 22.2712H148.11ZM159.733 18.5383C159.327 14.7119 156.995 12.2396 153.946 12.2396C150.896 12.2396 148.605 14.716 148.203 18.5383H159.737H159.733Z" fill="white"/>
<path d="M194.512 30.5054C194.512 32.4409 193.211 33.7462 191.191 33.7462C189.484 33.7462 188.275 32.7134 188.003 31.0909C186.118 32.7093 183.559 33.7462 180.687 33.7462C174.495 33.7462 170.094 29.8751 170.094 24.4792V11.2027C170.094 9.26719 171.352 7.96191 173.371 7.96191C175.391 7.96191 176.604 9.35665 176.604 11.2027V23.3975C176.604 26.4106 178.935 28.6634 182.212 28.6634C185.489 28.6634 187.999 26.4147 187.999 23.3081V11.2027C187.999 9.26719 189.257 7.96191 191.276 7.96191C193.296 7.96191 194.508 9.26719 194.508 11.2027V30.5054H194.512Z" fill="white"/>
<path d="M201.739 8.41314V3.24083C201.739 1.35001 203.13 0 205.016 0C206.902 0 208.248 1.39473 208.248 3.33028V8.41314H213.857C215.204 8.41314 216.1 9.35651 216.1 10.7512C216.1 12.146 215.204 12.9999 213.857 12.9999H208.248V22.3605C208.248 25.5118 210.674 27.8052 213.902 27.8052C215.788 27.8052 217.134 28.9763 217.134 30.7289C217.134 32.575 215.832 33.742 213.902 33.742H211.838C206.002 33.742 201.739 29.2854 201.739 23.1249V12.9999H199.18C197.789 12.9999 196.938 12.0565 196.938 10.6618C196.938 9.26705 197.789 8.41314 199.18 8.41314H201.739Z" fill="white"/>
<path d="M232.034 7.96582C239.751 7.96582 245.364 13.4106 245.364 20.8803V30.5093C245.364 32.4448 244.107 33.7501 242.087 33.7501C240.068 33.7501 238.855 32.4448 238.855 30.5093V30.4198C236.925 32.5343 234.232 33.7501 230.776 33.7501C223.594 33.7501 218.703 28.3501 218.703 20.8803C218.703 13.4106 224.267 7.96582 232.034 7.96582ZM232.078 28.6185C236.028 28.6185 238.855 25.6054 238.855 20.8803C238.855 16.1553 236.028 13.0975 232.078 13.0975C228.128 13.0975 225.346 16.1106 225.346 20.8803C225.346 25.6501 228.173 28.6185 232.078 28.6185Z" fill="white"/>
<path d="M75.6305 6.84355C71.1168 7.0062 67.041 9.62895 64.847 13.5489C62.9896 16.8588 63.0585 20.9048 61.1768 24.1781C59.6317 26.8659 56.3021 27.9435 53.3457 27.6873C49.7363 27.3701 46.6258 25.1662 44.3141 22.4703C47.6599 20.5754 50.3041 17.8306 51.3179 13.866C52.5021 9.21826 50.2554 4.28586 45.8796 2.28525C41.2523 0.170784 36.2843 2.55363 34.1795 6.98994C32.1883 11.1904 33.34 15.7202 35.311 19.6727C34.5405 19.9288 33.7902 20.1932 33.0846 20.4941C28.8263 22.2995 24.929 25.2028 23.7205 29.8831C22.4795 34.6854 25.0263 39.3819 27.3745 43.3832C28.1977 44.786 30.3877 44.8836 31.584 43.985C33.0034 42.9196 33.0116 41.1711 32.1842 39.7642C30.485 36.869 28.0477 32.7051 30.3836 29.5171C32.2613 26.9554 35.5057 25.8656 38.5554 24.8572C43.4503 31.1884 50.9083 35.5434 59.1328 32.9491C61.554 32.1846 63.821 30.6638 65.3864 28.6551C66.9842 26.6057 67.7507 24.1415 68.4036 21.6651C68.9511 19.5873 69.3445 17.2776 70.6909 15.5373C72.0617 13.7644 74.0732 12.9267 76.2672 12.8454C77.8894 12.7885 79.102 11.0684 78.9398 9.53136C78.7573 7.81539 77.2608 6.79476 75.6345 6.85168L75.6305 6.84355ZM39.1313 11.8247C39.1272 9.20199 41.2077 6.37593 43.8356 7.98618C46.496 9.61676 45.8309 13.2357 43.9816 15.3136C43.1137 16.2895 42.039 17.0174 40.8629 17.607C39.8491 15.765 39.1313 13.7888 39.1272 11.8288L39.1313 11.8247Z" fill="white"/>
</g>
<defs>
<clipPath id="clip0_6791_646">
<rect width="245.36" height="44.5583" fill="white"/>
</clipPath>
</defs>
</svg>
