<svg width="128" height="68" viewBox="0 0 128 68" fill="none" xmlns="http://www.w3.org/2000/svg">
<g clip-path="url(#clip0_6303_6846)">
<path d="M124.416 61.986C124.034 62.1296 123.625 62.2168 123.226 62.29C123.138 62.3068 123.051 62.3181 122.967 62.335C122.393 62.4363 123.817 62.2393 123.316 62.29C123.082 62.3153 122.846 62.3378 122.612 62.3519C122.035 62.3828 121.458 62.3688 120.884 62.3097C120.225 62.2393 121.472 62.4053 121.134 62.3462C120.994 62.3209 120.85 62.2984 120.709 62.2703C120.352 62.1999 120 62.1099 119.654 62.0029C119.502 61.9551 119.35 61.9044 119.201 61.8509C118.928 61.7524 118.3 61.3866 119.232 61.8791C118.894 61.7018 118.542 61.5526 118.21 61.3613C117.852 61.1558 117.52 60.9194 117.18 60.6887C116.777 60.4157 117.748 61.1615 117.377 60.8435C117.315 60.7928 117.253 60.7421 117.191 60.6915C116.985 60.5198 116.783 60.3397 116.588 60.1568C116.253 59.8388 115.935 59.5011 115.631 59.1493C115.541 59.0424 115.454 58.9354 115.364 58.8285C115.012 58.4092 115.775 59.3941 115.451 58.9439C115.274 58.7018 115.099 58.457 114.931 58.2093C114.615 57.7394 114.325 57.2525 114.055 56.7572C113.903 56.4786 113.757 56.1944 113.616 55.9073C113.498 55.6653 113.166 55.1812 113.157 54.9083L113.292 55.2291C113.242 55.1109 113.194 54.9899 113.146 54.8689C113.084 54.7169 113.025 54.5621 112.966 54.4073C112.839 54.0696 112.721 53.7291 112.6 53.3914C112.347 52.6822 112.057 51.9843 111.739 51.3004C110.835 49.3558 109.487 47.5434 107.801 46.2095C104.412 43.5247 100.139 42.7283 95.9447 43.6767C91.9618 44.5773 88.4658 47.065 86.1126 50.3633C84.9952 51.9308 84.1704 53.8051 83.8045 55.6962C83.3457 58.0714 83.2444 60.8435 84.5448 62.9935C85.8452 65.1436 88.0886 65.9766 90.439 65.4728C92.4684 65.0366 94.2305 63.3763 95.1904 61.592C98.16 56.0649 95.2579 49.4796 91.9083 44.839C88.9809 40.7837 85.271 37.3447 80.894 34.8992C76.6493 32.5296 71.9767 31.1478 67.1494 30.6722C57.6691 29.7379 48.0003 32.963 40.9324 39.3203C39.0211 41.0398 37.3491 43.0041 35.8685 45.1007C33.9854 47.7658 32.3557 50.853 31.7843 54.095C31.3226 56.7178 31.5197 59.4448 32.8905 61.789C33.8982 63.5141 35.6039 65.0732 37.6109 65.4841C39.9669 65.9653 42.3651 64.9916 43.5192 62.819C44.6732 60.6465 44.6366 57.8745 44.1159 55.457C43.2517 51.4468 40.5242 48.0106 37.1155 45.8211C33.7068 43.6317 29.5718 42.7846 25.6255 43.5698C21.4033 44.4112 17.9158 47.5631 16.1678 51.4299C15.8553 52.1194 15.5682 52.8201 15.3177 53.5349C15.2051 53.8557 15.0925 54.1766 14.9687 54.4946C14.8983 54.6775 14.8251 54.8604 14.7519 55.0433C14.538 55.5893 14.9968 54.4918 14.7013 55.1559C14.189 56.3041 13.5866 57.4185 12.8688 58.4542C12.7281 58.6568 12.5733 58.851 12.4326 59.0536C12.9843 58.26 12.4072 59.0649 12.2496 59.2478C11.9343 59.6108 11.5994 59.9542 11.2447 60.2806C11.0786 60.4326 10.9097 60.5817 10.7352 60.7253C10.1385 61.2177 11.2447 60.3707 10.6986 60.7534C10.3496 60.9954 9.99494 61.229 9.62339 61.4373C9.4545 61.5301 9.28561 61.6202 9.11109 61.7046C8.87747 61.82 8.23569 62.0282 9.22932 61.6708C8.86621 61.8031 8.51154 61.9466 8.13999 62.0536C7.83599 62.1408 7.52918 62.214 7.21955 62.2759C7.06474 62.3068 6.90711 62.3265 6.7523 62.3547C7.87821 62.1464 7.21111 62.2956 6.92681 62.3209C6.38356 62.3688 5.83749 62.3772 5.29423 62.3434C5.0606 62.3294 4.82979 62.3012 4.59898 62.2787C4.25276 62.2449 5.55319 62.425 5.00712 62.3322C4.8889 62.3125 4.76787 62.2928 4.64964 62.2703C4.28372 62.1999 3.90935 62.1155 3.5575 61.986C2.17544 61.4682 0.410563 62.5601 0.0953056 63.9504C-0.267803 65.5488 0.582265 66.8603 2.06003 67.4118C3.43928 67.9268 5.07468 68.0563 6.53274 67.9775C10.1019 67.7861 13.4121 66.2299 15.8694 63.6267C17.5301 61.8678 18.8024 59.7825 19.7538 57.5677C20.086 56.7966 20.4012 56.0199 20.6827 55.2291C20.7756 54.9645 20.8657 54.7028 20.967 54.4411C21.0402 54.2497 21.2935 53.7713 20.9135 54.5452C20.9783 54.4101 21.0346 54.2722 21.0965 54.1344C21.3076 53.6784 21.5412 53.2366 21.7974 52.806C21.9269 52.5922 22.0592 52.3811 22.2027 52.1728C22.2534 52.0997 22.304 52.0265 22.3547 51.9533C22.7291 51.4271 22.1408 52.2038 22.2703 52.0518C22.5574 51.7141 22.8389 51.3736 23.1541 51.0612C23.2977 50.9177 23.4468 50.777 23.5988 50.6419C23.658 50.5884 23.7199 50.535 23.7818 50.4843C24.0014 50.2986 24.4377 50.1269 23.6777 50.5519C24.0126 50.3633 24.3138 50.1016 24.6488 49.9046C24.8148 49.8089 24.9809 49.716 25.1526 49.6288C25.3919 49.5078 26.1969 49.2235 25.2005 49.5809C25.9464 49.3136 26.6726 49.08 27.4579 48.9365C28.125 48.8155 26.7092 49.004 27.3735 48.9477C27.5593 48.9309 27.745 48.914 27.9308 48.9027C28.3418 48.8802 28.7527 48.8802 29.1609 48.9027C29.3467 48.9112 29.5352 48.9252 29.721 48.9449C29.8336 48.9562 29.9462 48.9759 30.056 48.9815C29.1581 48.9309 29.4283 48.8886 29.6422 48.928C30.0701 49.0068 30.4951 49.0828 30.9201 49.1898C31.3058 49.2911 31.6886 49.4065 32.0658 49.5415C32.2459 49.6063 32.4232 49.6794 32.6006 49.7442C32.8004 49.8173 32.9862 49.9834 32.2459 49.5922C32.381 49.6626 32.5274 49.716 32.6653 49.7808C33.3972 50.1269 34.098 50.535 34.7623 50.9993C34.92 51.1091 35.0691 51.2357 35.2296 51.3426C34.4161 50.7995 34.9988 51.1682 35.2014 51.3398C35.5251 51.6156 35.8376 51.9055 36.1359 52.2094C36.4062 52.488 36.6595 52.7779 36.91 53.0734C37.3491 53.5856 36.5131 52.5134 36.8988 53.0537C37.0339 53.2422 37.169 53.4336 37.2956 53.6278C37.5096 53.9542 37.7066 54.2891 37.8867 54.6325C37.9768 54.8041 38.0641 54.9786 38.1457 55.1559C38.1936 55.26 38.2358 55.3754 38.2893 55.4767C37.8642 54.6831 38.1007 55.0152 38.1823 55.2403C38.323 55.6315 38.4581 56.0199 38.5651 56.4223C38.6214 56.6334 38.6721 56.8473 38.7171 57.064C38.7481 57.2216 38.8663 58.0011 38.7903 57.4045C38.7143 56.8079 38.8072 57.6155 38.8184 57.7619C38.8353 57.9926 38.8466 58.2262 38.8494 58.457C38.8522 58.7075 38.8494 58.9607 38.8297 59.2112C38.8241 59.3041 38.8128 59.3969 38.8072 59.4926C38.7706 59.9964 38.9536 58.6934 38.81 59.3913C38.7706 59.5855 38.7227 59.7769 38.6636 59.9654C38.6411 60.0358 38.6102 60.1033 38.5905 60.1737C38.4638 60.6155 38.9423 59.5039 38.7087 59.8838C38.627 60.0189 38.5454 60.1624 38.4666 60.2975C38.2639 60.6549 38.9423 59.7825 38.7143 59.9767C38.6411 60.0386 38.5736 60.123 38.506 60.1934C38.1232 60.5902 39.1562 59.76 38.6861 60.047C38.1457 60.3791 39.2013 59.9035 38.9367 59.9626C38.8269 59.9879 38.6664 60.0133 38.5623 60.0611C39.2941 59.7346 39.3195 60.0104 39.0014 59.9936C38.9254 59.9907 38.841 59.9907 38.765 59.9936C38.2076 60.0217 39.57 60.1709 39.0296 60.0301C38.8944 59.9936 38.7593 59.9513 38.6242 59.9148C38.2217 59.8078 39.3448 60.2694 38.9733 60.0667C38.9198 60.0386 38.8663 60.0161 38.8128 59.9879C38.6467 59.9007 38.4976 59.7938 38.3371 59.6981C37.9627 59.4757 38.9226 60.2046 38.5989 59.9035C38.551 59.8585 38.4976 59.8191 38.4497 59.774C38.323 59.6615 38.202 59.5405 38.0866 59.4166C38.0162 59.3407 37.9515 59.2562 37.8783 59.1802C37.5771 58.8538 38.2639 59.729 38.0894 59.4504C37.9796 59.2787 37.8586 59.1127 37.7545 58.9354C37.6503 58.7581 37.5602 58.5555 37.4589 58.3669C37.2956 58.0658 37.7404 59.1043 37.5771 58.6512C37.5349 58.5358 37.4899 58.4204 37.4533 58.3022C37.3857 58.0996 37.3294 57.897 37.2788 57.6887C37.2084 57.3876 37.1859 56.5208 37.2168 57.5142C37.2028 57.0302 37.1493 56.5602 37.1718 56.0734C37.1859 55.7947 37.397 55.0096 37.1633 55.8932C37.259 55.5274 37.2956 55.139 37.3829 54.7704C37.5462 54.0865 37.7545 53.4167 38.0022 52.761C38.0106 52.7385 38.2611 52.0772 38.1007 52.4965C37.9402 52.9158 38.2104 52.2516 38.2189 52.2319C38.4019 51.8267 38.6017 51.4271 38.8072 51.0331C39.4771 49.7639 40.2596 48.5538 41.1097 47.3971C41.2026 47.2705 41.318 47.1438 41.3996 47.0087C41.3799 47.0425 40.969 47.5547 41.2561 47.1945C41.4221 46.9862 41.5882 46.7752 41.7599 46.5697C42.1315 46.1223 42.5143 45.6832 42.9112 45.2555C43.6712 44.4337 44.4762 43.6542 45.3206 42.9225C45.726 42.5707 46.1622 42.2471 46.5676 41.8953C46.5451 41.915 45.999 42.3231 46.3621 42.0557C46.486 41.9657 46.607 41.8728 46.7308 41.7827C46.9757 41.6026 47.2234 41.4253 47.4768 41.2537C48.3493 40.6542 49.2501 40.0998 50.179 39.5933C50.6181 39.3541 51.0628 39.1261 51.5132 38.9066C51.7384 38.7969 51.9635 38.6927 52.1887 38.5886C52.397 38.4929 53.3878 38.113 52.473 38.4563C53.4498 38.0905 54.4124 37.7078 55.4117 37.4038C56.4109 37.0999 57.4102 36.8494 58.4263 36.6468C58.933 36.5455 59.4425 36.4554 59.9547 36.3794C60.0758 36.3626 60.1996 36.3457 60.3207 36.326C59.4002 36.4751 59.9519 36.3766 60.1574 36.3513C60.4501 36.3175 60.7429 36.2866 61.0384 36.2584C63.0961 36.0699 65.1706 36.0783 67.2254 36.2866C67.4702 36.3119 67.7151 36.34 67.96 36.3682C68.5258 36.4329 67.2338 36.2612 67.7968 36.3457C67.8953 36.3597 67.991 36.3738 68.0895 36.3879C68.6243 36.4695 69.1591 36.5652 69.6911 36.6721C70.7073 36.8804 71.7122 37.1365 72.703 37.4432C73.1984 37.5952 73.6938 37.7612 74.1807 37.9385C74.4144 38.0229 74.6452 38.1102 74.876 38.2002C74.9914 38.2453 75.1068 38.2903 75.2222 38.3381C75.8471 38.5914 74.997 38.234 75.1687 38.3128C76.1483 38.7575 77.1166 39.2105 78.0567 39.734C78.9968 40.2574 79.8779 40.8146 80.7448 41.4225C80.9531 41.5689 81.1586 41.718 81.3641 41.8672C81.4654 41.9432 81.5667 42.0219 81.6709 42.0951C81.9749 42.3146 81.0967 41.6392 81.5245 41.9825C81.9524 42.3259 82.4027 42.6945 82.825 43.066C83.6469 43.7893 84.4266 44.5576 85.1669 45.3624C85.5244 45.7536 85.8734 46.1532 86.2112 46.5613C86.3997 46.7892 86.5771 47.02 86.7629 47.248C87.0049 47.5463 86.3294 46.6682 86.6672 47.1269C86.7629 47.2564 86.8614 47.3859 86.9571 47.5181C87.8578 48.7536 88.6826 50.0537 89.3722 51.4214C89.5383 51.7507 89.6902 52.0856 89.8451 52.4205C89.9098 52.5612 90.1068 52.8511 89.8169 52.3501C89.9182 52.5274 89.9774 52.761 90.0477 52.9524C90.3095 53.6728 90.5262 54.413 90.6839 55.1644C90.712 55.2966 90.7374 55.4317 90.7627 55.5668C90.8105 55.8426 90.7317 56.2253 90.7542 55.4514C90.7458 55.7019 90.8021 55.9636 90.8105 56.2141C90.819 56.4645 90.8162 56.7009 90.8049 56.9458C90.7993 57.064 90.788 57.1793 90.7796 57.2975C90.743 57.942 90.9006 56.6531 90.8021 57.1596C90.7205 57.5846 90.6276 58.0011 90.484 58.4092C90.4446 58.5189 90.4108 58.6512 90.3545 58.7525C90.3461 58.7666 90.6979 58.0517 90.4953 58.4092C90.3799 58.609 90.287 58.8228 90.1688 59.0198C90.0759 59.1718 89.9379 59.321 89.8591 59.4814C90.1744 58.8369 90.2419 59.0198 90.0336 59.2478C89.9858 59.2984 89.9408 59.3519 89.8957 59.4054C89.7803 59.5292 89.6593 59.6502 89.5326 59.7628C89.4594 59.8275 89.375 59.8866 89.3074 59.9542C89.9464 59.3294 89.7831 59.608 89.5664 59.7403C89.4341 59.8191 89.3074 59.9035 89.1695 59.9767C88.539 60.3059 89.7634 59.8078 89.3159 59.9176C89.1808 59.9513 89.0428 59.9879 88.9105 60.0273C88.6488 60.1033 88.4996 59.9176 89.3778 59.971C89.2877 59.9654 89.1892 59.9851 89.0991 59.9851C88.5221 59.9851 89.2314 59.9907 89.3806 60.0414C89.33 60.0245 88.9809 59.9767 88.9725 59.9232C88.9584 59.8219 89.6931 60.3369 89.4313 60.1118C89.3891 60.0752 89.2793 60.0104 89.2258 59.9936C88.9697 59.9007 89.5917 60.2384 89.6002 60.2919C89.5945 60.2497 89.3919 60.0977 89.3553 60.0639C88.9528 59.6868 89.7522 60.7196 89.4651 60.2103C89.3891 60.0724 89.3187 59.9063 89.2314 59.7825C89.6537 60.3819 89.4622 60.396 89.3947 60.1624C89.3637 60.0555 89.3215 59.9513 89.2905 59.8444C89.2202 59.608 89.1892 59.3688 89.1301 59.1296C89.3609 60.0583 89.1639 59.3744 89.147 59.0564C89.1329 58.8003 89.1329 58.5442 89.1385 58.2853C89.1442 58.0658 89.1582 57.8463 89.1751 57.6268C89.1864 57.5058 89.2005 57.382 89.2117 57.261C89.2596 56.7938 89.0851 58.0152 89.178 57.5255C89.3356 56.6925 89.5608 55.9158 89.8394 55.1165C90.0027 54.6522 89.5242 55.7976 89.7381 55.3557C89.7719 55.2854 89.8028 55.2122 89.8338 55.1418C89.9154 54.9645 90.0027 54.7901 90.0928 54.6184C90.2926 54.2413 90.5122 53.8726 90.7486 53.518C90.8668 53.3407 90.9935 53.1691 91.1173 52.9946C91.441 52.5443 90.6276 53.594 91.1089 53.0143C91.3819 52.685 91.669 52.3727 91.9702 52.0715C92.2714 51.7704 92.5585 51.5115 92.871 51.2498C92.9301 51.1991 92.992 51.1541 93.0511 51.1034C93.4198 50.7854 92.4516 51.5396 92.8484 51.2582C93.037 51.1231 93.2228 50.9852 93.4142 50.853C94.087 50.3971 94.7963 50.0171 95.5281 49.671C96.1446 49.3811 94.8554 49.9271 95.4915 49.6851C95.6689 49.6175 95.849 49.55 96.0292 49.4853C96.4232 49.3474 96.8258 49.2292 97.2311 49.1307C97.5998 49.0406 97.9714 48.9787 98.3429 48.9083C98.8243 48.8183 97.5548 48.99 98.0417 48.9477C98.1177 48.9421 98.1909 48.9309 98.2669 48.9224C98.4893 48.8999 98.7145 48.8858 98.9397 48.8746C99.3309 48.8577 99.7222 48.8605 100.113 48.883C100.299 48.8943 100.485 48.914 100.671 48.9309C100.918 48.9534 101.177 49.0772 100.31 48.8802C100.437 48.9083 100.569 48.9196 100.696 48.9449C101.082 49.0153 101.462 49.1053 101.836 49.2207C102.016 49.2742 102.194 49.3333 102.368 49.398C102.438 49.4233 102.509 49.4515 102.579 49.4768C103.198 49.702 102.022 49.2038 102.427 49.4121C102.768 49.5866 103.111 49.747 103.441 49.944C103.607 50.0425 103.77 50.1494 103.93 50.2564C104.012 50.3126 104.091 50.3689 104.17 50.4252C104.648 50.7573 103.66 49.9918 104.023 50.3098C104.327 50.5772 104.637 50.8361 104.924 51.1288C105.07 51.2779 105.214 51.4327 105.349 51.5875C105.523 51.7873 106.008 52.5331 105.478 51.7198C106.019 52.5471 106.545 53.3436 106.956 54.2469C107.052 54.4552 107.139 54.9083 106.911 54.1287C106.939 54.2244 106.987 54.3229 107.024 54.4158C107.125 54.6775 107.215 54.9392 107.308 55.2038C107.609 56.0537 107.95 56.8895 108.31 57.7169C110.103 61.8256 113.047 65.3631 117.261 67.0713C119.682 68.0535 122.387 68.1689 124.929 67.6511C125.264 67.5835 125.604 67.5047 125.928 67.3837C127.302 66.8687 128.391 65.4588 127.893 63.9222C127.456 62.577 125.905 61.4035 124.43 61.9579L124.416 61.986Z" fill="#009B99"/>
<path d="M72.6189 14.2681C72.6189 14.7916 72.5823 15.3122 72.5119 15.83L72.6132 15.0814C72.4725 16.0861 72.2023 17.0626 71.811 17.997L72.0953 17.3244C71.7041 18.2362 71.2002 19.0889 70.595 19.874L71.0341 19.3056C70.4458 20.057 69.7703 20.7296 69.0187 21.3206L69.5873 20.8815C68.802 21.4866 67.9491 21.9903 67.0371 22.3815L67.7099 22.0973C66.7753 22.4913 65.7986 22.7586 64.7937 22.8993L65.5425 22.798C64.5038 22.9359 63.4567 22.9359 62.418 22.798L63.1668 22.8993C62.1619 22.7586 61.1852 22.4885 60.2506 22.0973L60.9234 22.3815C60.0114 21.9903 59.1585 21.4866 58.3732 20.8815L58.9418 21.3206C58.1902 20.7324 57.5175 20.057 56.9264 19.3056L57.3655 19.874C56.7603 19.0889 56.2565 18.2362 55.8652 17.3244L56.1495 17.997C55.7554 17.0626 55.488 16.0861 55.3473 15.0814L55.4486 15.83C55.3107 14.7916 55.3107 13.7447 55.4486 12.7062L55.3473 13.4548C55.488 12.4501 55.7582 11.4736 56.1495 10.5393L55.8652 11.2119C56.2565 10.3001 56.7603 9.44736 57.3655 8.66219L56.9264 9.23067C57.5147 8.47927 58.1902 7.80667 58.9418 7.21568L58.3732 7.6547C59.1585 7.04964 60.0114 6.5459 60.9234 6.15472L60.2506 6.43896C61.1852 6.04497 62.1619 5.77762 63.1668 5.63691L62.418 5.73822C63.4567 5.60032 64.5038 5.60032 65.5425 5.73822L64.7937 5.63691C65.7986 5.77762 66.7753 6.04778 67.7099 6.43896L67.0371 6.15472C67.9491 6.5459 68.802 7.04964 69.5873 7.6547L69.0187 7.21568C69.7703 7.80386 70.443 8.47927 71.0341 9.23067L70.595 8.66219C71.2002 9.44736 71.7041 10.3001 72.0953 11.2119L71.811 10.5393C72.2051 11.4736 72.4725 12.4501 72.6132 13.4548L72.5119 12.7062C72.5794 13.224 72.616 13.7447 72.6189 14.2681C72.6245 15.74 73.908 17.1499 75.4337 17.0823C76.9593 17.0148 78.2541 15.8469 78.2484 14.2681C78.2372 11.4286 77.3899 8.51022 75.7292 6.18849C74.7694 4.84892 73.7026 3.76264 72.3937 2.7664C71.2678 1.91088 70.0124 1.29175 68.6866 0.802076C63.3047 -1.17632 56.7547 0.588195 53.1208 5.03185C52.6197 5.64535 52.1328 6.27855 51.7246 6.95959C51.3165 7.64063 50.9928 8.38077 50.686 9.12372C50.1286 10.4802 49.8584 11.9211 49.7458 13.3788C49.5291 16.2127 50.2778 19.1846 51.7471 21.6104C53.2165 24.0363 55.3388 26.0062 57.8665 27.1432C58.6153 27.4809 59.3781 27.7961 60.1718 28.0156C60.9656 28.2351 61.7875 28.3505 62.6094 28.449C64.0562 28.6206 65.5284 28.494 66.9527 28.2126C72.4725 27.1263 77.1563 22.3421 78.012 16.7643C78.1387 15.9341 78.2428 15.1039 78.2456 14.2625C78.2513 12.7907 76.9452 11.3807 75.4308 11.4483C73.9165 11.5158 72.6217 12.6837 72.616 14.2625L72.6189 14.2681Z" fill="#009B99"/>
<path d="M108.445 33.3317C108.445 33.6919 108.42 34.0465 108.372 34.4039L108.473 33.6553C108.378 34.3138 108.206 34.9527 107.953 35.569L108.237 34.8964C107.972 35.524 107.632 36.1093 107.218 36.6525L107.657 36.084C107.241 36.6187 106.765 37.0943 106.233 37.508L106.801 37.069C106.258 37.4827 105.673 37.8204 105.045 38.0877L105.718 37.8035C105.101 38.0539 104.462 38.2284 103.804 38.3241L104.552 38.2228C103.84 38.3157 103.123 38.3157 102.41 38.2228L103.159 38.3241C102.5 38.2284 101.862 38.0568 101.245 37.8035L101.918 38.0877C101.29 37.8232 100.705 37.4827 100.161 37.069L100.73 37.508C100.195 37.0915 99.7194 36.6159 99.3057 36.084L99.7448 36.6525C99.331 36.1093 98.9932 35.524 98.7258 34.8964L99.0101 35.569C98.7596 34.9527 98.5851 34.3138 98.4894 33.6553L98.5907 34.4039C98.4978 33.6919 98.4978 32.9743 98.5907 32.2623L98.4894 33.0109C98.5851 32.3523 98.7568 31.7135 99.0101 31.0972L98.7258 31.7698C98.9904 31.1422 99.331 30.5569 99.7448 30.0137L99.3057 30.5822C99.7223 30.0475 100.198 29.5719 100.73 29.1582L100.161 29.5972C100.705 29.1835 101.29 28.8458 101.918 28.5785L101.245 28.8627C101.862 28.6122 102.5 28.4377 103.159 28.3421L102.41 28.4434C103.123 28.3505 103.84 28.3505 104.552 28.4434L103.804 28.3421C104.462 28.4377 105.101 28.6094 105.718 28.8627L105.045 28.5785C105.673 28.843 106.258 29.1835 106.801 29.5972L106.233 29.1582C106.768 29.5747 107.243 30.0503 107.657 30.5822L107.218 30.0137C107.632 30.5569 107.97 31.1422 108.237 31.7698L107.953 31.0972C108.203 31.7135 108.378 32.3523 108.473 33.0109L108.372 32.2623C108.42 32.6169 108.442 32.9743 108.445 33.3345C108.451 34.0577 108.755 34.812 109.27 35.3241C109.785 35.8363 110.559 36.1797 111.26 36.1487C112.777 36.0812 114.083 34.9133 114.075 33.3345C114.061 31.2604 113.458 29.0963 112.245 27.3965C111.57 26.4509 110.846 25.6657 109.929 24.9594C109.011 24.253 108.051 23.7436 106.953 23.3356C104.98 22.5982 102.658 22.5673 100.637 23.1329C98.616 23.6986 96.7667 24.8412 95.4691 26.4256C95.0863 26.8956 94.7063 27.3768 94.391 27.8974C94.0758 28.418 93.8224 29.0175 93.5832 29.6028C93.1807 30.5906 93.0005 31.6375 92.9161 32.6957C92.7472 34.7754 93.3158 36.9902 94.391 38.7716C95.4663 40.553 97.0172 42.0192 98.8637 42.855C99.4408 43.1139 100.026 43.3672 100.637 43.5389C101.248 43.7105 101.878 43.7893 102.509 43.8653C103.584 43.9948 104.671 43.8878 105.729 43.6824C107.725 43.294 109.661 42.1852 111.069 40.7274C112.476 39.2697 113.574 37.2969 113.886 35.2538C113.985 34.6178 114.069 33.9818 114.075 33.3401C114.083 31.8683 112.774 30.4584 111.26 30.5259C109.746 30.5934 108.454 31.7613 108.445 33.3401V33.3317Z" fill="#009B99"/>
<path d="M13.8858 33.3316C13.8999 35.4057 14.5022 37.5698 15.7154 39.2696C16.391 40.2152 17.1144 41.0004 18.032 41.7067C18.9496 42.4131 19.9094 42.9225 21.0072 43.3305C22.9804 44.0679 25.3026 44.0988 27.3236 43.5332C29.3446 42.9675 31.194 41.8249 32.4916 40.2405C32.8744 39.7705 33.2544 39.2893 33.5696 38.7687C33.8849 38.248 34.1382 37.6486 34.3775 37.0633C34.78 36.0755 34.9602 35.0286 35.0446 33.9704C35.2135 31.8907 34.6449 29.6759 33.5696 27.8945C32.4944 26.1131 30.9434 24.6469 29.0969 23.8111C28.5199 23.5522 27.9344 23.2989 27.3236 23.1272C26.7128 22.9556 26.0823 22.8768 25.4518 22.8008C24.3765 22.6713 23.29 22.7783 22.2317 22.9837C20.236 23.3721 18.2994 24.4809 16.892 25.9386C15.4649 27.4161 14.3868 29.3692 14.0744 31.4123C13.9759 32.0483 13.8914 32.6843 13.8858 33.326C13.8773 34.7978 15.1862 36.2077 16.7006 36.1402C18.2149 36.0727 19.5069 34.9048 19.5154 33.326C19.5154 32.9658 19.5407 32.6112 19.5886 32.2538L19.4872 33.0023C19.5829 32.3438 19.7546 31.705 20.008 31.0887L19.7237 31.7613C19.9883 31.1337 20.3288 30.5483 20.7426 30.0052L20.3035 30.5737C20.7201 30.039 21.1958 29.5634 21.7278 29.1497L21.1592 29.5887C21.7025 29.175 22.2879 28.8373 22.9156 28.5699L22.2429 28.8542C22.8593 28.6037 23.4983 28.4292 24.157 28.3335L23.4082 28.4349C24.1204 28.342 24.8382 28.342 25.5503 28.4349L24.8016 28.3335C25.4602 28.4292 26.0992 28.6009 26.7156 28.8542L26.0429 28.5699C26.6706 28.8345 27.2561 29.175 27.7993 29.5887L27.2307 29.1497C27.7655 29.5662 28.2412 30.0418 28.655 30.5737L28.2159 30.0052C28.6297 30.5483 28.9675 31.1337 29.2349 31.7613L28.9506 31.0887C29.2011 31.705 29.3756 32.3438 29.4713 33.0023L29.37 32.2538C29.4629 32.9658 29.4629 33.6834 29.37 34.3954L29.4713 33.6468C29.3756 34.3053 29.2039 34.9442 28.9506 35.5605L29.2349 34.8879C28.9703 35.5154 28.6297 36.1008 28.2159 36.6439L28.655 36.0755C28.2384 36.6102 27.7627 37.0858 27.2307 37.4995L27.7993 37.0604C27.2561 37.4741 26.6706 37.8118 26.0429 38.0792L26.7156 37.795C26.0992 38.0454 25.4602 38.2199 24.8016 38.3156L25.5503 38.2143C24.8382 38.3071 24.1204 38.3071 23.4082 38.2143L24.157 38.3156C23.4983 38.2199 22.8593 38.0482 22.2429 37.795L22.9156 38.0792C22.2879 37.8147 21.7025 37.4741 21.1592 37.0604L21.7278 37.4995C21.193 37.083 20.7173 36.6074 20.3035 36.0755L20.7426 36.6439C20.3288 36.1008 19.9911 35.5154 19.7237 34.8879L20.008 35.5605C19.7574 34.9442 19.5829 34.3053 19.4872 33.6468L19.5886 34.3954C19.5407 34.0408 19.5182 33.6834 19.5154 33.3232C19.5097 32.5999 19.2057 31.8457 18.6906 31.3335C18.1755 30.8213 17.4015 30.478 16.7006 30.5089C15.1834 30.5765 13.8773 31.7444 13.8858 33.3232V33.3316Z" fill="#009B99"/>
</g>
<defs>
<clipPath id="clip0_6303_6846">
<rect width="128" height="68" fill="white"/>
</clipPath>
</defs>
</svg>
