<svg width="118" height="108" viewBox="0 0 118 108" fill="none" xmlns="http://www.w3.org/2000/svg">
<g clip-path="url(#clip0_6295_6688)">
<path d="M69.0207 17.2609C69.0207 17.9209 68.9756 18.5781 68.8883 19.2325L68.9897 18.4757C68.8178 19.7133 68.4939 20.9167 68.0178 22.0718L68.3023 21.3919C67.8206 22.5441 67.1952 23.6281 66.4401 24.621L66.8796 24.0463C66.1246 25.0278 65.2541 25.9098 64.2794 26.6723L64.8484 26.2284C63.8653 26.9909 62.7919 27.6197 61.651 28.109L62.3243 27.8217C61.1833 28.2996 59.9888 28.6297 58.7634 28.8032L59.5127 28.7008C58.214 28.8743 56.904 28.8743 55.6081 28.7008L56.3575 28.8032C55.132 28.6297 53.9404 28.3025 52.7966 27.8217L53.4699 28.109C52.3289 27.6225 51.2556 26.9909 50.2724 26.2284L50.8415 26.6723C49.8696 25.9098 48.9962 25.0307 48.2412 24.0463L48.6807 24.621C47.9257 23.6281 47.3031 22.5441 46.8186 21.3919L47.1031 22.0718C46.6298 20.9196 46.303 19.7133 46.1312 18.4757L46.2326 19.2325C46.0607 17.9209 46.0607 16.598 46.2326 15.2892L46.1312 16.046C46.303 14.8084 46.627 13.605 47.1031 12.4499L46.8186 13.1299C47.3003 11.9776 47.9257 10.8937 48.6807 9.90073L48.2412 10.4754C48.9962 9.49389 49.8667 8.61193 50.8415 7.84946L50.2724 8.29328C51.2556 7.53081 52.3289 6.90206 53.4699 6.41271L52.7966 6.70006C53.9375 6.22209 55.132 5.89207 56.3575 5.71852L55.6081 5.82094C56.9068 5.64739 58.2168 5.64739 59.5127 5.82094L58.7634 5.71852C59.9888 5.89207 61.1805 6.21925 62.3243 6.70006L61.651 6.41271C62.7919 6.89921 63.8653 7.53081 64.8484 8.29328L64.2794 7.84946C65.2513 8.61193 66.1246 9.49105 66.8796 10.4754L66.4401 9.90073C67.1952 10.8937 67.8177 11.9776 68.3023 13.1299L68.0178 12.4499C68.4911 13.6021 68.8178 14.8084 68.9897 16.046L68.8883 15.2892C68.9756 15.9436 69.0179 16.6008 69.0207 17.2609C69.0263 18.7488 70.3138 20.1742 71.8378 20.1059C73.3619 20.0376 74.6607 18.8569 74.655 17.2609C74.6437 13.7842 73.6042 10.2336 71.5815 7.40279C71.0378 6.64031 70.4574 5.89776 69.8095 5.22348C69.1615 4.54921 68.4375 3.95744 67.6938 3.38558C66.3331 2.33861 64.8175 1.57045 63.2117 0.975832C56.7322 -1.41685 48.9343 0.711244 44.5451 6.09122C43.9422 6.82809 43.3675 7.59625 42.8802 8.41847C42.3928 9.24068 41.9984 10.1312 41.635 11.0274C40.9729 12.6661 40.6377 14.4073 40.5081 16.1712C40.2517 19.6279 41.1448 23.2326 42.928 26.1915C44.655 29.0507 47.2468 31.4918 50.2809 32.8716C51.1598 33.2728 52.0557 33.6398 52.9853 33.8987C53.915 34.1576 54.9123 34.3112 55.8955 34.4279C57.6365 34.6327 59.4029 34.4904 61.1157 34.1433C64.3977 33.4833 67.5219 31.6995 69.8405 29.2698C72.159 26.8401 73.8859 23.5797 74.393 20.1856C74.5367 19.2154 74.6494 18.2452 74.655 17.2637C74.6607 15.7757 73.3563 14.3504 71.8378 14.4187C70.3194 14.4869 69.0263 15.6676 69.0207 17.2637V17.2609Z" fill="#009B99"/>
<path d="M111.427 62.0959C111.726 62.4629 111.052 61.544 111.376 62.0333C111.467 62.1699 111.56 62.3065 111.644 62.4459C111.729 62.5853 111.807 62.7275 111.881 62.8726C112.013 63.1287 112.16 63.7347 111.912 62.8868C112.002 63.1941 112.129 63.49 112.213 63.8029C112.255 63.9594 112.289 64.1159 112.323 64.2752C112.354 64.4232 112.447 65.0605 112.374 64.5142C112.3 63.968 112.371 64.5512 112.379 64.6906C112.391 64.8528 112.399 65.0178 112.402 65.1828C112.41 65.5384 112.399 65.8941 112.371 66.2468C112.351 66.4858 112.216 67.1573 112.393 66.2042C112.368 66.3464 112.351 66.4915 112.326 66.6338C112.258 67.0178 112.174 67.3991 112.072 67.7746C111.982 68.1075 111.881 68.4375 111.768 68.7619C111.712 68.9269 111.647 69.0862 111.588 69.2484C111.379 69.8202 111.833 68.6993 111.588 69.2569C111.286 69.9369 110.937 70.5941 110.543 71.2228C110.359 71.513 110.165 71.7947 109.968 72.0763C109.627 72.5628 110.312 71.6553 110.013 72.0223C109.892 72.1702 109.773 72.321 109.647 72.4661C109.193 72.9953 108.7 73.4932 108.168 73.9455C108.117 73.9882 108.061 74.028 108.013 74.0735C107.799 74.2812 108.362 73.789 108.32 73.8374C108.213 73.9569 108.024 74.0565 107.892 74.1475C107.601 74.3495 107.297 74.5316 106.987 74.6995C106.796 74.8047 106.601 74.9043 106.404 74.9982C106.297 75.0494 106.173 75.0921 106.069 75.1518C106.066 75.1518 106.613 74.9413 106.322 75.038C105.903 75.1803 105.491 75.3368 105.06 75.4477C104.866 75.4989 104.669 75.5416 104.472 75.5814C104.359 75.6042 104.246 75.6184 104.136 75.644C103.829 75.7095 104.488 75.6042 104.466 75.6042C104.018 75.6269 103.576 75.6867 103.125 75.6867C102.736 75.6867 102.35 75.6554 101.961 75.6213C101.463 75.5786 102.657 75.7379 101.97 75.6156C101.75 75.5757 101.533 75.5331 101.319 75.4818C100.939 75.3937 100.564 75.2855 100.195 75.1604C100.009 75.0978 99.826 75.0266 99.6429 74.9584C99.2006 74.7962 99.8007 75.0295 99.8457 75.0522C99.7443 75.001 99.6373 74.9612 99.5359 74.9128C98.7555 74.5515 98.0061 74.1162 97.2962 73.6269C97.1272 73.5102 96.961 73.3907 96.7976 73.2684C96.7271 73.2172 96.6595 73.1603 96.5863 73.1091C97.1638 73.5188 96.868 73.3338 96.7412 73.2229C96.4032 72.9327 96.0651 72.6453 95.7411 72.3381C95.4171 72.0308 95.0988 71.7122 94.803 71.3736C94.7438 71.3053 94.6903 71.2314 94.6283 71.1659C94.4227 70.9468 94.7861 71.3821 94.7861 71.385C94.6481 71.1488 94.4621 70.9326 94.3184 70.6993C94.2058 70.5144 94.0987 70.3266 94.0001 70.1332C93.9579 70.0507 93.9212 69.9653 93.879 69.8828C93.6987 69.5499 94.0649 70.4091 93.9466 70.0507C93.879 69.8458 93.8029 69.6467 93.7466 69.439C93.7156 69.3223 93.6902 69.2028 93.6592 69.0833C93.5522 68.668 93.7268 69.2171 93.6733 69.3024C93.7381 69.2 93.6395 68.8273 93.6423 68.685C93.6536 68.0307 93.4958 69.2199 93.6113 68.7732C93.6536 68.6111 93.7099 68.4404 93.7437 68.2754C93.8085 67.9425 93.4367 68.8301 93.6226 68.5513C93.6874 68.4546 93.7297 68.3323 93.7916 68.2327C93.8254 68.1729 93.879 68.1132 93.9071 68.0506C94.0424 67.749 93.4818 68.5086 93.7268 68.2867C93.817 68.2042 94.0226 68.0364 94.0762 67.9368C94.0705 67.9482 93.5606 68.2725 93.786 68.1672C93.8677 68.1274 93.9494 68.0677 94.0255 68.0165C94.0818 67.9795 94.1635 67.9596 94.2142 67.9169C93.786 68.2953 93.6987 68.0847 94.0114 68.0221C94.079 68.0079 94.155 67.988 94.2227 67.9652C94.679 67.8201 93.8987 68.0136 93.9156 67.9994C94.0255 67.9226 94.3297 67.9994 94.4649 67.9994C94.8227 68.0051 93.8508 67.8372 94.1691 67.9681C94.2311 67.9937 94.3156 68.0108 94.3804 68.025C94.6452 68.079 94.5269 68.2611 94.1015 67.8941C94.1607 67.9453 94.2734 67.9937 94.3438 68.025C94.7551 68.2156 94.0705 67.8116 94.1043 67.8173C94.1466 67.8258 94.2875 67.9852 94.3044 67.9994C94.3494 68.0449 94.3917 68.1103 94.4424 68.1473C94.6988 68.3465 94.0931 67.6068 94.2537 67.8941C94.3325 68.0364 94.4283 68.1672 94.5044 68.3123C94.5354 68.3749 94.5607 68.4432 94.5974 68.503C94.7664 68.7818 94.3748 67.8401 94.4987 68.2896C94.5776 68.5712 94.7748 68.9895 94.7382 69.2853C94.7382 69.2825 94.6678 68.5001 94.6903 68.9695C94.6931 69.0293 94.6988 69.089 94.7044 69.1488C94.71 69.2341 94.7157 69.3166 94.7185 69.402C94.7551 70.1189 94.7495 70.8387 94.7185 71.5557C94.6988 71.9768 94.6706 72.3978 94.634 72.8189C94.6143 73.0266 94.5945 73.2343 94.572 73.4391C94.5607 73.5444 94.5466 73.6496 94.5354 73.7549C94.5297 73.8004 94.5241 73.8459 94.5185 73.8915C94.4678 74.3296 94.6199 73.1745 94.5748 73.459C94.4255 74.415 94.2621 75.3624 94.0339 76.3041C93.7888 77.3112 93.4874 78.3013 93.124 79.2714C93.0366 79.5076 92.938 79.7409 92.8479 79.977C92.7493 80.2331 93.031 79.4734 93.0282 79.5503C93.0254 79.5986 92.9634 79.701 92.9408 79.7523C92.8817 79.886 92.8225 80.0197 92.7605 80.1534C92.5295 80.657 92.2788 81.1549 92.0112 81.6385C91.7435 82.1222 91.4647 82.5802 91.1632 83.0326C91.0167 83.2545 90.8646 83.4707 90.7068 83.687C90.673 83.7325 90.6392 83.778 90.6054 83.8264C90.3688 84.1535 90.8505 83.5134 90.8392 83.5248C90.7294 83.6215 90.6449 83.7723 90.5519 83.8861C89.8194 84.7851 89.0024 85.613 88.1066 86.3442C88.0446 86.3954 87.9798 86.4438 87.9178 86.495C87.7319 86.6515 88.2474 86.2133 88.2474 86.2361C88.2503 86.2845 87.9601 86.4523 87.9037 86.4922C87.653 86.6743 87.3995 86.8478 87.1375 87.0157C86.6022 87.3599 86.0444 87.6757 85.4753 87.9574C85.2077 88.0911 84.9232 88.2532 84.6358 88.3443C84.6358 88.3443 85.3458 88.0569 84.9373 88.2134C84.8753 88.2362 84.8105 88.2646 84.7485 88.2874C84.5795 88.3528 84.4076 88.4183 84.2358 88.478C83.5653 88.717 82.8836 88.919 82.1905 89.084C81.4975 89.249 80.751 89.3827 80.0241 89.4852C79.4043 89.5705 78.6212 90.2562 78.3394 90.7939C77.9986 91.4454 77.807 92.2648 78.0549 92.9874C78.5676 94.481 79.0804 95.9718 79.5931 97.4655C79.779 98.0089 79.9762 98.5495 80.1537 99.0929C80.1931 99.218 80.2298 99.3404 80.2608 99.4684C80.3988 100.069 80.2551 98.9051 80.2495 99.3859C80.2495 99.5196 80.196 100.143 80.2692 99.5993C80.3425 99.0559 80.2129 99.7415 80.1791 99.8667C80.1622 99.9321 80.1143 100.006 80.1058 100.074C80.1143 100.012 80.4382 99.4457 80.2072 99.7928C80.1396 99.8952 80.0185 100.052 79.979 100.165C80.1312 99.7046 80.3509 99.7387 80.1481 99.935C80.0974 99.9862 80.0438 100.04 79.9959 100.094C79.9143 100.185 79.641 100.385 80.0016 100.117C80.3622 99.8496 80.0692 100.06 79.9847 100.114C79.9002 100.168 79.8044 100.208 79.7227 100.265C79.4917 100.427 80.0579 100.134 80.0467 100.14C80.0354 100.146 80.0213 100.151 80.0072 100.154C79.903 100.191 79.8016 100.237 79.7001 100.276L78.5057 100.749L75.9928 101.742C75.9167 101.77 75.8434 101.801 75.7674 101.83C75.6913 101.858 75.6124 101.887 75.5336 101.912C75.3983 101.955 74.7081 102.083 75.2349 102.006C75.7617 101.929 75.1335 101.978 75.0124 101.978C74.5419 101.975 75.6209 102.137 75.1758 101.998C75.0631 101.961 74.4912 101.75 74.9532 101.961C75.4152 102.171 74.8124 101.872 74.6997 101.801C74.1813 101.468 75.0349 102.168 74.7447 101.833C74.6602 101.736 74.2658 101.289 74.5673 101.668C74.8687 102.046 74.525 101.56 74.4574 101.431C74.4292 101.377 74.4039 101.323 74.3785 101.266C74.2799 101.059 74.187 100.848 74.094 100.638C73.3531 99.0075 72.6093 97.3773 71.8684 95.7471C71.3162 94.5323 69.84 94.2392 68.6878 94.4384C68.5385 94.464 68.3892 94.4867 68.2427 94.5095C68.0821 94.5323 67.9216 94.555 67.761 94.5778C67.2736 94.6489 68.6456 94.4611 68.1441 94.5266C68.0033 94.5436 67.8624 94.5636 67.7215 94.5806C66.2397 94.7656 64.7522 94.9021 63.262 94.9988C58.6164 95.2976 53.9287 95.2236 49.3057 94.6375L49.2127 94.6262C48.9028 94.5863 48.9648 94.5949 49.4043 94.6546C49.2353 94.5749 48.9423 94.5892 48.7535 94.5607C48.3788 94.5038 48.007 94.4469 47.6323 94.3815C46.8801 94.2534 46.1307 94.1112 45.3842 93.9519C43.8432 93.6218 42.3191 93.215 40.8176 92.7313C39.7498 92.3871 38.1159 92.9362 37.637 94.0401C37.0003 95.5081 36.3636 96.9733 35.7269 98.4414C35.5016 98.9592 35.2903 99.4826 35.0536 99.9919C34.9776 100.157 34.8818 100.305 34.7944 100.464C34.5691 100.874 35.2227 99.9919 34.817 100.413C34.7663 100.467 34.7099 100.515 34.6592 100.569C34.3719 100.88 34.8311 100.416 34.8874 100.402C34.7832 100.43 34.4677 100.612 34.3888 100.7C34.4226 100.663 35.0733 100.47 34.662 100.581C34.5916 100.601 34.524 100.626 34.4536 100.646C34.3606 100.672 34.2592 100.68 34.1719 100.715C33.8732 100.825 34.6198 100.621 34.5606 100.666C34.4479 100.749 34.1831 100.652 34.0479 100.675C33.7098 100.729 34.693 100.806 34.355 100.723C34.2564 100.7 34.1578 100.683 34.0592 100.655C33.3521 100.458 32.6647 100.128 31.9829 99.8582C31.1772 99.5395 30.3771 99.2152 29.5686 98.9051C29.2559 98.7856 29.8109 98.9876 29.8475 99.0217C29.7404 98.9193 29.5207 98.8254 29.3939 98.7515C29.1601 98.6149 29.67 98.9677 29.67 98.9677C29.6418 98.9051 29.4644 98.7657 29.4052 98.7116C29.3545 98.6661 29.315 98.5865 29.2587 98.5466C29.6785 98.8425 29.5714 99.0075 29.4418 98.7685C29.3742 98.6434 29.1291 98.1284 29.3122 98.5921C29.4953 99.0559 29.2953 98.5125 29.2643 98.3788C29.2474 98.3162 29.1883 98.1398 29.2052 98.0914C29.1967 98.117 29.2418 98.8226 29.2587 98.4072C29.2643 98.265 29.3066 97.6732 29.2334 98.1881C29.1573 98.7287 29.2672 98.0914 29.3038 97.9662C29.3291 97.8837 29.3573 97.8012 29.3855 97.7187C29.4756 97.4513 29.5686 97.1867 29.6587 96.9192C30.256 95.1809 30.8532 93.4455 31.4505 91.7071C31.9266 90.3244 30.9039 88.4979 29.4841 88.2077C27.8614 87.8777 26.2584 87.4595 24.6949 86.9104C24.3568 86.7909 24.0188 86.6657 23.6835 86.5348C23.4976 86.4637 23.3145 86.3869 23.1285 86.3129C23.0384 86.2759 22.7792 86.165 23.1962 86.3414C23.6723 86.5434 23.2102 86.3442 23.1342 86.3101C22.5257 86.037 21.9256 85.7439 21.3396 85.4224C20.7987 85.1265 20.2691 84.8107 19.7536 84.4722C19.5197 84.3186 19.2859 84.1592 19.0577 83.9942C18.9479 83.9146 18.8352 83.8321 18.7253 83.7524C18.6802 83.7183 18.6323 83.6813 18.5873 83.6471C18.2098 83.3655 19.0605 84.034 18.8408 83.8463C18.0633 83.1748 17.2998 82.5148 16.6124 81.7438C16.4631 81.5759 16.3138 81.4024 16.1729 81.226C16.1025 81.1406 16.0349 81.0524 15.9645 80.9671C15.7588 80.7167 16.449 81.6186 16.1251 81.1748C15.8659 80.8163 15.6123 80.4521 15.3813 80.0766C14.9756 79.4222 14.6404 78.7366 14.3221 78.0339C14.1728 77.7067 14.646 78.8475 14.4798 78.4122C14.4517 78.3354 14.4179 78.2586 14.3897 78.1818C14.3277 78.0225 14.2714 77.8603 14.215 77.6981C14.1164 77.4079 14.0234 77.1121 13.9417 76.8162C13.8065 76.3211 13.6967 75.8176 13.615 75.3083C13.6037 75.2429 13.5952 75.1774 13.5868 75.112C13.5248 74.7393 13.6938 76.0281 13.66 75.6611C13.6516 75.5615 13.6375 75.4591 13.6262 75.3595C13.6093 75.1945 13.5981 75.0266 13.5896 74.8616C13.584 74.7194 13.5783 74.58 13.584 74.4377C13.6431 72.9014 12.243 71.5927 10.7668 71.5927H6.13537C6.03677 71.5927 5.93535 71.5927 5.83675 71.5927C5.81985 71.5927 5.80576 71.5927 5.78886 71.5927C5.74378 71.5927 5.67899 71.5898 5.63391 71.5898C5.40572 71.5699 5.43108 71.5756 5.70998 71.6069C5.9607 71.6467 6.01141 71.6496 5.86492 71.6183C5.82266 71.5898 5.70434 71.5728 5.65082 71.5614C5.24233 71.4789 5.87055 71.6354 5.91845 71.6866C5.8621 71.624 5.29304 71.2513 5.71561 71.6069C6.11283 71.9398 5.65363 71.5187 5.57757 71.4447C5.51277 71.3821 5.32966 71.1488 5.61983 71.5073C5.93253 71.8971 5.65927 71.513 5.60574 71.4305C5.55221 71.348 5.44798 71.0777 5.62546 71.5073C5.80294 71.9369 5.68462 71.6666 5.6649 71.5728C5.6649 71.5614 5.57475 71.3167 5.59165 71.2854C5.61701 71.2342 5.63673 71.9853 5.64236 71.6666C5.64236 71.5671 5.63391 71.4646 5.63391 71.3651C5.63391 71.1375 5.63391 70.9099 5.63391 70.6823V64.995C5.63391 64.4801 5.62264 63.9651 5.63391 63.4502C5.63391 63.3705 5.64518 63.2908 5.64236 63.2112C5.63673 62.8954 5.61983 63.6436 5.59165 63.5924C5.57475 63.5611 5.66208 63.3136 5.6649 63.3051C5.68462 63.2112 5.80576 62.9409 5.62546 63.3705C5.44516 63.8001 5.55221 63.5241 5.60574 63.4473C5.62264 63.4246 5.7466 63.2453 5.75505 63.1998C5.74378 63.2795 5.30712 63.6948 5.58039 63.4359C5.65645 63.362 6.11565 62.9409 5.71843 63.2738C5.29585 63.6266 5.86492 63.2567 5.92126 63.1941C5.87337 63.2453 5.24514 63.4018 5.65363 63.3193C5.70434 63.3079 5.82548 63.2908 5.86774 63.2624C6.10438 63.1059 5.49587 63.3961 5.48742 63.3022C5.48742 63.2937 5.75505 63.288 5.79449 63.288C7.37492 63.2539 8.96099 63.288 10.5414 63.288C12.1219 63.288 13.2375 61.9793 13.3586 60.4429C13.4037 59.8597 13.5164 59.2679 13.5361 58.6847C13.5051 59.6094 13.5361 58.6876 13.5783 58.4343C13.629 58.11 13.6854 57.7857 13.7445 57.4642C13.9446 56.4087 14.1981 55.3645 14.5136 54.3403C14.6517 53.888 14.8038 53.4384 14.9672 52.9975C15.0461 52.7841 15.1278 52.5707 15.2123 52.3602C15.2517 52.2663 15.4292 51.831 15.2236 52.3289C15.0179 52.8268 15.2461 52.2834 15.2912 52.1838C15.6405 51.4042 16.0293 50.6446 16.4659 49.9078C16.866 49.2335 17.3252 48.6133 17.7647 47.9674C17.1871 48.8153 17.559 48.2377 17.7196 48.0357C17.8294 47.8991 17.9393 47.7654 18.0548 47.6317C18.2943 47.3501 18.5422 47.0741 18.7986 46.8038C19.2521 46.3287 19.7282 45.8735 20.2269 45.4467C20.472 45.239 21.3396 44.5904 20.3959 45.2902C20.6353 45.1139 20.872 44.9318 21.1171 44.7611C21.889 44.2205 22.7003 43.7397 23.5483 43.33C23.7004 43.256 23.8554 43.1849 24.0103 43.1138C24.4695 42.9033 23.7061 43.2475 23.6046 43.2845C23.6892 43.2532 23.7709 43.2162 23.8526 43.1821C24.0836 43.0882 24.3174 43.0028 24.5512 42.9232C25.3823 42.6472 26.0838 42.3001 26.7571 41.677C28.2755 40.2716 28.7713 38.1663 28.9883 36.1861C29.2052 34.2173 28.9601 32.2144 28.6615 30.2684C28.5262 29.3808 28.3628 28.4874 28.1347 27.6168C27.2303 28.8174 26.3232 30.0181 25.4189 31.2187C25.7626 31.1931 26.1091 31.1902 26.4528 31.213C26.5289 31.2187 26.6021 31.2272 26.6782 31.2329C27.1458 31.2699 25.9795 31.1106 26.3176 31.1845C26.5176 31.2272 26.7176 31.2585 26.9176 31.3097C27.2219 31.3865 27.5177 31.4889 27.8135 31.5971C28.3431 31.7934 27.1177 31.2756 27.7008 31.5544C27.8698 31.634 28.0332 31.7194 28.1966 31.8104C28.4924 31.9754 28.7798 32.1547 29.0587 32.3481C29.1995 32.4449 29.3348 32.5501 29.4728 32.6497C29.7489 32.8489 28.8615 32.1518 29.2164 32.4534C29.3038 32.5274 29.3939 32.6014 29.4813 32.6753C30.0081 33.1277 30.5011 33.6227 30.9631 34.1434C31.1941 34.4023 31.4195 34.6697 31.6364 34.94C31.6843 34.9997 31.7322 35.0595 31.7801 35.1221C32.0702 35.4891 31.3829 34.59 31.5829 34.866C31.7068 35.0339 31.8308 35.2017 31.9519 35.3696C32.3322 35.9044 32.6928 36.4564 33.0337 37.0169C33.6112 37.9671 34.138 38.9515 34.6141 39.9586C34.7832 40.3171 34.9438 40.6813 35.1015 41.0483C34.8057 40.3655 34.8283 40.3712 34.9945 40.8008C35.448 41.9843 36.3833 42.8919 37.7102 42.889C39.9752 42.8833 42.2402 42.8805 44.5052 42.8748C49.2324 42.8663 53.9597 42.8549 58.6869 42.8464C62.7718 42.8378 66.8595 42.8293 70.9444 42.8207C71.7754 42.8207 72.6093 42.8151 73.4404 42.8151C74.3644 42.8151 75.2885 42.8577 76.2097 42.9374C76.5421 42.9658 76.8745 43 77.2069 43.0398C77.2915 43.0512 77.3732 43.0597 77.4577 43.0711C77.8774 43.1223 77.083 43.0227 77.083 43.0199C77.083 43.0199 77.6521 43.1081 77.7056 43.1166C78.4127 43.2333 79.117 43.3784 79.8128 43.5519C80.5087 43.7255 81.1989 43.9303 81.8778 44.1665C82.1962 44.2774 82.5117 44.3969 82.8272 44.5221C82.8864 44.5448 83.0188 44.579 83.061 44.6188C83.0695 44.6245 82.3483 44.3059 82.7371 44.4823C82.9286 44.5705 83.1202 44.6558 83.3118 44.7468C83.94 45.0484 84.5485 45.3813 85.1401 45.7511C85.4444 45.9418 85.743 46.1438 86.0331 46.3514C86.1543 46.4396 86.3487 46.5364 86.4416 46.6559C86.4473 46.6616 85.8444 46.1751 86.1712 46.4482C86.2529 46.5165 86.3346 46.5819 86.4163 46.6502C86.9741 47.1196 87.5009 47.6289 87.9883 48.1751C88.1038 48.306 88.2193 48.4369 88.3291 48.5706C88.3996 48.6531 88.8193 49.1908 88.4813 48.747C88.1432 48.3031 88.5545 48.8522 88.6165 48.9404C88.7461 49.1254 88.8729 49.3103 88.994 49.5009C89.4081 50.1467 89.7772 50.8239 90.0955 51.5209C90.1462 51.629 90.1913 51.7428 90.242 51.8509C90.3885 52.1667 90.0054 51.2478 90.1265 51.5749C90.1941 51.7599 90.2702 51.9448 90.3378 52.1297C90.4843 52.5366 90.6167 52.9491 90.735 53.3645C90.9857 54.255 91.1689 55.1597 91.3041 56.073C91.3999 56.7302 92.0591 57.4557 92.6 57.7743C93.2029 58.1299 94.0931 58.2836 94.772 58.0616C95.451 57.8397 96.1102 57.413 96.4567 56.7529C96.8342 56.0303 96.8595 55.3617 96.7412 54.5594C96.189 50.7983 94.6593 47.2732 92.1943 44.3912C90.0194 41.8477 87.1178 40.1037 84.0386 38.9145C80.2495 37.4522 76.1759 37.1164 72.1558 37.1221C68.423 37.1307 64.6931 37.1364 60.9603 37.1449C56.0669 37.1563 51.1707 37.1648 46.2772 37.1762C43.4741 37.1819 40.657 37.1079 37.8539 37.1933C37.8116 37.1933 37.7694 37.1933 37.7243 37.1933L40.4401 39.2815C39.7949 37.5944 38.992 35.9557 38.0736 34.408C36.3805 31.5572 34.2057 28.7833 31.3434 27.0621C29.5855 26.0037 27.4839 25.3778 25.4274 25.5257C23.6075 25.6566 22.2186 27.2384 22.7116 29.1276C22.8975 29.8417 23.0384 30.5728 23.1595 31.3012C23.2131 31.6198 23.2976 31.9612 23.3088 32.2856C23.3088 32.3311 23.2046 31.4349 23.2497 31.8446C23.2609 31.9527 23.275 32.0608 23.2891 32.1689C23.3117 32.3737 23.3342 32.5757 23.3511 32.7806C23.4215 33.5687 23.4553 34.3624 23.4328 35.1534C23.4215 35.5346 23.3821 35.913 23.3483 36.2942C23.4412 35.2131 23.399 35.9272 23.3483 36.1946C23.3088 36.4052 23.261 36.6129 23.2046 36.8206C23.1595 36.9856 23.1032 37.1477 23.0497 37.3127C22.8581 37.9017 23.4018 36.6385 23.1004 37.179C23.0243 37.3184 22.9454 37.455 22.8637 37.5916C22.8327 37.6428 22.7877 37.6911 22.7595 37.7452C23.1539 37.0083 23.1342 37.2871 22.906 37.5204C22.8018 37.6285 22.3876 37.9643 22.8525 37.6001C23.3173 37.2359 23.0187 37.4778 22.9144 37.5347C27.0782 35.3155 23.7032 37.253 23.506 37.2957C23.4835 37.3014 23.4582 37.3071 23.4356 37.3156C23.2976 37.3497 23.1623 37.3953 23.0299 37.4408C18.4182 38.9913 14.5334 42.3826 11.9387 46.4823C9.34413 50.582 8.11021 55.5552 7.72707 60.4429L10.5442 57.5979C8.97226 57.5979 7.39746 57.5638 5.82548 57.5979C3.68443 57.6434 1.53493 58.8213 0.622166 60.8413C0.12071 61.9309 -0.000428779 63.0319 -0.000428779 64.2183V70.2982C-0.000428779 71.1659 -0.020149 72.0024 0.177053 72.8587C0.754573 75.3823 3.01676 77.0438 5.48742 77.26C6.37201 77.3368 7.28477 77.2742 8.17218 77.2742H10.7724L7.95526 74.4292C7.93272 74.9982 8.02006 75.5729 8.09612 76.1334C8.26233 77.388 8.54123 78.6029 9.00325 79.7836C10.6795 84.0739 13.7389 87.4851 17.6576 89.8436C20.8185 91.747 24.3991 92.9504 27.9938 93.6844C27.3374 92.518 26.681 91.3515 26.0274 90.185C25.4583 91.8408 24.8893 93.4995 24.3202 95.1553C23.999 96.0913 23.7061 96.9335 23.6413 97.9492C23.4948 100.285 24.7879 102.581 26.7486 103.779C27.6078 104.302 28.6925 104.624 29.6306 104.993C30.4729 105.326 31.3096 105.671 32.1548 105.992C33.938 106.669 36.1664 106.407 37.7412 105.312C38.8765 104.521 39.6569 103.494 40.2034 102.239C40.9725 100.464 41.7444 98.6889 42.5135 96.9136L39.3329 98.2223C44.6714 99.9435 50.3311 100.672 55.9204 100.831C59.7574 100.939 63.6113 100.771 67.4229 100.313C68.3498 100.202 69.2766 100.089 70.1978 99.9293L67.0172 98.6206C67.7328 100.191 68.4455 101.762 69.1611 103.335C69.5921 104.282 70.0401 105.19 70.8289 105.91C72.5417 107.472 75.0546 108.154 77.2689 107.324C78.7057 106.786 80.134 106.205 81.5567 105.631C83.6526 104.783 85.4106 103.084 85.7711 100.74C85.9768 99.4115 85.8106 98.1938 85.3824 96.9449C84.757 95.124 84.1316 93.3004 83.5061 91.4795L81.5398 94.9789C84.6696 94.5493 87.7882 93.4625 90.411 91.6616C92.8507 89.983 94.8791 87.8265 96.4341 85.2944C98.9442 81.2061 100.167 76.3041 100.367 71.5244C100.496 68.4603 100.113 65.0974 97.3694 63.2368C95.1354 61.7232 92.2112 62.1813 90.2138 63.8314C88.2531 65.4502 87.7573 68.1217 88.2221 70.5172C88.6869 72.9128 90.1688 74.8588 91.8365 76.4321C93.3353 77.8461 95.0509 79.1093 96.9356 79.94C98.9583 80.8334 101.074 81.4166 103.302 81.3853C105.624 81.3512 107.894 80.7025 109.926 79.5759C112.923 77.9115 115.278 74.9384 116.608 71.7947C118.155 68.1359 118.614 64.1586 116.963 60.4486C116.574 59.5752 116.019 58.8213 115.419 58.0816C114.478 56.9265 112.396 57.0232 111.436 58.0816C110.32 59.3078 110.433 60.8725 111.436 62.1045L111.427 62.0959Z" fill="#009B99"/>
<path d="M44.1701 50.9121H68.4203C69.5415 50.9121 70.6628 50.932 71.784 50.9121C71.8009 50.9121 71.8178 50.9121 71.8347 50.9121C73.3081 50.9121 74.7195 49.6033 74.6519 48.067C74.5843 46.5307 73.4151 45.222 71.8347 45.222H47.5845C46.4633 45.222 45.342 45.2021 44.2208 45.222C44.2039 45.222 44.187 45.222 44.1701 45.222C42.6967 45.222 41.2853 46.5307 41.3529 48.067C41.4205 49.6033 42.5897 50.9121 44.1701 50.9121Z" fill="#009B99"/>
</g>
<defs>
<clipPath id="clip0_6295_6688">
<rect width="118" height="107.679" fill="white"/>
</clipPath>
</defs>
</svg>
