<svg width="32" height="32" viewBox="0 0 32 32" fill="none" xmlns="http://www.w3.org/2000/svg">
<path fill-rule="evenodd" clip-rule="evenodd" d="M28.3495 25.0481C28.35 25.0568 28.3499 25.0657 28.3492 25.0746C28.2097 26.8221 26.8221 28.2097 25.0747 28.3491C25.0658 28.3498 25.057 28.35 25.0483 28.3495L22.266 28.5715C21.6 28.6247 20.9681 28.886 20.4596 29.3193L18.3163 31.1471C16.9821 32.2841 15.0183 32.2844 13.6841 31.1473L11.5407 29.3212C11.0321 28.8878 10.4001 28.6252 9.73436 28.5721L6.95212 28.3496C6.94396 28.3499 6.93569 28.3498 6.92734 28.3491C5.17991 28.2097 3.79231 26.8221 3.65286 25.0746L3.42824 22.266C3.37511 21.6002 3.11259 20.9681 2.67917 20.4596L0.853009 18.3162C-0.283959 16.982 -0.284545 15.0182 0.852505 13.6839L2.68031 11.5405C3.11339 11.0323 3.37353 10.4004 3.4267 9.73419L3.65132 6.92544C3.65204 6.91644 3.65335 6.90763 3.65521 6.89905C3.80666 5.17112 5.17931 3.80128 6.90851 3.6542C6.91415 3.65325 6.91987 3.65254 6.92567 3.65208L9.73346 3.42802C10.3993 3.37488 11.0316 3.11235 11.5402 2.67895L13.6843 0.852771C15.0185 -0.284257 16.982 -0.284257 18.3163 0.852771L20.4601 2.67975C20.9684 3.11293 21.5996 3.37332 22.2658 3.42648L25.0735 3.6511C26.8209 3.79055 28.2089 5.17856 28.3484 6.926L28.5716 9.73328C28.6247 10.399 28.8876 11.0314 29.321 11.54L31.1472 13.6841C32.2841 15.0183 32.2844 16.98 31.1474 18.3143L29.3213 20.4596C28.8878 20.9682 28.6252 21.6 28.5721 22.2658L28.3495 25.0481Z" fill="#BDFFCB"/>
</svg>
