<svg width="40" height="40" viewBox="0 0 40 40" fill="none" xmlns="http://www.w3.org/2000/svg">
<g clip-path="url(#clip0_6844_673)">
<path fill-rule="evenodd" clip-rule="evenodd" d="M35.4369 31.3102C35.4375 31.321 35.4374 31.3321 35.4365 31.3433C35.2621 33.5276 33.5277 35.2621 31.3434 35.4364C31.3322 35.4373 31.3212 35.4374 31.3103 35.4369L27.8325 35.7144C27 35.7808 26.2101 36.1075 25.5746 36.6491L22.8954 38.9339C21.2276 40.3552 18.7729 40.3555 17.1051 38.9342L14.4259 36.6515C13.7902 36.1097 13.0002 35.7815 12.1679 35.7151L8.69015 35.437C8.67995 35.4374 8.66962 35.4372 8.65918 35.4364C6.47488 35.2621 4.74038 33.5276 4.56608 31.3433L4.2853 27.8324C4.21888 27.0002 3.89074 26.2102 3.34896 25.5744L1.06626 22.8952C-0.354949 21.2275 -0.355682 18.7728 1.06563 17.1049L3.35039 14.4257C3.89174 13.7904 4.21691 13.0006 4.28337 12.1677L4.56415 8.6568C4.56505 8.64555 4.56669 8.63454 4.56902 8.62381C4.75833 6.4639 6.47414 4.7516 8.63564 4.56775C8.64268 4.56657 8.64984 4.56568 8.65709 4.5651L12.1668 4.28502C12.9991 4.2186 13.7895 3.89044 14.4252 3.34868L17.1053 1.06596C18.7731 -0.355321 21.2275 -0.355321 22.8953 1.06596L25.5751 3.34969C26.2105 3.89116 26.9996 4.21664 27.8323 4.2831L31.3419 4.56387C33.5262 4.73818 35.2611 6.4732 35.4354 8.6575L35.7144 12.1666C35.7809 12.9988 36.1095 13.7892 36.6513 14.425L38.934 17.1052C40.3551 18.7729 40.3554 21.225 38.9343 22.8928L36.6516 25.5745C36.1098 26.2102 35.7816 27 35.7151 27.8322L35.4369 31.3102Z" fill="#BDFFCB"/>
<path d="M16 11C13.239 11 11 13.239 11 16V24C11 26.761 13.239 29 16 29H24C26.761 29 29 26.761 29 24V16C29 13.239 26.761 11 24 11H16ZM26 13C26.552 13 27 13.448 27 14C27 14.552 26.552 15 26 15C25.448 15 25 14.552 25 14C25 13.448 25.448 13 26 13ZM20 15C22.761 15 25 17.239 25 20C25 22.761 22.761 25 20 25C17.239 25 15 22.761 15 20C15 17.239 17.239 15 20 15ZM20 17C19.2044 17 18.4413 17.3161 17.8787 17.8787C17.3161 18.4413 17 19.2044 17 20C17 20.7956 17.3161 21.5587 17.8787 22.1213C18.4413 22.6839 19.2044 23 20 23C20.7956 23 21.5587 22.6839 22.1213 22.1213C22.6839 21.5587 23 20.7956 23 20C23 19.2044 22.6839 18.4413 22.1213 17.8787C21.5587 17.3161 20.7956 17 20 17Z" fill="#076267"/>
</g>
<defs>
<clipPath id="clip0_6844_673">
<rect width="40" height="40" rx="20" fill="white"/>
</clipPath>
</defs>
</svg>
