<svg width="40" height="40" viewBox="0 0 40 40" fill="none" xmlns="http://www.w3.org/2000/svg">
<g clip-path="url(#clip0_6844_677)">
<path fill-rule="evenodd" clip-rule="evenodd" d="M35.4369 31.3102C35.4375 31.321 35.4374 31.3321 35.4365 31.3433C35.2621 33.5276 33.5277 35.2621 31.3434 35.4364C31.3322 35.4373 31.3212 35.4374 31.3103 35.4369L27.8325 35.7144C27 35.7808 26.2101 36.1075 25.5746 36.6491L22.8954 38.9339C21.2276 40.3552 18.7729 40.3555 17.1051 38.9342L14.4259 36.6515C13.7902 36.1097 13.0002 35.7815 12.1679 35.7151L8.69015 35.437C8.67995 35.4374 8.66962 35.4372 8.65918 35.4364C6.47488 35.2621 4.74038 33.5276 4.56608 31.3433L4.2853 27.8324C4.21888 27.0002 3.89074 26.2102 3.34896 25.5744L1.06626 22.8952C-0.354949 21.2275 -0.355682 18.7728 1.06563 17.1049L3.35039 14.4257C3.89174 13.7904 4.21691 13.0006 4.28337 12.1677L4.56415 8.6568C4.56505 8.64555 4.56669 8.63454 4.56902 8.62381C4.75833 6.4639 6.47414 4.7516 8.63564 4.56775C8.64268 4.56657 8.64984 4.56568 8.65709 4.5651L12.1668 4.28502C12.9991 4.2186 13.7895 3.89044 14.4252 3.34868L17.1053 1.06596C18.7731 -0.355321 21.2275 -0.355321 22.8953 1.06596L25.5751 3.34969C26.2105 3.89116 26.9996 4.21664 27.8323 4.2831L31.3419 4.56387C33.5262 4.73818 35.2611 6.4732 35.4354 8.6575L35.7144 12.1666C35.7809 12.9988 36.1095 13.7892 36.6513 14.425L38.934 17.1052C40.3551 18.7729 40.3554 21.225 38.9343 22.8928L36.6516 25.5745C36.1098 26.2102 35.7816 27 35.7151 27.8322L35.4369 31.3102Z" fill="#BDFFCB"/>
<path d="M20 10C14.477 10 10 14.477 10 20C10 25.013 13.693 29.153 18.505 29.876V22.65H16.031V20.021H18.505V18.272C18.505 15.376 19.916 14.105 22.323 14.105C23.476 14.105 24.085 14.19 24.374 14.229V16.523H22.732C21.71 16.523 21.353 17.492 21.353 18.584V20.021H24.348L23.942 22.65H21.354V29.897C26.235 29.236 30 25.062 30 20C30 14.477 25.523 10 20 10Z" fill="#076267"/>
</g>
<defs>
<clipPath id="clip0_6844_677">
<rect width="40" height="40" rx="20" fill="white"/>
</clipPath>
</defs>
</svg>
