<svg width="20" height="21" viewBox="0 0 20 21" fill="none" xmlns="http://www.w3.org/2000/svg">
<path d="M1.9458 8.96407C1.68476 8.72267 1.82656 8.28626 2.17964 8.2444L7.18262 7.65099C7.32652 7.63392 7.45151 7.54356 7.51221 7.41197L9.6224 2.83715C9.77132 2.51429 10.2303 2.51422 10.3792 2.83709L12.4894 7.41188C12.5501 7.54346 12.6743 7.63407 12.8182 7.65113L17.8215 8.2444C18.1745 8.28626 18.3159 8.7228 18.0549 8.9642L14.3565 12.385C14.2501 12.4834 14.2027 12.6299 14.231 12.772L15.2125 17.7134C15.2818 18.0621 14.9107 18.3323 14.6004 18.1587L10.2043 15.6973C10.0778 15.6265 9.92422 15.6268 9.79777 15.6976L5.4012 18.158C5.09094 18.3317 4.71912 18.0621 4.78841 17.7134L5.77012 12.7723C5.79836 12.6302 5.75111 12.4834 5.64472 12.385L1.9458 8.96407Z" fill="#9BE1D7" stroke="#009B99" stroke-width="2" stroke-linecap="round" stroke-linejoin="round"/>
</svg>
