<svg width="96" height="97" viewBox="0 0 96 97" fill="none" xmlns="http://www.w3.org/2000/svg">
<g clip-path="url(#clip0_6303_6761)">
<path d="M21.8945 8.03638C17.7343 11.5959 16.1164 17.2776 15.9501 22.5704C15.7838 27.8632 17.0437 33.5392 19.5184 38.3388C20.5726 40.3821 21.9452 42.3887 23.6814 43.9134C26.3309 46.2413 30.1106 48.0197 33.6817 46.9177C35.7139 46.2921 37.5065 44.8294 38.5268 42.958C39.5471 41.0867 39.7613 39.0688 39.3977 37.0114C38.6959 33.0348 35.1868 30.3827 31.5424 29.23C28.2785 28.1985 24.7102 28.2634 21.342 28.6326C18.5658 28.9369 15.8064 29.4555 13.2077 30.5011C10.9049 31.4255 8.84175 32.5895 6.91949 34.1621C5.47639 35.3401 4.2475 36.769 3.20745 38.3106C1.76435 40.4525 0.735581 42.9806 0.29025 45.5255C-0.155082 48.0704 -0.0141543 50.6689 0.281794 53.2843C0.969522 59.3296 2.70575 65.1494 5.54122 70.5408C8.18502 75.5658 11.7843 80.1625 16.0347 83.9306C20.4965 87.8875 25.5981 90.9566 31.1675 93.076C36.7088 95.1869 42.7095 96.1987 48.6341 96.1169C54.5418 96.0352 60.4805 94.8825 65.9457 92.6335C71.4475 90.3676 76.4786 87.2026 80.8333 83.133C85.188 79.0634 88.4828 74.5738 90.9914 69.4755C93.6887 63.9967 95.3094 58.1233 95.8308 52.0414C96.341 46.0948 95.6955 39.9847 93.9678 34.272C92.2372 28.5452 89.4299 23.2552 85.7686 18.5374C82.2792 14.0422 77.9499 10.198 73.1048 7.20779C68.1864 4.17529 62.6564 2.01647 56.9714 0.97088C54.0119 0.424128 51.0017 0.122569 47.9915 0.119751C46.5174 0.119751 45.1053 1.41617 45.1729 2.93806C45.2406 4.45994 46.4103 5.75355 47.9915 5.75637C50.0068 5.75637 52.022 5.89164 54.0204 6.15375L53.2706 6.05229C57.2251 6.58495 61.0949 7.63618 64.776 9.18061L64.1023 8.89596C67.6932 10.415 71.0755 12.3907 74.1646 14.7721L73.5952 14.3325C76.659 16.7027 79.4099 19.4562 81.7831 22.5197L81.3435 21.9504C83.7223 25.0392 85.7009 28.4212 87.2201 32.0117L86.9355 31.3381C88.48 35.016 89.5314 38.8856 90.0641 42.8425L89.9626 42.0928C90.4897 46.092 90.4897 50.1503 89.9626 54.1495L90.0641 53.3999C89.5314 57.3539 88.48 61.2235 86.9355 64.9042L87.2201 64.2306C85.7009 67.8211 83.7251 71.2031 81.3435 74.292L81.7831 73.7227C79.4127 76.7862 76.659 79.5368 73.5952 81.9098L74.1646 81.4702C71.0755 83.8488 67.6932 85.8273 64.1023 87.3464L64.776 87.0617C61.0978 88.6061 57.2279 89.6574 53.2706 90.19L54.0204 90.0886C50.0208 90.6156 45.9621 90.6156 41.9626 90.0886L42.7123 90.19C38.7579 89.6574 34.888 88.6061 31.207 87.0617L31.8806 87.3464C28.2898 85.8273 24.9075 83.8517 21.8184 81.4702L22.3877 81.9098C19.324 79.5396 16.573 76.7862 14.1998 73.7227L14.6395 74.292C12.2607 71.2031 10.282 67.8211 8.76283 64.2306L9.0475 64.9042C7.50293 61.2263 6.45161 57.3568 5.9189 53.3999L6.02037 54.1495C5.75543 52.1457 5.57504 50.094 5.62296 48.0704C5.63141 47.6759 5.67369 47.2813 5.72724 46.8896L5.62577 47.6392C5.82589 46.1568 6.2374 44.7054 6.81802 43.3272L6.53335 44.0008C7.09424 42.6818 7.81579 41.4361 8.69236 40.2975L8.25267 40.8668C9.1377 39.7254 10.1636 38.7108 11.3052 37.8287L10.7358 38.2684C12.0521 37.2594 13.498 36.4449 15.0228 35.7967L14.3492 36.0814C16.5646 35.1541 18.9068 34.5877 21.2829 34.2664L20.5331 34.3678C23.0783 34.0324 25.7305 33.8662 28.2813 34.2072L27.5316 34.1057C28.7605 34.2805 29.9612 34.5792 31.1112 35.0527L30.4375 34.768C31.2577 35.1175 32.03 35.5543 32.7375 36.0983L32.1681 35.6586C32.6191 36.0193 33.0278 36.4139 33.3914 36.8648L32.9517 36.2955C33.3124 36.7662 33.6112 37.2707 33.8452 37.8146L33.5605 37.141C33.7803 37.6793 33.9325 38.2345 34.0086 38.8095L33.9072 38.0598C33.9692 38.5925 33.9664 39.1195 33.8959 39.6493L33.9974 38.8997C33.9213 39.3929 33.7888 39.8663 33.5971 40.3257L33.8818 39.6521C33.6901 40.0862 33.4506 40.4864 33.1659 40.8668L33.6056 40.2975C33.2871 40.7006 32.9291 41.0585 32.5261 41.3769L33.0954 40.9373C32.7459 41.1994 32.3767 41.4192 31.9765 41.594L32.6501 41.3093C32.2301 41.4812 31.8017 41.594 31.3507 41.6588L32.1005 41.5573C31.6129 41.6137 31.1281 41.6052 30.6405 41.5461L31.3902 41.6475C30.7194 41.5517 30.0739 41.3629 29.4482 41.1064L30.1218 41.391C29.2284 41.0106 28.4025 40.5089 27.6331 39.9227L28.2024 40.3624C27.3258 39.6803 26.562 38.8687 25.8799 37.9922L26.3196 38.5615C25.1866 37.0847 24.2931 35.4388 23.5659 33.7281L23.8506 34.4016C22.7964 31.8962 22.1002 29.247 21.7395 26.5555L21.8409 27.3051C21.5224 24.8758 21.4773 22.4069 21.8043 19.9747L21.7028 20.7244C21.9368 19.039 22.3511 17.3791 23.0078 15.8064L22.7231 16.48C23.2051 15.3471 23.8083 14.2761 24.558 13.301L24.1183 13.8703C24.6454 13.1939 25.2316 12.5739 25.8827 12.0158C27.0073 11.0548 26.9453 9.00587 25.8827 8.03074C24.6848 6.9316 23.0952 7.00488 21.8973 8.03074L21.8945 8.03638Z" fill="#009B99"/>
<path d="M45.1726 26.7782V49.3556C45.1726 50.3984 45.1556 51.444 45.1726 52.4868C45.1726 52.5009 45.1726 52.5178 45.1726 52.5319C45.1726 54.0566 46.4635 55.3502 47.9911 55.3502H66.5344C68.0085 55.3502 69.4206 54.0537 69.3529 52.5319C69.2853 51.01 68.1156 49.7136 66.5344 49.7136H47.9911L50.8097 52.5319V29.9544C50.8097 28.9116 50.8266 27.866 50.8097 26.8233C50.8097 26.8092 50.8097 26.7923 50.8097 26.7782C50.8097 25.3042 49.5131 23.8922 47.9911 23.9599C46.4691 24.0275 45.1726 25.1971 45.1726 26.7782Z" fill="#009B99"/>
<path d="M29.2678 15.674C29.2988 13.3348 29.3298 10.9956 29.3608 8.65636C29.3665 8.31817 29.3693 7.97997 29.3749 7.64177C29.3946 6.10298 28.0671 4.8432 26.5564 4.82347C24.3804 4.79528 22.2045 4.7671 20.0286 4.7361C19.7214 4.73328 19.4113 4.72764 19.1041 4.72483C17.63 4.7051 16.2179 6.03534 16.2855 7.54313C16.3532 9.05093 17.5229 10.3417 19.1041 10.3614C21.28 10.3896 23.4559 10.4178 25.6319 10.4488C25.9391 10.4516 26.2491 10.4573 26.5564 10.4601L23.7378 7.64177C23.7068 9.98097 23.6758 12.3202 23.6448 14.6594C23.6392 14.9976 23.6363 15.3358 23.6307 15.674C23.611 17.1479 24.9413 18.5599 26.4493 18.4923C27.9572 18.4246 29.2481 17.255 29.2678 15.674Z" fill="#009B99"/>
</g>
<defs>
<clipPath id="clip0_6303_6761">
<rect width="96" height="96" fill="white" transform="translate(0 0.119751)"/>
</clipPath>
</defs>
</svg>
