<svg width="85" height="63" viewBox="0 0 85 63" fill="none" xmlns="http://www.w3.org/2000/svg">
<path d="M72.84 0.639995L80.52 14.08C80.52 14.08 70.68 19.12 66.6 27.76C76.92 28.96 84.12 34.96 84.12 45.04C84.12 53.92 76.68 62.56 65.88 62.56C52.68 62.56 45.96 52.48 45.96 39.52C45.96 23.68 56.28 6.39999 72.84 0.639995ZM27.24 0.639995L34.92 14.08C34.92 14.08 25.08 19.12 21 27.76C31.32 28.96 38.52 34.96 38.52 45.04C38.52 53.92 31.08 62.56 20.28 62.56C7.08 62.56 0.36 52.48 0.36 39.52C0.36 23.68 10.68 6.39999 27.24 0.639995Z" fill="#BDFFCB"/>
</svg>
